<svg xmlns="http://www.w3.org/2000/svg" viewBox="0 0 250 250">
  <defs>
    <style>
      .cls-1, .cls-10, .cls-4 {
        fill: none;
      }

      .cls-1 {
        stroke: #4d4d4d;
        stroke-width: 6px;
      }

      .cls-1, .cls-4 {
        stroke-miterlimit: 10;
      }

      .cls-2 {
        fill: #231f20;
      }

      .cls-3 {
        fill: #e6e6e6;
      }

      .cls-4 {
        stroke: #c3c3c3;
        stroke-linecap: round;
        stroke-width: 2px;
      }

      .cls-5 {
        fill: #c3c3c3;
      }

      .cls-6 {
        fill: #eff3f6;
      }

      .cls-7 {
        fill: #e3e5ed;
      }

      .cls-8 {
        fill: #34404c;
      }

      .cls-9 {
        fill: #293541;
      }

      .cls-11 {
        fill: #ffc315;
      }
    </style>
  </defs>
  <title>about-img</title>
  <g id="Layer_40" data-name="Layer 40">
    <rect class="cls-1" x="14" y="15" width="222" height="458" rx="30.03" ry="30.03"/>
    <rect class="cls-2" x="14" y="15" width="222" height="458" rx="30.03" ry="30.03"/>
    <rect class="cls-3" x="27" y="69" width="196" height="350"/>
    <line class="cls-4" x1="106" y1="42" x2="144" y2="42"/>
    <circle class="cls-5" cx="90" cy="43" r="2"/>
    <rect class="cls-6" x="27" y="69" width="196.22" height="369"/>
    <rect class="cls-7" x="27" y="95" width="196" height="2"/>
    <g>
      <circle class="cls-8" cx="196.47" cy="82.95" r="9.92"/>
      <circle class="cls-9" cx="196.47" cy="82.95" r="8.6"/>
      <path class="cls-6" d="M193.12,85.53l-1-3.34h0c0,.68.05,1.14.05,1.36v2h-.8V81.28h1.22l1,3.25h0l1.06-3.25h1.23v4.25H195V83.19c0-.13,0-.45,0-1h0l-1.1,3.33Zm7.95,0h-1l-.57-2.23c0-.08-.06-.25-.11-.49s-.08-.42-.09-.51a4.67,4.67,0,0,1-.09.51c0,.23-.08.39-.1.49l-.58,2.23h-1l-1.08-4.25h.88l.55,2.32c.09.43.16.8.2,1.11,0-.11,0-.28.08-.51a4.62,4.62,0,0,1,.12-.54l.62-2.38h.85l.62,2.38c0,.11.06.27.1.49l.1.56c0-.15,0-.34.09-.56s.08-.41.11-.55l.54-2.32h.89Z"/>
    </g>
    <g>
      <rect class="cls-10" x="26.57" y="-337" width="197.08" height="1091.58"/>
      <rect class="cls-8" x="37.6" y="118.66" width="175.54" height="316.91" rx="2.63" ry="2.63"/>
      <path class="cls-9" d="M213.14,129.17H37.6v-18.4a2.62,2.62,0,0,1,2.63-2.62H210.51a2.62,2.62,0,0,1,2.63,2.62Z"/>
      <path class="cls-6" d="M83.71,118.62h.63a2.1,2.1,0,0,0,1.32-.35,1.22,1.22,0,0,0,.44-1,1.25,1.25,0,0,0-.37-1,1.7,1.7,0,0,0-1.15-.32h-.87ZM88,117.19a2.73,2.73,0,0,1-.91,2.22,3.82,3.82,0,0,1-2.58.77h-.82v3.21H81.8v-9h2.88a3.83,3.83,0,0,1,2.49.71A2.56,2.56,0,0,1,88,117.19Zm4.41.52a1.21,1.21,0,0,0-.94.38,1.76,1.76,0,0,0-.39,1.07h2.64a1.54,1.54,0,0,0-.37-1.07A1.23,1.23,0,0,0,92.43,117.71Zm.26,5.8a3.57,3.57,0,0,1-2.6-.92,3.49,3.49,0,0,1-.93-2.6,3.8,3.8,0,0,1,.86-2.67,3.51,3.51,0,0,1,4.67-.12,3.16,3.16,0,0,1,.81,2.3v.91H91.06a1.82,1.82,0,0,0,.47,1.25,1.68,1.68,0,0,0,1.25.45A4.94,4.94,0,0,0,94,122a5.39,5.39,0,0,0,1.16-.41V123a4.23,4.23,0,0,1-1,.37A6.7,6.7,0,0,1,92.69,123.51Zm10.69-.12H101.5v-4a1.9,1.9,0,0,0-.26-1.11,1,1,0,0,0-.84-.38,1.26,1.26,0,0,0-1.14.53,3.21,3.21,0,0,0-.35,1.75v3.24H97V116.5h1.43l.25.88h.11a2,2,0,0,1,.86-.75,3,3,0,0,1,1.26-.26,2.41,2.41,0,0,1,1.82.65,2.6,2.6,0,0,1,.62,1.88Zm4.12.12a2.23,2.23,0,0,1-1.91-.94,5.3,5.3,0,0,1,0-5.25,2.3,2.3,0,0,1,2-.95,2.26,2.26,0,0,1,2,1h.06a8,8,0,0,1-.14-1.37V113.8h1.88v9.59h-1.44l-.36-.9h-.08A2.15,2.15,0,0,1,107.5,123.51Zm.66-1.5a1.25,1.25,0,0,0,1-.42,2.35,2.35,0,0,0,.37-1.42V120a2.79,2.79,0,0,0-.35-1.59,1.24,1.24,0,0,0-1.1-.48,1.11,1.11,0,0,0-1,.53,2.87,2.87,0,0,0-.35,1.55,2.75,2.75,0,0,0,.35,1.53A1.17,1.17,0,0,0,108.16,122Zm5.06-7.29c0-.61.34-.92,1-.92s1,.31,1,.92a.86.86,0,0,1-.26.68,1,1,0,0,1-.76.24C113.56,115.64,113.22,115.34,113.22,114.72Zm2,8.67H113.3V116.5h1.88Zm8.33,0h-1.88v-4a2,2,0,0,0-.26-1.11,1,1,0,0,0-.85-.38,1.29,1.29,0,0,0-1.14.53,3.3,3.3,0,0,0-.35,1.75v3.24h-1.88V116.5h1.44l.25.88H119a2,2,0,0,1,.86-.75,3,3,0,0,1,1.26-.26,2.42,2.42,0,0,1,1.82.65,2.65,2.65,0,0,1,.62,1.88Zm7.93-6.89v1l-1.08.27a1.88,1.88,0,0,1,.29,1,2.09,2.09,0,0,1-.77,1.73,3.34,3.34,0,0,1-2.14.61h-.34l-.28,0a.65.65,0,0,0-.29.5c0,.27.34.4,1,.4H129a2.7,2.7,0,0,1,1.73.49,1.73,1.73,0,0,1,.6,1.43,2.12,2.12,0,0,1-1,1.87,5.19,5.19,0,0,1-2.89.67,4,4,0,0,1-2.21-.51,1.59,1.59,0,0,1-.75-1.4,1.45,1.45,0,0,1,.38-1,2.22,2.22,0,0,1,1.14-.6,1.27,1.27,0,0,1-.5-.4,1,1,0,0,1,0-1.25,2.49,2.49,0,0,1,.66-.52,1.84,1.84,0,0,1-.86-.75,2.29,2.29,0,0,1-.32-1.22,2.15,2.15,0,0,1,.74-1.74,3.14,3.14,0,0,1,2.09-.62,4.59,4.59,0,0,1,.68.06,4.68,4.68,0,0,1,.51.07Zm-5.32,7.86a.68.68,0,0,0,.37.61,2.05,2.05,0,0,0,1.05.22,3.61,3.61,0,0,0,1.58-.28.83.83,0,0,0,.57-.75.54.54,0,0,0-.34-.54,2.68,2.68,0,0,0-1-.15h-1a1.48,1.48,0,0,0-.86.24A.77.77,0,0,0,126.12,124.36Zm.69-5.6a1.39,1.39,0,0,0,.25.88,1.09,1.09,0,0,0,1.56,0,1.46,1.46,0,0,0,.24-.88c0-.83-.34-1.25-1-1.25S126.81,117.93,126.81,118.76Zm14.51,2.13a2.33,2.33,0,0,1-.89,1.92,3.76,3.76,0,0,1-2.43.7,5.7,5.7,0,0,1-2.55-.54v-1.78a9.35,9.35,0,0,0,1.54.58,4.53,4.53,0,0,0,1.15.16,1.62,1.62,0,0,0,1-.24.81.81,0,0,0,.34-.71.84.84,0,0,0-.14-.47,1.74,1.74,0,0,0-.44-.4,10.54,10.54,0,0,0-1.17-.61,5.71,5.71,0,0,1-1.23-.74,2.67,2.67,0,0,1-.66-.84,2.26,2.26,0,0,1-.25-1.1,2.32,2.32,0,0,1,.81-1.88,3.35,3.35,0,0,1,2.24-.69,5.35,5.35,0,0,1,1.34.17,9.27,9.27,0,0,1,1.33.47l-.61,1.48a8.57,8.57,0,0,0-1.2-.41,3.69,3.69,0,0,0-.92-.12,1.26,1.26,0,0,0-.83.25.82.82,0,0,0-.29.66.94.94,0,0,0,.11.45,1.41,1.41,0,0,0,.37.36c.18.12.58.32,1.22.63a4.83,4.83,0,0,1,1.73,1.21A2.37,2.37,0,0,1,141.32,120.89Zm7.84,2.5h-1.88v-4c0-1-.37-1.49-1.11-1.49a1.25,1.25,0,0,0-1.14.54,3.34,3.34,0,0,0-.35,1.74v3.24H142.8V113.8h1.88v2c0,.15,0,.5-.05,1.07l0,.55h.1a2.18,2.18,0,0,1,2-1,2.47,2.47,0,0,1,1.84.65,2.61,2.61,0,0,1,.63,1.88Zm1.85-8.67c0-.61.34-.92,1-.92s1,.31,1,.92a.89.89,0,0,1-.25.68,1.09,1.09,0,0,1-.77.24C151.35,115.64,151,115.34,151,114.72Zm2,8.67h-1.88V116.5H153Zm5.78-5.48h-1.62v5.48h-1.88v-5.48h-1V117l1-.51V116a2.23,2.23,0,0,1,.58-1.72,2.64,2.64,0,0,1,1.85-.54,4.65,4.65,0,0,1,1.73.29l-.48,1.37a3.82,3.82,0,0,0-1.05-.17.69.69,0,0,0-.58.24.93.93,0,0,0-.17.6v.43h1.62Zm4,4.1a4.2,4.2,0,0,0,1.18-.21v1.4a4.22,4.22,0,0,1-1.73.31,2.1,2.1,0,0,1-1.64-.57,2.5,2.5,0,0,1-.51-1.71v-3.32h-.9v-.79l1-.63.55-1.45h1.2v1.46h1.92v1.41h-1.92v3.32a.73.73,0,0,0,.22.59A.88.88,0,0,0,162.74,122Zm7.38-.67a1.91,1.91,0,0,1-.74,1.62,3.69,3.69,0,0,1-2.2.55,7.64,7.64,0,0,1-1.28-.1,5.18,5.18,0,0,1-1-.3v-1.55a6.78,6.78,0,0,0,1.18.41,4.84,4.84,0,0,0,1.15.17c.69,0,1-.2,1-.59a.49.49,0,0,0-.14-.36,1.87,1.87,0,0,0-.47-.32c-.22-.12-.51-.25-.88-.41a6.05,6.05,0,0,1-1.17-.61,1.86,1.86,0,0,1-.55-.65,2.25,2.25,0,0,1-.16-.91,1.6,1.6,0,0,1,.71-1.41,3.43,3.43,0,0,1,2-.51,5.76,5.76,0,0,1,2.42.54l-.57,1.36a8.42,8.42,0,0,0-1-.36,2.85,2.85,0,0,0-.91-.15q-.84,0-.84.45a.53.53,0,0,0,.27.44,7.47,7.47,0,0,0,1.17.55,5.53,5.53,0,0,1,1.19.61,1.78,1.78,0,0,1,.55.65A2,2,0,0,1,170.12,121.34Z"/>
      <rect class="cls-6" x="52.32" y="142.31" width="146.1" height="87.77" rx="2.63" ry="2.63"/>
      <path class="cls-9" d="M61.48,158.6H60.06v-4.55l0-.7c-.23.23-.4.39-.49.46l-.78.63-.69-.86,2.18-1.73h1.17Zm5.41,0H65.46v-4.55l0-.7a6.34,6.34,0,0,1-.5.46l-.77.63-.69-.86,2.17-1.73h1.18Zm5.36-6.75-2.52,6.75H68.45L71,151.85Zm5.1,3.37a4.69,4.69,0,0,1-.58,2.62,2,2,0,0,1-1.78.85,2,2,0,0,1-1.76-.88,4.59,4.59,0,0,1-.6-2.59,4.76,4.76,0,0,1,.58-2.63,2,2,0,0,1,1.78-.85,2,2,0,0,1,1.76.89A4.61,4.61,0,0,1,77.35,155.22Zm-3.3,0a5.47,5.47,0,0,0,.21,1.79.76.76,0,0,0,1.45,0,5.13,5.13,0,0,0,.22-1.78,5.05,5.05,0,0,0-.22-1.78.76.76,0,0,0-.72-.55.75.75,0,0,0-.72.55A5.05,5.05,0,0,0,74.05,155.22Zm4.7,3.38,2.53-5.54H78v-1.21H82.8v.9l-2.56,5.85ZM87,151.85l-2.51,6.75H83.17l2.51-6.75Zm5.15,6.75H87.39v-1l1.69-1.72c.5-.51.83-.87,1-1.07a2.57,2.57,0,0,0,.33-.55,1.35,1.35,0,0,0,.1-.53.72.72,0,0,0-.23-.6.84.84,0,0,0-.59-.2,1.7,1.7,0,0,0-.76.18,3.66,3.66,0,0,0-.77.51l-.78-.92a5.28,5.28,0,0,1,.83-.6,3,3,0,0,1,.71-.26,3.35,3.35,0,0,1,.87-.1,2.67,2.67,0,0,1,1.12.23,1.76,1.76,0,0,1,.75.65,1.68,1.68,0,0,1,.27,1,2.38,2.38,0,0,1-.17.88,3,3,0,0,1-.51.83A10.87,10.87,0,0,1,90,156.52l-.86.81v.07h2.94Zm5.37-3.38a4.68,4.68,0,0,1-.59,2.62,2,2,0,0,1-1.78.85,2,2,0,0,1-1.76-.88,4.59,4.59,0,0,1-.6-2.59,4.76,4.76,0,0,1,.58-2.63,2,2,0,0,1,1.78-.85,2,2,0,0,1,1.77.89A4.61,4.61,0,0,1,97.48,155.22Zm-3.31,0a5.15,5.15,0,0,0,.22,1.79.74.74,0,0,0,.72.53.75.75,0,0,0,.72-.54,5.13,5.13,0,0,0,.22-1.78,5.05,5.05,0,0,0-.22-1.78.76.76,0,0,0-.72-.55.76.76,0,0,0-.72.55A5.3,5.3,0,0,0,94.17,155.22Zm7.56,3.38H100.3v-4.55l0-.7c-.23.23-.4.39-.49.46l-.78.63-.68-.86,2.17-1.73h1.18Zm4.2-6.84a2.55,2.55,0,0,1,1.56.44,1.4,1.4,0,0,1,.6,1.19,1.57,1.57,0,0,1-.29.92,2.42,2.42,0,0,1-.92.72,3.33,3.33,0,0,1,1.08.85,1.66,1.66,0,0,1-.32,2.31,2.74,2.74,0,0,1-1.71.5,2.88,2.88,0,0,1-1.74-.47,1.57,1.57,0,0,1-.64-1.33,1.81,1.81,0,0,1,.31-1,2.64,2.64,0,0,1,1-.79,2.42,2.42,0,0,1-.83-.78,1.72,1.72,0,0,1-.26-.91,1.38,1.38,0,0,1,.6-1.17A2.56,2.56,0,0,1,105.93,151.76Zm-1.05,5a.75.75,0,0,0,.27.62,1.47,1.47,0,0,0,1.55,0,.78.78,0,0,0,.27-.61.81.81,0,0,0-.27-.58,3.17,3.17,0,0,0-.84-.57C105.2,156,104.88,156.34,104.88,156.8Zm1-4a.87.87,0,0,0-.59.19.61.61,0,0,0-.22.5.84.84,0,0,0,.17.5,2.23,2.23,0,0,0,.65.45,1.76,1.76,0,0,0,.63-.44.79.79,0,0,0,.18-.51.61.61,0,0,0-.23-.5A.87.87,0,0,0,105.92,152.8Z"/>
      <path class="cls-9" d="M148.47,156.2a1.74,1.74,0,0,1-.66,1.44,2.87,2.87,0,0,1-1.83.53,4.29,4.29,0,0,1-1.91-.41v-1.33a7.85,7.85,0,0,0,1.15.43,3.62,3.62,0,0,0,.87.12,1.24,1.24,0,0,0,.72-.18.61.61,0,0,0,.26-.53.53.53,0,0,0-.12-.35,1,1,0,0,0-.32-.3,8.44,8.44,0,0,0-.88-.46,4.51,4.51,0,0,1-.93-.56,2.24,2.24,0,0,1-.49-.62,1.86,1.86,0,0,1-.18-.84,1.74,1.74,0,0,1,.6-1.4,2.5,2.5,0,0,1,1.68-.52,3.61,3.61,0,0,1,1,.13,6.4,6.4,0,0,1,1,.35l-.46,1.11a7,7,0,0,0-.9-.31,2.78,2.78,0,0,0-.69-.09,1,1,0,0,0-.63.19.66.66,0,0,0-.21.5.6.6,0,0,0,.08.33,1,1,0,0,0,.28.27,7.19,7.19,0,0,0,.91.47,3.85,3.85,0,0,1,1.3.91A1.82,1.82,0,0,1,148.47,156.2Zm3.95,2a1.72,1.72,0,0,1-1.43-.66h-.07c.05.43.07.68.07.74v2.1h-1.41v-7.44h1.15l.2.67H151a1.64,1.64,0,0,1,1.47-.77,1.68,1.68,0,0,1,1.43.71,3.29,3.29,0,0,1,.52,2,3.94,3.94,0,0,1-.25,1.44,2.07,2.07,0,0,1-.69.93A1.79,1.79,0,0,1,152.42,158.17Zm-.42-4.23a.91.91,0,0,0-.76.32,1.87,1.87,0,0,0-.25,1.06v.15a2.11,2.11,0,0,0,.25,1.19.87.87,0,0,0,.78.36c.63,0,.95-.52.95-1.56a2.2,2.2,0,0,0-.24-1.14A.79.79,0,0,0,152,153.94Zm6.45-1.13a3.08,3.08,0,0,1,.48,0l-.11,1.32a1.62,1.62,0,0,0-.41,0,1.52,1.52,0,0,0-1.06.34,1.27,1.27,0,0,0-.37,1v2.63h-1.41v-5.16h1.07l.2.87h.07a2,2,0,0,1,.65-.7A1.58,1.58,0,0,1,158.45,152.81Zm1.35-1.24c0-.45.26-.68.77-.68s.77.23.77.68a.7.7,0,0,1-.2.52.78.78,0,0,1-.57.18C160.06,152.27,159.8,152,159.8,151.57Zm1.47,6.5h-1.41v-5.16h1.41Zm6.25,0h-1.41v-3a1.47,1.47,0,0,0-.19-.84.74.74,0,0,0-.64-.28.93.93,0,0,0-.85.4,2.37,2.37,0,0,0-.26,1.3v2.43h-1.41v-5.16h1.07l.19.66h.08a1.42,1.42,0,0,1,.65-.56,2.16,2.16,0,0,1,.94-.2,1.83,1.83,0,0,1,1.37.49,2,2,0,0,1,.46,1.41Zm5.95-5.16v.71l-.81.21a1.39,1.39,0,0,1,.22.78,1.57,1.57,0,0,1-.58,1.3,2.57,2.57,0,0,1-1.61.46l-.25,0-.21,0a.49.49,0,0,0-.22.37c0,.2.26.31.78.31h.88a2,2,0,0,1,1.29.36,1.29,1.29,0,0,1,.45,1.07,1.59,1.59,0,0,1-.76,1.41,3.93,3.93,0,0,1-2.17.5,3,3,0,0,1-1.65-.38,1.19,1.19,0,0,1-.57-1.06,1.12,1.12,0,0,1,.29-.78,1.6,1.6,0,0,1,.86-.44,1,1,0,0,1-.38-.31.7.7,0,0,1-.16-.44.68.68,0,0,1,.17-.49,1.86,1.86,0,0,1,.49-.39,1.45,1.45,0,0,1-.64-.56,1.73,1.73,0,0,1-.24-.92,1.62,1.62,0,0,1,.55-1.31,2.43,2.43,0,0,1,1.57-.46c.15,0,.32,0,.51,0l.39.06Zm-4,5.89a.5.5,0,0,0,.28.46,1.56,1.56,0,0,0,.78.17,2.73,2.73,0,0,0,1.19-.21.63.63,0,0,0,.43-.57.4.4,0,0,0-.25-.4,2,2,0,0,0-.79-.11h-.73a1.13,1.13,0,0,0-.65.18A.56.56,0,0,0,169.48,158.8Zm.51-4.2a1.08,1.08,0,0,0,.19.66.7.7,0,0,0,.59.25.65.65,0,0,0,.58-.25,1,1,0,0,0,.19-.66c0-.62-.26-.93-.77-.93S170,154,170,154.6Zm5.56,3.47-2-5.16h1.48l1,2.94a5.45,5.45,0,0,1,.2,1.06h0a5,5,0,0,1,.21-1.06l1-2.94H179l-2,5.16Zm7.44,0-.27-.7h0a2,2,0,0,1-.74.62,2.26,2.26,0,0,1-1,.18,1.62,1.62,0,0,1-1.17-.43,1.65,1.65,0,0,1-.42-1.21,1.36,1.36,0,0,1,.57-1.21,3.26,3.26,0,0,1,1.74-.43l.89,0v-.23a.7.7,0,0,0-.8-.78,3.68,3.68,0,0,0-1.46.37l-.46-.95a4.18,4.18,0,0,1,2-.47,2.42,2.42,0,0,1,1.6.46,1.66,1.66,0,0,1,.55,1.37v3.44Zm-.42-2.39-.54,0a1.8,1.8,0,0,0-.92.22.7.7,0,0,0-.3.62q0,.6.69.6a1.09,1.09,0,0,0,.78-.29,1,1,0,0,0,.29-.74Zm4.27,2.39h-1.41v-7.18h1.41Zm3.62-4.26a.88.88,0,0,0-.7.29,1.35,1.35,0,0,0-.3.8h2a1.17,1.17,0,0,0-.27-.8A.93.93,0,0,0,190.46,153.81Zm.2,4.36a2.64,2.64,0,0,1-1.95-.69,2.61,2.61,0,0,1-.71-1.95,2.87,2.87,0,0,1,.65-2,2.33,2.33,0,0,1,1.8-.71,2.24,2.24,0,0,1,1.7.63,2.33,2.33,0,0,1,.61,1.72v.68h-3.33a1.39,1.39,0,0,0,.36.94,1.26,1.26,0,0,0,.93.34,4.09,4.09,0,0,0,.88-.1,4.15,4.15,0,0,0,.87-.31v1.09a3.51,3.51,0,0,1-.79.27A4.88,4.88,0,0,1,190.66,158.17Z"/>
      <path class="cls-9" d="M93.22,202.75H88.5v-1L90.2,200c.5-.52.83-.87,1-1.07a2,2,0,0,0,.33-.55,1.4,1.4,0,0,0,.11-.53.75.75,0,0,0-.23-.6.84.84,0,0,0-.6-.2,1.73,1.73,0,0,0-.76.18,3.93,3.93,0,0,0-.77.51l-.78-.92a5.79,5.79,0,0,1,.83-.6A2.82,2.82,0,0,1,90,196a3.79,3.79,0,0,1,.86-.09,2.46,2.46,0,0,1,1.12.23,1.78,1.78,0,0,1,.76.64,1.81,1.81,0,0,1,.26.95,2.3,2.3,0,0,1-.16.88,3.5,3.5,0,0,1-.51.84,13.13,13.13,0,0,1-1.21,1.22l-.87.82v.06h2.94Zm3.31-5.26-2,5.26h-1l2-5.26ZM98,200.73a1.67,1.67,0,0,0,.2.9.69.69,0,0,0,.64.31.7.7,0,0,0,.63-.3,1.74,1.74,0,0,0,.19-.91,1.61,1.61,0,0,0-.19-.89.82.82,0,0,0-1.27,0A1.6,1.6,0,0,0,98,200.73Zm2.78,0a2.12,2.12,0,0,1-.52,1.53,1.86,1.86,0,0,1-1.44.56,2.14,2.14,0,0,1-1-.25,1.78,1.78,0,0,1-.68-.73,2.59,2.59,0,0,1-.23-1.11,2.14,2.14,0,0,1,.51-1.53,1.91,1.91,0,0,1,1.45-.55,2.14,2.14,0,0,1,1,.25,1.64,1.64,0,0,1,.67.73A2.38,2.38,0,0,1,100.79,200.73Zm2.6,1.21a2.5,2.5,0,0,0,.69-.12v.81a2.33,2.33,0,0,1-1,.19,1.27,1.27,0,0,1-1-.33,1.53,1.53,0,0,1-.29-1v-1.94h-.53v-.46l.61-.37.31-.85h.7v.86H104v.82h-1.13v1.94a.41.41,0,0,0,.13.34A.51.51,0,0,0,103.39,201.94Z"/>
      <path class="cls-9" d="M126.3,202.75h-4.72v-1l1.69-1.71c.5-.52.83-.87,1-1.07a2.57,2.57,0,0,0,.33-.55,1.39,1.39,0,0,0,.1-.53.75.75,0,0,0-.23-.6.8.8,0,0,0-.59-.2,1.7,1.7,0,0,0-.76.18,4,4,0,0,0-.78.51l-.77-.92a5.28,5.28,0,0,1,.83-.6,2.62,2.62,0,0,1,.71-.27,3.88,3.88,0,0,1,.87-.09,2.52,2.52,0,0,1,1.12.23,1.81,1.81,0,0,1,.75.64,1.73,1.73,0,0,1,.27.95,2.3,2.3,0,0,1-.17.88,3.2,3.2,0,0,1-.51.84,12,12,0,0,1-1.21,1.22l-.86.82v.06h2.94Zm3.31-5.26-2,5.26h-1l2-5.26Zm1.88,5.33a1.35,1.35,0,0,1-1.12-.55,2.62,2.62,0,0,1-.4-1.53,2.53,2.53,0,0,1,.41-1.53,1.36,1.36,0,0,1,1.14-.56,1.3,1.3,0,0,1,1.15.59h0a4.91,4.91,0,0,1-.08-.8v-1.28h1.1v5.59h-.84l-.22-.53h0A1.25,1.25,0,0,1,131.49,202.82Zm.38-.88a.76.76,0,0,0,.62-.24,1.41,1.41,0,0,0,.21-.83v-.12a1.6,1.6,0,0,0-.2-.93.75.75,0,0,0-.64-.28.66.66,0,0,0-.58.32,1.67,1.67,0,0,0-.2.9,1.56,1.56,0,0,0,.21.89A.65.65,0,0,0,131.87,201.94Zm4.7,0a2.38,2.38,0,0,0,.68-.12v.81a2.29,2.29,0,0,1-1,.19,1.24,1.24,0,0,1-1-.33,1.48,1.48,0,0,1-.3-1v-1.94h-.52v-.46l.6-.37.32-.85h.7v.86h1.12v.82h-1.12v1.94a.41.41,0,0,0,.13.34A.49.49,0,0,0,136.57,201.94Z"/>
      <path class="cls-9" d="M159.78,201.16a1.48,1.48,0,0,1-.53,1.18,2.58,2.58,0,0,1-1.49.53v.95h-.63v-.93a5.06,5.06,0,0,1-2-.4v-1.21a6.29,6.29,0,0,0,1,.35,5.27,5.27,0,0,0,1,.18v-1.44l-.31-.12a3.46,3.46,0,0,1-1.3-.78,1.51,1.51,0,0,1-.38-1,1.34,1.34,0,0,1,.52-1.1,2.65,2.65,0,0,1,1.47-.53v-.71h.63v.69a5.09,5.09,0,0,1,1.91.43l-.43,1.08a4.86,4.86,0,0,0-1.48-.36v1.36a6.86,6.86,0,0,1,1.28.6,1.86,1.86,0,0,1,.56.56A1.36,1.36,0,0,1,159.78,201.16Zm-1.39.07a.41.41,0,0,0-.16-.33,2.06,2.06,0,0,0-.47-.28v1.15Q158.39,201.66,158.39,201.23Zm-1.86-2.8a.45.45,0,0,0,.14.33,1.54,1.54,0,0,0,.46.27V198Q156.53,198,156.53,198.43Zm8.92-.4a1.55,1.55,0,0,1-.39,1.07,1.92,1.92,0,0,1-1.07.61v0a2.21,2.21,0,0,1,1.24.5,1.39,1.39,0,0,1,.42,1.06,1.81,1.81,0,0,1-.71,1.52,3.26,3.26,0,0,1-2,.54A5,5,0,0,1,161,203v-1.22a4.25,4.25,0,0,0,.87.33,3.71,3.71,0,0,0,.93.12,1.79,1.79,0,0,0,1-.24.87.87,0,0,0,.34-.77.68.68,0,0,0-.39-.67,2.76,2.76,0,0,0-1.24-.2H162v-1.1h.52a2.52,2.52,0,0,0,1.15-.2.76.76,0,0,0,.36-.71c0-.51-.32-.76-1-.76a2.06,2.06,0,0,0-.68.11,3.35,3.35,0,0,0-.76.38l-.66-1a3.63,3.63,0,0,1,2.2-.67,2.82,2.82,0,0,1,1.66.43A1.36,1.36,0,0,1,165.45,198Zm3.75-1.6a2.6,2.6,0,0,1,1.56.44,1.42,1.42,0,0,1,.59,1.19,1.54,1.54,0,0,1-.28.92,2.5,2.5,0,0,1-.93.73,3.26,3.26,0,0,1,1.09.84,1.6,1.6,0,0,1,.33,1,1.63,1.63,0,0,1-.65,1.34,2.69,2.69,0,0,1-1.71.5,2.86,2.86,0,0,1-1.75-.47,1.56,1.56,0,0,1-.63-1.33,1.74,1.74,0,0,1,.31-1,2.52,2.52,0,0,1,1-.79,2.52,2.52,0,0,1-.83-.78,1.71,1.71,0,0,1-.25-.91,1.4,1.4,0,0,1,.6-1.17A2.54,2.54,0,0,1,169.2,196.43Zm-1.06,5a.72.72,0,0,0,.28.62,1.17,1.17,0,0,0,.76.22,1.18,1.18,0,0,0,.79-.22.8.8,0,0,0,0-1.18,2.94,2.94,0,0,0-.84-.58Q168.14,200.78,168.14,201.47Zm1.05-4a.91.91,0,0,0-.59.19.63.63,0,0,0-.23.5.77.77,0,0,0,.18.5,1.81,1.81,0,0,0,.65.45,1.76,1.76,0,0,0,.63-.44.76.76,0,0,0,.18-.51.61.61,0,0,0-.23-.5A1,1,0,0,0,169.19,197.47Zm5.88-1a2.55,2.55,0,0,1,1.56.44,1.41,1.41,0,0,1,.6,1.19,1.55,1.55,0,0,1-.29.92,2.54,2.54,0,0,1-.92.73,3.37,3.37,0,0,1,1.09.84,1.6,1.6,0,0,1,.33,1,1.63,1.63,0,0,1-.65,1.34,2.72,2.72,0,0,1-1.72.5,2.81,2.81,0,0,1-1.74-.47,1.56,1.56,0,0,1-.63-1.33,1.81,1.81,0,0,1,.3-1,2.64,2.64,0,0,1,1-.79,2.52,2.52,0,0,1-.83-.78,1.71,1.71,0,0,1-.25-.91,1.4,1.4,0,0,1,.6-1.17A2.53,2.53,0,0,1,175.07,196.43Zm-1,5a.72.72,0,0,0,.28.62,1.14,1.14,0,0,0,.75.22,1.21,1.21,0,0,0,.8-.22.8.8,0,0,0,.26-.61.81.81,0,0,0-.26-.57,3,3,0,0,0-.85-.58C174.35,200.63,174,201,174,201.47Zm1-4a.93.93,0,0,0-.59.19.62.62,0,0,0-.22.5.77.77,0,0,0,.18.5,1.85,1.85,0,0,0,.64.45,1.81,1.81,0,0,0,.64-.44.76.76,0,0,0,.18-.51.59.59,0,0,0-.24-.5A.93.93,0,0,0,175.06,197.47Zm3.72,5.14A.79.79,0,0,1,179,202a.86.86,0,0,1,.61-.19.8.8,0,0,1,.59.2.76.76,0,0,1,.21.58.79.79,0,0,1-.21.58.8.8,0,0,1-.59.21.81.81,0,0,1-.6-.21A.75.75,0,0,1,178.78,202.61Zm7.7-2.72a4.66,4.66,0,0,1-.59,2.62,2.25,2.25,0,0,1-3.54,0,4.63,4.63,0,0,1-.59-2.6,4.8,4.8,0,0,1,.57-2.63,2.25,2.25,0,0,1,3.55,0A4.63,4.63,0,0,1,186.48,199.89Zm-3.31,0a5.12,5.12,0,0,0,.22,1.79.74.74,0,0,0,.72.53.75.75,0,0,0,.72-.54,7.31,7.31,0,0,0,0-3.56.75.75,0,0,0-1.44,0A5.34,5.34,0,0,0,183.17,199.89Zm9.18,0a4.66,4.66,0,0,1-.58,2.62,2,2,0,0,1-1.78.85,2,2,0,0,1-1.77-.87,4.72,4.72,0,0,1-.59-2.6,4.79,4.79,0,0,1,.58-2.63,2,2,0,0,1,1.78-.85,2,2,0,0,1,1.76.89A4.63,4.63,0,0,1,192.35,199.89Zm-3.3,0a5.43,5.43,0,0,0,.21,1.79.76.76,0,0,0,1.45,0,7.31,7.31,0,0,0,0-3.56.75.75,0,0,0-.72-.54.74.74,0,0,0-.72.54A5.09,5.09,0,0,0,189.05,199.89Z"/>
      <rect class="cls-11" x="154.8" y="210.1" width="38.37" height="10.51" rx="2.63" ry="2.63"/>
      <path class="cls-6" d="M160.91,215.21h.37A1.17,1.17,0,0,0,162,215a.7.7,0,0,0,.26-.59.72.72,0,0,0-.22-.58,1,1,0,0,0-.66-.18h-.51Zm2.51-.84a1.59,1.59,0,0,1-.53,1.3,2.24,2.24,0,0,1-1.5.45h-.48V218H159.8v-5.26h1.67a2.18,2.18,0,0,1,1.45.42A1.46,1.46,0,0,1,163.42,214.37Zm2.57.3a.68.68,0,0,0-.54.23,1,1,0,0,0-.23.62h1.54a.94.94,0,0,0-.21-.62A.74.74,0,0,0,166,214.67Zm.16,3.39a2.06,2.06,0,0,1-1.52-.54,2,2,0,0,1-.55-1.51,2.19,2.19,0,0,1,.51-1.56,1.81,1.81,0,0,1,3.2,1.27v.53h-2.6a1.1,1.1,0,0,0,.28.73,1,1,0,0,0,.73.26,3,3,0,0,0,.68-.07,3.48,3.48,0,0,0,.68-.24v.84a2.53,2.53,0,0,1-.62.22A4.28,4.28,0,0,1,166.15,218.06Zm6.23-.07h-1.09v-2.35a1.06,1.06,0,0,0-.16-.65.54.54,0,0,0-.49-.22.71.71,0,0,0-.66.31,1.85,1.85,0,0,0-.21,1V218h-1.09v-4h.83l.15.51h.06a1.1,1.1,0,0,1,.5-.43,1.61,1.61,0,0,1,.74-.16,1.38,1.38,0,0,1,1.06.39,1.51,1.51,0,0,1,.36,1.09Zm2.4.07a1.3,1.3,0,0,1-1.11-.55,2.54,2.54,0,0,1-.4-1.52,2.48,2.48,0,0,1,.41-1.54,1.43,1.43,0,0,1,2.29,0h0a4.08,4.08,0,0,1-.09-.8V212.4H177V218h-.84l-.21-.52h-.05A1.27,1.27,0,0,1,174.78,218.06Zm.39-.87a.74.74,0,0,0,.61-.25,1.4,1.4,0,0,0,.22-.83V216a1.63,1.63,0,0,0-.2-.92.73.73,0,0,0-.65-.28.65.65,0,0,0-.57.31,1.58,1.58,0,0,0-.2.9,1.63,1.63,0,0,0,.2.89A.67.67,0,0,0,175.17,217.19Zm3-4.26c0-.36.2-.53.6-.53s.59.17.59.53a.54.54,0,0,1-.15.4.63.63,0,0,1-.44.14Q178.12,213.47,178.12,212.93Zm1.14,5.06h-1.09v-4h1.09Zm4.86,0H183v-2.35a1.06,1.06,0,0,0-.16-.65.54.54,0,0,0-.49-.22.72.72,0,0,0-.66.31,1.85,1.85,0,0,0-.21,1V218h-1.09v-4h.83l.15.51h.06a1.08,1.08,0,0,1,.51-.43,1.57,1.57,0,0,1,.73-.16,1.37,1.37,0,0,1,1.06.39,1.51,1.51,0,0,1,.36,1.09Zm4.63-4v.56l-.63.16a1.13,1.13,0,0,1,.17.6,1.22,1.22,0,0,1-.45,1,2,2,0,0,1-1.25.36h-.2l-.16,0a.38.38,0,0,0-.17.29q0,.24.6.24h.69a1.53,1.53,0,0,1,1,.28,1,1,0,0,1,.35.83,1.23,1.23,0,0,1-.59,1.1,3.12,3.12,0,0,1-1.68.38,2.33,2.33,0,0,1-1.29-.29.93.93,0,0,1-.44-.82.84.84,0,0,1,.23-.61,1.3,1.3,0,0,1,.66-.35.63.63,0,0,1-.29-.23.58.58,0,0,1,0-.73,1.65,1.65,0,0,1,.39-.3,1.14,1.14,0,0,1-.51-.44,1.36,1.36,0,0,1-.18-.71,1.25,1.25,0,0,1,.43-1,1.83,1.83,0,0,1,1.22-.36,3.37,3.37,0,0,1,.4,0l.3,0Zm-3.1,4.58a.4.4,0,0,0,.21.36,1.18,1.18,0,0,0,.61.13,2.16,2.16,0,0,0,.93-.16.5.5,0,0,0,.33-.44.31.31,0,0,0-.2-.32,1.79,1.79,0,0,0-.61-.08h-.56a.83.83,0,0,0-.51.14A.42.42,0,0,0,185.65,218.55Zm.4-3.27a.87.87,0,0,0,.14.52.55.55,0,0,0,.46.19.51.51,0,0,0,.45-.19.81.81,0,0,0,.15-.52q0-.72-.6-.72T186.05,215.28Z"/>
      <path class="cls-9" d="M62.64,176.24a4.75,4.75,0,0,1-.58,2.62,2.26,2.26,0,0,1-3.55,0,4.63,4.63,0,0,1-.59-2.6,4.8,4.8,0,0,1,.57-2.63,2.25,2.25,0,0,1,3.55,0A4.63,4.63,0,0,1,62.64,176.24Zm-3.3,0a5.43,5.43,0,0,0,.21,1.79A.75.75,0,0,0,61,178a7,7,0,0,0,0-3.56.75.75,0,0,0-1.44,0A5.4,5.4,0,0,0,59.34,176.24Zm8.71-.49a4.51,4.51,0,0,1-.84,3,3.15,3.15,0,0,1-2.54,1,5.1,5.1,0,0,1-.91-.06V178.5a3,3,0,0,0,.81.1,2.87,2.87,0,0,0,1.18-.21,1.49,1.49,0,0,0,.7-.66,2.86,2.86,0,0,0,.29-1.24h-.06a1.64,1.64,0,0,1-.62.61,1.92,1.92,0,0,1-.88.17,1.77,1.77,0,0,1-1.39-.56,2.26,2.26,0,0,1-.51-1.57,2.35,2.35,0,0,1,.62-1.72,2.24,2.24,0,0,1,1.68-.63,2.44,2.44,0,0,1,1.31.35,2.23,2.23,0,0,1,.86,1A3.82,3.82,0,0,1,68.05,175.75Zm-2.44-1.82a.84.84,0,0,0-.69.31,1.34,1.34,0,0,0-.25.88,1.21,1.21,0,0,0,.22.77.83.83,0,0,0,.69.29,1,1,0,0,0,.74-.28.86.86,0,0,0,.31-.66,1.47,1.47,0,0,0-.29-.93A.88.88,0,0,0,65.61,173.93Zm3.31,5a.79.79,0,0,1,.21-.59.86.86,0,0,1,.61-.19.8.8,0,0,1,.59.2.76.76,0,0,1,.21.58.79.79,0,0,1-.21.58.8.8,0,0,1-.59.21.81.81,0,0,1-.6-.21A.78.78,0,0,1,68.92,179Zm0-3.81a.77.77,0,0,1,.21-.59.86.86,0,0,1,.61-.2.84.84,0,0,1,.59.2.79.79,0,0,1,.21.59.76.76,0,0,1-.22.58.82.82,0,0,1-.58.2.85.85,0,0,1-.6-.2A.78.78,0,0,1,68.92,175.15Zm7-.77a1.55,1.55,0,0,1-.39,1.07,1.92,1.92,0,0,1-1.07.61v0a2.21,2.21,0,0,1,1.24.5,1.39,1.39,0,0,1,.42,1.06,1.81,1.81,0,0,1-.71,1.52,3.26,3.26,0,0,1-2,.54,5,5,0,0,1-2-.36v-1.22a4.25,4.25,0,0,0,.87.33,3.71,3.71,0,0,0,.93.12,1.79,1.79,0,0,0,1-.24.87.87,0,0,0,.34-.77.68.68,0,0,0-.39-.67,2.76,2.76,0,0,0-1.24-.2h-.51v-1.1H73a2.52,2.52,0,0,0,1.15-.2.76.76,0,0,0,.36-.71c0-.51-.32-.76-1-.76a2.1,2.1,0,0,0-.68.11,3.35,3.35,0,0,0-.76.38l-.66-1a3.63,3.63,0,0,1,2.2-.67,2.8,2.8,0,0,1,1.66.43A1.36,1.36,0,0,1,75.92,174.38Zm5.63,1.86a4.75,4.75,0,0,1-.58,2.62,2.26,2.26,0,0,1-3.55,0,6.14,6.14,0,0,1,0-5.23,2,2,0,0,1,1.77-.85,2,2,0,0,1,1.77.89A4.63,4.63,0,0,1,81.55,176.24Zm-3.3,0a5.43,5.43,0,0,0,.21,1.79.75.75,0,0,0,.72.53.74.74,0,0,0,.72-.54,7,7,0,0,0,0-3.56.75.75,0,0,0-1.44,0A5.4,5.4,0,0,0,78.25,176.24Z"/>
      <path class="cls-9" d="M174,179.62h-4.72v-1l1.7-1.72c.5-.51.83-.87,1-1.06a2,2,0,0,0,.33-.56,1.35,1.35,0,0,0,.11-.52.78.78,0,0,0-.23-.61.89.89,0,0,0-.6-.2,1.73,1.73,0,0,0-.76.18,3.86,3.86,0,0,0-.77.52l-.78-.92a4.54,4.54,0,0,1,.83-.6,2.82,2.82,0,0,1,.72-.27,3.3,3.3,0,0,1,.87-.1,2.59,2.59,0,0,1,1.11.23,1.8,1.8,0,0,1,.76.65,1.78,1.78,0,0,1,.26.95,2.37,2.37,0,0,1-.16.88,3.27,3.27,0,0,1-.51.83,11.84,11.84,0,0,1-1.21,1.23l-.87.82v.06H174Zm5.37-3.38a4.66,4.66,0,0,1-.58,2.62,2.26,2.26,0,0,1-3.55,0,6.14,6.14,0,0,1,0-5.23,2.24,2.24,0,0,1,3.54,0A4.63,4.63,0,0,1,179.32,176.24Zm-3.3,0a5.43,5.43,0,0,0,.21,1.79.76.76,0,0,0,1.45,0,5.38,5.38,0,0,0,.22-1.78,5,5,0,0,0-.23-1.78.74.74,0,0,0-1.43,0A5.09,5.09,0,0,0,176,176.24ZM180.2,179a.79.79,0,0,1,.21-.59.86.86,0,0,1,.61-.19.8.8,0,0,1,.59.2.76.76,0,0,1,.21.58.79.79,0,0,1-.21.58.8.8,0,0,1-.59.21.81.81,0,0,1-.6-.21A.75.75,0,0,1,180.2,179Zm0-3.81a.77.77,0,0,1,.21-.59.86.86,0,0,1,.61-.2.84.84,0,0,1,.59.2.79.79,0,0,1,.21.59.76.76,0,0,1-.22.58.82.82,0,0,1-.58.2.85.85,0,0,1-.6-.2A.75.75,0,0,1,180.2,175.15Zm7-.77a1.55,1.55,0,0,1-.39,1.07,1.92,1.92,0,0,1-1.07.61v0a2.18,2.18,0,0,1,1.23.5,1.39,1.39,0,0,1,.43,1.06,1.81,1.81,0,0,1-.71,1.52,3.28,3.28,0,0,1-2,.54,5,5,0,0,1-1.95-.36v-1.22a4.39,4.39,0,0,0,.86.33,3.85,3.85,0,0,0,.94.12,1.79,1.79,0,0,0,1-.24.87.87,0,0,0,.34-.77.68.68,0,0,0-.39-.67,2.76,2.76,0,0,0-1.24-.2h-.51v-1.1h.52a2.52,2.52,0,0,0,1.15-.2.76.76,0,0,0,.36-.71c0-.51-.32-.76-1-.76a2.06,2.06,0,0,0-.68.11,3.16,3.16,0,0,0-.76.38l-.66-1a3.63,3.63,0,0,1,2.2-.67,2.82,2.82,0,0,1,1.66.43A1.36,1.36,0,0,1,187.2,174.38Zm5.63,1.86a4.66,4.66,0,0,1-.59,2.62,2.25,2.25,0,0,1-3.54,0,4.63,4.63,0,0,1-.59-2.6,4.8,4.8,0,0,1,.57-2.63,2.25,2.25,0,0,1,3.55,0A4.63,4.63,0,0,1,192.83,176.24Zm-3.31,0a5.37,5.37,0,0,0,.22,1.79.74.74,0,0,0,.72.53.75.75,0,0,0,.72-.54,7.31,7.31,0,0,0,0-3.56.75.75,0,0,0-1.44,0A5.34,5.34,0,0,0,189.52,176.24Z"/>
      <rect class="cls-8" x="96.47" y="174.89" width="58.34" height="2.63" rx="0.53" ry="0.53"/>
      <path class="cls-9" d="M60.28,195.9a2.49,2.49,0,0,1,1.56.45,1.4,1.4,0,0,1,.6,1.19,1.57,1.57,0,0,1-.29.92,2.42,2.42,0,0,1-.92.72,3.1,3.1,0,0,1,1.08.85,1.5,1.5,0,0,1,.34,1,1.61,1.61,0,0,1-.65,1.34,2.73,2.73,0,0,1-1.72.51,2.88,2.88,0,0,1-1.74-.47,1.58,1.58,0,0,1-.63-1.34,1.77,1.77,0,0,1,.3-1,2.54,2.54,0,0,1,1-.79,2.74,2.74,0,0,1-.83-.78,1.71,1.71,0,0,1-.25-.91,1.4,1.4,0,0,1,.6-1.18A2.53,2.53,0,0,1,60.28,195.9Zm-1.05,5a.75.75,0,0,0,.28.62,1.14,1.14,0,0,0,.75.22,1.21,1.21,0,0,0,.8-.23.76.76,0,0,0,.26-.6.83.83,0,0,0-.26-.58,3.5,3.5,0,0,0-.85-.58C59.56,200.1,59.23,200.49,59.23,201Zm1-4a.87.87,0,0,0-.59.19.61.61,0,0,0-.22.5.79.79,0,0,0,.18.5,2,2,0,0,0,.64.44,1.81,1.81,0,0,0,.64-.43.79.79,0,0,0,.18-.51.61.61,0,0,0-.24-.51A.92.92,0,0,0,60.27,197Zm5.71.54-2,5.26H63l2-5.26Zm4.32,5.26H69.21V200.4c0-.58-.22-.87-.65-.87a.74.74,0,0,0-.67.31,2,2,0,0,0-.2,1v1.89h-1.1v-5.59h1.1v1.13q0,.14,0,.63l0,.32h.06a1.27,1.27,0,0,1,1.16-.59,1.46,1.46,0,0,1,1.08.38,1.55,1.55,0,0,1,.36,1.1Z"/>
    </g>
  </g>
</svg>
