<svg xmlns="http://www.w3.org/2000/svg" xmlns:xlink="http://www.w3.org/1999/xlink" viewBox="0 0 250 250">
  <defs>
    <style>
      .cls-1, .cls-2, .cls-4 {
        fill: none;
      }

      .cls-2 {
        stroke: #4d4d4d;
        stroke-width: 6px;
      }

      .cls-2, .cls-4 {
        stroke-miterlimit: 10;
      }

      .cls-3 {
        fill: #231f20;
      }

      .cls-4 {
        stroke: #c3c3c3;
        stroke-linecap: round;
        stroke-width: 2px;
      }

      .cls-5 {
        fill: #c3c3c3;
      }

      .cls-6 {
        fill: #eff3f6;
      }

      .cls-7 {
        clip-path: url(#clip-path);
      }

      .cls-8 {
        clip-path: url(#clip-path-2);
      }

      .cls-9 {
        fill: #293541;
      }
    </style>
    <clipPath id="clip-path">
      <rect class="cls-1" x="27" y="69" width="196.22" height="369"/>
    </clipPath>
    <clipPath id="clip-path-2">
      <rect class="cls-1" x="25.11" y="-42" width="200" height="433.07"/>
    </clipPath>
  </defs>
  <title>about-img</title>
  <g id="Layer_40" data-name="Layer 40">
    <rect class="cls-2" x="14" y="15" width="222" height="458" rx="30.03" ry="30.03"/>
    <rect class="cls-3" x="14" y="15" width="222" height="458" rx="30.03" ry="30.03"/>
    <line class="cls-4" x1="106" y1="42" x2="144" y2="42"/>
    <circle class="cls-5" cx="90" cy="43" r="2"/>
    <rect class="cls-6" x="27" y="69" width="196.22" height="369"/>
    <g class="cls-7">
      <g class="cls-8">
        <g>
          <rect class="cls-9" x="25.11" y="-42" width="200" height="433.07"/>
          <path class="cls-6" d="M51.77.44h5.44v7.1a14.31,14.31,0,0,1-2.5.6,15.41,15.41,0,0,1-2.38.18A6.05,6.05,0,0,1,47.59,6.5,7.6,7.6,0,0,1,46,1.26a6.9,6.9,0,0,1,1.89-5.17,7.23,7.23,0,0,1,5.27-1.86,10.23,10.23,0,0,1,4.07.84l-1,2.33a6.89,6.89,0,0,0-3.12-.75,3.88,3.88,0,0,0-3,1.26A5,5,0,0,0,49,1.32a5.48,5.48,0,0,0,.91,3.41A3.18,3.18,0,0,0,52.52,5.9a9.08,9.08,0,0,0,1.85-.19V2.86h-2.6ZM62.53,2.87A4.42,4.42,0,0,0,63,5.23,1.83,1.83,0,0,0,64.71,6a1.8,1.8,0,0,0,1.64-.78,4.44,4.44,0,0,0,.51-2.37A4.31,4.31,0,0,0,66.35.54,2.15,2.15,0,0,0,63,.54,4.26,4.26,0,0,0,62.53,2.87Zm7.25,0a5.66,5.66,0,0,1-1.35,4,4.9,4.9,0,0,1-3.76,1.44A5.25,5.25,0,0,1,62,7.66a4.35,4.35,0,0,1-1.77-1.9,6.28,6.28,0,0,1-.62-2.89,5.57,5.57,0,0,1,1.34-4,4.92,4.92,0,0,1,3.77-1.42,5.27,5.27,0,0,1,2.66.65A4.38,4.38,0,0,1,69.16,0,6.29,6.29,0,0,1,69.78,2.87ZM76.56,6a6.17,6.17,0,0,0,1.8-.33V7.84a6.4,6.4,0,0,1-2.63.48,3.26,3.26,0,0,1-2.5-.86,3.8,3.8,0,0,1-.78-2.61v-5H71.08V-1.41l1.58-1,.82-2.21h1.83v2.23h2.94V-.2H75.31V4.85a1.1,1.1,0,0,0,.34.9A1.33,1.33,0,0,0,76.56,6ZM92.13,8.13l-.55-1.42H91.5A4.23,4.23,0,0,1,90,8a4.67,4.67,0,0,1-2,.35,3.26,3.26,0,0,1-2.38-.86A3.36,3.36,0,0,1,84.78,5a2.75,2.75,0,0,1,1.16-2.45,6.72,6.72,0,0,1,3.53-.89l1.82,0V1.15A1.43,1.43,0,0,0,89.66-.44a7.52,7.52,0,0,0-3,.75l-.94-1.93a8.5,8.5,0,0,1,4-.94A5,5,0,0,1,93-1.64a3.39,3.39,0,0,1,1.13,2.79v7Zm-.84-4.85-1.11,0a3.67,3.67,0,0,0-1.86.45A1.44,1.44,0,0,0,87.71,5c0,.81.47,1.21,1.39,1.21a2.21,2.21,0,0,0,1.59-.57,2,2,0,0,0,.6-1.52ZM107.9-2.54a3.38,3.38,0,0,1,2.91,1.45,6.6,6.6,0,0,1,1,4,6.55,6.55,0,0,1-1.09,4,3.78,3.78,0,0,1-5.84.08h-.2l-.48,1.15h-2.18V-6.45h2.86v3.39q0,.65-.12,2.07h.12A3.3,3.3,0,0,1,107.9-2.54ZM107-.26a1.8,1.8,0,0,0-1.55.66,3.75,3.75,0,0,0-.5,2.15v.31a4.43,4.43,0,0,0,.49,2.41A1.81,1.81,0,0,0,107,6a1.57,1.57,0,0,0,1.39-.81,4.36,4.36,0,0,0,.53-2.36,4.14,4.14,0,0,0-.53-2.32A1.63,1.63,0,0,0,107-.26Zm14.66,8.39-.38-1.34h-.15a3.08,3.08,0,0,1-1.3,1.14,4.59,4.59,0,0,1-1.93.39,3.68,3.68,0,0,1-2.78-1,4,4,0,0,1-.94-2.85V-2.35H117V3.77a3,3,0,0,0,.4,1.71,1.47,1.47,0,0,0,1.29.56,1.92,1.92,0,0,0,1.73-.79A5,5,0,0,0,121,2.58V-2.35h2.86V8.13Zm11-10.67a4.35,4.35,0,0,1,1,.08L133.44.22a3.46,3.46,0,0,0-.85-.09,3,3,0,0,0-2.13.7,2.55,2.55,0,0,0-.76,2V8.13h-2.86V-2.35H129l.42,1.76h.14A4.06,4.06,0,0,1,130.88-2,3.25,3.25,0,0,1,132.69-2.54ZM145.23,8.13h-2.86V2a2.94,2.94,0,0,0-.4-1.7,1.47,1.47,0,0,0-1.29-.57A1.92,1.92,0,0,0,139,.55a4.88,4.88,0,0,0-.54,2.65V8.13h-2.85V-2.35h2.18L138.12-1h.16a3.06,3.06,0,0,1,1.32-1.14,4.5,4.5,0,0,1,1.91-.39,3.65,3.65,0,0,1,2.77,1,4,4,0,0,1,.95,2.85Zm2.82-13.19c0-.93.52-1.39,1.56-1.39s1.55.46,1.55,1.39a1.36,1.36,0,0,1-.39,1,1.6,1.6,0,0,1-1.16.37Q148-3.65,148.05-5.06Zm3,13.19h-2.86V-2.35H151Zm12.69,0h-2.86V2a3,3,0,0,0-.4-1.7,1.47,1.47,0,0,0-1.29-.57,1.91,1.91,0,0,0-1.73.81,4.88,4.88,0,0,0-.54,2.65V8.13H154V-2.35h2.19L156.61-1h.16a3.09,3.09,0,0,1,1.31-1.14A4.54,4.54,0,0,1,160-2.54a3.66,3.66,0,0,1,2.77,1,4,4,0,0,1,.95,2.85ZM175.78-2.35V-.89l-1.64.42a2.85,2.85,0,0,1,.45,1.57,3.18,3.18,0,0,1-1.18,2.64,5.12,5.12,0,0,1-3.26.93l-.52,0-.42-.05a1,1,0,0,0-.44.75c0,.41.53.62,1.58.62h1.78a4,4,0,0,1,2.62.74,2.62,2.62,0,0,1,.91,2.17,3.2,3.2,0,0,1-1.54,2.85,7.87,7.87,0,0,1-4.39,1,6.12,6.12,0,0,1-3.36-.77,2.42,2.42,0,0,1-1.15-2.14,2.2,2.2,0,0,1,.59-1.58,3.29,3.29,0,0,1,1.73-.91,2,2,0,0,1-.77-.61,1.53,1.53,0,0,1-.32-.91,1.48,1.48,0,0,1,.34-1,3.76,3.76,0,0,1,1-.78,2.88,2.88,0,0,1-1.32-1.15A3.46,3.46,0,0,1,166,1.05a3.29,3.29,0,0,1,1.11-2.66,4.85,4.85,0,0,1,3.19-.93,7,7,0,0,1,1,.08l.78.11Zm-8.09,12a1,1,0,0,0,.57.93,3.08,3.08,0,0,0,1.59.34,5.67,5.67,0,0,0,2.41-.42,1.29,1.29,0,0,0,.87-1.15.81.81,0,0,0-.52-.82A4.17,4.17,0,0,0,171,8.26h-1.48a2.28,2.28,0,0,0-1.32.37A1.16,1.16,0,0,0,167.69,9.61Zm1-8.53a2.13,2.13,0,0,0,.39,1.35,1.43,1.43,0,0,0,1.19.5,1.38,1.38,0,0,0,1.18-.5,2.19,2.19,0,0,0,.37-1.35c0-1.26-.51-1.89-1.55-1.89S168.73-.18,168.73,1.08Zm-118,31.67a2,2,0,0,0,1.6-.62,3.81,3.81,0,0,0,.55-2.19V29.6a4.26,4.26,0,0,0-.52-2.42,1.9,1.9,0,0,0-1.67-.73c-1.35,0-2,1.05-2,3.17a4.44,4.44,0,0,0,.5,2.35A1.73,1.73,0,0,0,50.68,32.75Zm-1,2.24a3.4,3.4,0,0,1-2.9-1.43,6.61,6.61,0,0,1-1-4,6.64,6.64,0,0,1,1.06-4,3.47,3.47,0,0,1,2.95-1.45,3.77,3.77,0,0,1,1.73.38,3.58,3.58,0,0,1,1.31,1.16h.07l.25-1.34H55.5V39.41H52.63V35a12.34,12.34,0,0,1,.13-1.58h-.13a2.94,2.94,0,0,1-1.22,1.15A3.64,3.64,0,0,1,49.66,35Zm16.26-.19-.39-1.34h-.15a2.94,2.94,0,0,1-1.3,1.13,4.37,4.37,0,0,1-1.92.4,3.68,3.68,0,0,1-2.79-1,4,4,0,0,1-.93-2.85V24.32H61.3v6.12a3,3,0,0,0,.4,1.71,1.48,1.48,0,0,0,1.28.56,2,2,0,0,0,1.74-.8,5.05,5.05,0,0,0,.53-2.66V24.32h2.86V34.8Zm9.53-8.64a1.79,1.79,0,0,0-1.42.58,2.59,2.59,0,0,0-.59,1.63h4a2.37,2.37,0,0,0-.55-1.63A1.87,1.87,0,0,0,75.45,26.16ZM75.86,35a5.42,5.42,0,0,1-4-1.4,5.29,5.29,0,0,1-1.43-4,5.77,5.77,0,0,1,1.32-4.06,4.66,4.66,0,0,1,3.64-1.45,4.59,4.59,0,0,1,3.46,1.27,4.76,4.76,0,0,1,1.24,3.49v1.39H73.37a2.73,2.73,0,0,0,.72,1.9,2.53,2.53,0,0,0,1.9.69,8,8,0,0,0,1.79-.2A8.72,8.72,0,0,0,79.54,32v2.22a6.58,6.58,0,0,1-1.6.55A9.58,9.58,0,0,1,75.86,35Zm13.91-3.3a2.88,2.88,0,0,1-1.13,2.45A5.44,5.44,0,0,1,85.3,35a10.64,10.64,0,0,1-2-.16,7.16,7.16,0,0,1-1.51-.45V32a9.86,9.86,0,0,0,1.79.62,7.27,7.27,0,0,0,1.76.26Q87,32.9,87,32a.74.74,0,0,0-.21-.55A3.27,3.27,0,0,0,86,31c-.34-.18-.79-.39-1.35-.62a8.46,8.46,0,0,1-1.78-.94,2.81,2.81,0,0,1-.83-1,3.37,3.37,0,0,1-.25-1.38,2.49,2.49,0,0,1,1.08-2.16A5.27,5.27,0,0,1,86,24.12a8.78,8.78,0,0,1,3.69.83L88.79,27a13,13,0,0,0-1.47-.55,4.45,4.45,0,0,0-1.4-.22q-1.26,0-1.26.69a.8.8,0,0,0,.4.66,11.25,11.25,0,0,0,1.79.84,8.57,8.57,0,0,1,1.8.92,2.86,2.86,0,0,1,.85,1A3,3,0,0,1,89.77,31.69Zm6.64,1a6.17,6.17,0,0,0,1.8-.33v2.13a6.35,6.35,0,0,1-2.62.48,3.25,3.25,0,0,1-2.5-.86,3.84,3.84,0,0,1-.78-2.61V26.47H90.94V25.26l1.57-1,.83-2.21h1.83v2.23H98.1v2.15H95.17v5.05a1.1,1.1,0,0,0,.34.9A1.37,1.37,0,0,0,96.41,32.71Zm3.81-11.1c0-.93.52-1.4,1.56-1.4s1.55.47,1.55,1.4a1.38,1.38,0,0,1-.39,1,1.65,1.65,0,0,1-1.16.37Q100.22,23,100.22,21.61Zm3,13.19h-2.86V24.32h2.86Zm5.29-5.26a4.38,4.38,0,0,0,.51,2.35,2.12,2.12,0,0,0,3.31,0,4.53,4.53,0,0,0,.5-2.36,4.38,4.38,0,0,0-.5-2.33,1.84,1.84,0,0,0-1.66-.78,1.8,1.8,0,0,0-1.65.78A4.26,4.26,0,0,0,108.49,29.54Zm7.25,0a5.61,5.61,0,0,1-1.35,4A4.88,4.88,0,0,1,110.63,35a5.29,5.29,0,0,1-2.67-.66,4.52,4.52,0,0,1-1.77-1.9,6.44,6.44,0,0,1-.62-2.89,5.61,5.61,0,0,1,1.34-4,4.94,4.94,0,0,1,3.77-1.43,5.29,5.29,0,0,1,2.67.66,4.41,4.41,0,0,1,1.77,1.88A6.36,6.36,0,0,1,115.74,29.54Zm12,5.26h-2.86V28.68a2.92,2.92,0,0,0-.4-1.7,1.47,1.47,0,0,0-1.28-.57,1.94,1.94,0,0,0-1.74.81,5,5,0,0,0-.53,2.65V34.8H118.1V24.32h2.18l.39,1.34h.16a2.91,2.91,0,0,1,1.31-1.14,4.35,4.35,0,0,1,1.91-.4,3.64,3.64,0,0,1,2.78,1,3.94,3.94,0,0,1,.94,2.85Zm4-4.55v-.69a3.07,3.07,0,0,1,.38-1.57,5,5,0,0,1,1.41-1.41,5.81,5.81,0,0,0,1.29-1.15,1.64,1.64,0,0,0,.32-1,1.06,1.06,0,0,0-.45-.93,2.17,2.17,0,0,0-1.26-.32,7.22,7.22,0,0,0-3.2.92l-1-2.05a9,9,0,0,1,4.44-1.17,4.66,4.66,0,0,1,3.06.93,3,3,0,0,1,1.15,2.47,3.3,3.3,0,0,1-.47,1.78,6.79,6.79,0,0,1-1.78,1.69,5.91,5.91,0,0,0-1.15,1,1.66,1.66,0,0,0-.23.91v.56Zm-.3,3.21a1.57,1.57,0,0,1,.42-1.19,1.7,1.7,0,0,1,1.23-.4,1.65,1.65,0,0,1,1.2.41,1.58,1.58,0,0,1,.43,1.18,1.62,1.62,0,0,1-.43,1.17,2,2,0,0,1-2.42,0A1.56,1.56,0,0,1,131.51,33.46Z"/>
          <rect class="cls-6" x="44.84" y="167.66" width="161.07" height="98.72" rx="2.67" ry="2.67"/>
          <rect class="cls-6" x="44.84" y="77.41" width="161.07" height="22.81" rx="2.67" ry="2.67"/>
          <rect class="cls-6" x="44.84" y="124.97" width="161.07" height="22.81" rx="2.67" ry="2.67"/>
          <path class="cls-6" d="M49.65,72.13H45.71V65.28h3.94v1.19H47.16V68h2.32v1.19H47.16v1.76h2.49Zm6,0H54.24V69.07a1.5,1.5,0,0,0-.2-.85.64.64,0,0,0-.59-.28.87.87,0,0,0-.8.4,2.71,2.71,0,0,0-.25,1.33v2.46H51V66.89h1.1l.19.67h.08A1.38,1.38,0,0,1,53,67a1.91,1.91,0,0,1,.91-.21,1.66,1.66,0,0,1,1.6.77h.12A1.41,1.41,0,0,1,56.2,67a2,2,0,0,1,.93-.21,1.83,1.83,0,0,1,1.34.46,2,2,0,0,1,.46,1.47v3.41H57.5V69.07a1.6,1.6,0,0,0-.19-.85.67.67,0,0,0-.6-.28.9.9,0,0,0-.79.37,2.17,2.17,0,0,0-.25,1.19Zm8.06,0-.27-.71h0a2.14,2.14,0,0,1-.75.63,2.31,2.31,0,0,1-1,.18,1.5,1.5,0,0,1-1.62-1.66,1.37,1.37,0,0,1,.58-1.23,3.36,3.36,0,0,1,1.76-.44l.91,0v-.23a.71.71,0,0,0-.81-.8,3.76,3.76,0,0,0-1.48.38l-.47-1a4.19,4.19,0,0,1,2-.48,2.54,2.54,0,0,1,1.62.46,1.73,1.73,0,0,1,.56,1.4v3.49Zm-.42-2.42h-.55a1.8,1.8,0,0,0-.93.23.72.72,0,0,0-.3.63q0,.6.69.6A1.09,1.09,0,0,0,63,70.9a1,1,0,0,0,.3-.76Zm2.84-4.17c0-.47.26-.7.78-.7s.77.23.77.7a.69.69,0,0,1-.19.52.84.84,0,0,1-.58.18C66.41,66.24,66.15,66,66.15,65.54Zm1.49,6.59H66.21V66.89h1.43Zm2.93,0H69.14V64.84h1.43Z"/>
          <path d="M54.26,88.28a.2.2,0,0,1-.18.11.29.29,0,0,1-.16-.06l-.23-.11a1.25,1.25,0,0,0-.31-.12A1.4,1.4,0,0,0,53,88a1.14,1.14,0,0,0-.39.06.71.71,0,0,0-.3.15.79.79,0,0,0-.19.22.67.67,0,0,0-.06.28.49.49,0,0,0,.11.31,1,1,0,0,0,.28.21,3.17,3.17,0,0,0,.41.17l.46.15a3.61,3.61,0,0,1,.46.17,1.52,1.52,0,0,1,.41.24,1,1,0,0,1,.28.35,1.12,1.12,0,0,1,.11.5,1.64,1.64,0,0,1-.12.63,1.42,1.42,0,0,1-.35.49,1.72,1.72,0,0,1-.58.33,2.39,2.39,0,0,1-.79.12,2.47,2.47,0,0,1-.92-.17,2.41,2.41,0,0,1-.7-.42l.2-.33.09-.1a.29.29,0,0,1,.14,0,.29.29,0,0,1,.18.07l.23.15a2.27,2.27,0,0,0,.34.15,1.68,1.68,0,0,0,.49.06,1.4,1.4,0,0,0,.43-.06.73.73,0,0,0,.31-.18.64.64,0,0,0,.19-.25.81.81,0,0,0,.06-.31.52.52,0,0,0-.11-.33,1.08,1.08,0,0,0-.28-.23,3.19,3.19,0,0,0-.41-.16l-.47-.15L52,90a1.87,1.87,0,0,1-.41-.25,1.09,1.09,0,0,1-.28-.36,1.13,1.13,0,0,1-.11-.54,1.4,1.4,0,0,1,.11-.53,1.34,1.34,0,0,1,.34-.45,1.59,1.59,0,0,1,.54-.31,2.13,2.13,0,0,1,.74-.12,2.16,2.16,0,0,1,.86.16,1.88,1.88,0,0,1,.66.41Zm2.81,4.14a1.21,1.21,0,0,1-.89-.32,1.33,1.33,0,0,1-.3-.93v-3h-.59a.2.2,0,0,1-.13,0,.2.2,0,0,1,0-.14v-.34l.79-.11.2-1.5a.2.2,0,0,1,.06-.11.22.22,0,0,1,.14,0h.43v1.67h1.41v.62H56.73v2.92a.62.62,0,0,0,.15.46.52.52,0,0,0,.38.15.53.53,0,0,0,.23,0,.75.75,0,0,0,.18-.08l.12-.08a.16.16,0,0,1,.09,0,.14.14,0,0,1,.12.08l.25.41a1.8,1.8,0,0,1-.54.32A1.73,1.73,0,0,1,57.07,92.42Zm5.18-3a1.53,1.53,0,0,0-.09-.54,1.22,1.22,0,0,0-.25-.43,1.08,1.08,0,0,0-.38-.28A1.29,1.29,0,0,0,61,88a1.31,1.31,0,0,0-1,.36,1.63,1.63,0,0,0-.44,1Zm.69,2.28a2.05,2.05,0,0,1-.38.34,3.54,3.54,0,0,1-.48.23,2.83,2.83,0,0,1-.52.13,3.17,3.17,0,0,1-.53,0,2.52,2.52,0,0,1-.93-.17,2.07,2.07,0,0,1-.73-.5,2.15,2.15,0,0,1-.48-.82,3.15,3.15,0,0,1-.18-1.11,2.71,2.71,0,0,1,.16-1,2.07,2.07,0,0,1,.45-.76,1.93,1.93,0,0,1,.71-.51A2.24,2.24,0,0,1,61,87.4a2.16,2.16,0,0,1,.81.15,1.87,1.87,0,0,1,.64.42,2,2,0,0,1,.43.68,2.67,2.67,0,0,1,.15.93.51.51,0,0,1,0,.26.17.17,0,0,1-.16.07H59.56a3,3,0,0,0,.12.8,1.57,1.57,0,0,0,.32.57,1.2,1.2,0,0,0,.48.35,1.86,1.86,0,0,0,1.17,0,2.34,2.34,0,0,0,.41-.16l.28-.16a.34.34,0,0,1,.19-.07.19.19,0,0,1,.17.08Zm5.19-4.18-2,4.86h-.76l-2-4.86h.7a.29.29,0,0,1,.17,0,.22.22,0,0,1,.09.13l1.24,3.13c0,.11.07.23.1.34s0,.23.08.34c0-.11,0-.23.08-.34a2.24,2.24,0,0,1,.11-.34l1.24-3.13a.27.27,0,0,1,.1-.13.3.3,0,0,1,.16,0Zm3.9,1.9a1.8,1.8,0,0,0-.08-.54,1.22,1.22,0,0,0-.25-.43,1,1,0,0,0-.39-.28,1.24,1.24,0,0,0-.52-.1,1.31,1.31,0,0,0-1,.36,1.69,1.69,0,0,0-.45,1Zm.69,2.28a1.57,1.57,0,0,1-.38.34,2.93,2.93,0,0,1-.47.23,3,3,0,0,1-.52.13,3.27,3.27,0,0,1-.53,0,2.52,2.52,0,0,1-.93-.17,2.2,2.2,0,0,1-.74-.5,2.43,2.43,0,0,1-.48-.82,3.41,3.41,0,0,1-.17-1.11,3,3,0,0,1,.15-1,2.39,2.39,0,0,1,.45-.76,2.05,2.05,0,0,1,.72-.51,2.24,2.24,0,0,1,1-.19,2.16,2.16,0,0,1,.81.15,1.87,1.87,0,0,1,.64.42,2.13,2.13,0,0,1,.43.68,2.67,2.67,0,0,1,.15.93.51.51,0,0,1,0,.26.18.18,0,0,1-.17.07H69.34a3,3,0,0,0,.13.8,1.57,1.57,0,0,0,.32.57,1.2,1.2,0,0,0,.48.35,1.71,1.71,0,0,0,.62.11,1.77,1.77,0,0,0,.55-.08,2.7,2.7,0,0,0,.41-.16l.27-.16a.4.4,0,0,1,.2-.07.16.16,0,0,1,.16.08Zm1.94-3.48a3.34,3.34,0,0,1,.33-.32,2.2,2.2,0,0,1,.38-.24,1.52,1.52,0,0,1,.42-.16,1.86,1.86,0,0,1,.48-.06,1.76,1.76,0,0,1,.71.14,1.24,1.24,0,0,1,.5.37,1.55,1.55,0,0,1,.32.58,2.57,2.57,0,0,1,.1.75v3.1H77v-3.1a1.29,1.29,0,0,0-.25-.85,1,1,0,0,0-.77-.31,1.4,1.4,0,0,0-.71.19,2.44,2.44,0,0,0-.6.49v3.58h-.86V87.48h.51a.21.21,0,0,1,.23.18Zm7.38.1a.2.2,0,0,1-.18.11.35.35,0,0,1-.17-.06l-.22-.11a1.25,1.25,0,0,0-.31-.12,1.4,1.4,0,0,0-.43-.06,1.14,1.14,0,0,0-.39.06.71.71,0,0,0-.3.15.79.79,0,0,0-.19.22.67.67,0,0,0-.06.28.48.48,0,0,0,.1.31,1.08,1.08,0,0,0,.29.21,3.17,3.17,0,0,0,.41.17l.46.15a3.61,3.61,0,0,1,.46.17,1.52,1.52,0,0,1,.41.24,1.08,1.08,0,0,1,.28.35,1.12,1.12,0,0,1,.11.5,1.64,1.64,0,0,1-.12.63,1.33,1.33,0,0,1-.36.49,1.59,1.59,0,0,1-.57.33,2.39,2.39,0,0,1-.79.12,2.43,2.43,0,0,1-.92-.17,2.29,2.29,0,0,1-.7-.42l.2-.33.09-.1a.29.29,0,0,1,.14,0,.32.32,0,0,1,.18.07l.23.15.33.15a1.77,1.77,0,0,0,.49.06,1.42,1.42,0,0,0,.44-.06.73.73,0,0,0,.31-.18.64.64,0,0,0,.19-.25.81.81,0,0,0,.06-.31.52.52,0,0,0-.11-.33,1,1,0,0,0-.29-.23,2.56,2.56,0,0,0-.4-.16l-.47-.15L79.77,90a1.8,1.8,0,0,1-.4-.25,1,1,0,0,1-.39-.9,1.4,1.4,0,0,1,.11-.53,1.34,1.34,0,0,1,.34-.45,1.59,1.59,0,0,1,.54-.31,2.13,2.13,0,0,1,.74-.12,2.16,2.16,0,0,1,.86.16,1.88,1.88,0,0,1,.66.41ZM86,90.15a6.75,6.75,0,0,0-1,.1,2.86,2.86,0,0,0-.67.19.9.9,0,0,0-.38.28.61.61,0,0,0-.12.37.69.69,0,0,0,.23.56.79.79,0,0,0,.26.13,1.55,1.55,0,0,0,.31,0,1.86,1.86,0,0,0,.42,0,1.48,1.48,0,0,0,.35-.13,2.11,2.11,0,0,0,.31-.21,1.93,1.93,0,0,0,.3-.27Zm-2.76-2a3,3,0,0,1,.87-.58,2.82,2.82,0,0,1,1-.19,1.86,1.86,0,0,1,.73.14,1.45,1.45,0,0,1,.53.37,1.72,1.72,0,0,1,.33.58,2.56,2.56,0,0,1,.11.75v3.11h-.38a.32.32,0,0,1-.19,0,.29.29,0,0,1-.11-.16l-.1-.46c-.12.12-.25.22-.37.32l-.38.23a2,2,0,0,1-.44.13,1.9,1.9,0,0,1-.5.06,1.78,1.78,0,0,1-.53-.08,1.11,1.11,0,0,1-.44-.24,1.09,1.09,0,0,1-.29-.4,1.41,1.41,0,0,1-.11-.57,1,1,0,0,1,.16-.56,1.56,1.56,0,0,1,.51-.47,3.43,3.43,0,0,1,.93-.34,6.74,6.74,0,0,1,1.4-.15v-.38a1.29,1.29,0,0,0-.24-.85.88.88,0,0,0-.72-.3,1.6,1.6,0,0,0-.53.08,3.21,3.21,0,0,0-.37.18l-.27.18a.4.4,0,0,1-.22.08.25.25,0,0,1-.15,0,.35.35,0,0,1-.1-.11ZM89,85.27v7.07h-.85V85.27Zm4,4.88a6.75,6.75,0,0,0-1,.1,2.86,2.86,0,0,0-.67.19.9.9,0,0,0-.38.28.61.61,0,0,0-.12.37.67.67,0,0,0,.07.33.63.63,0,0,0,.16.23.79.79,0,0,0,.26.13,1.55,1.55,0,0,0,.31,0,1.79,1.79,0,0,0,.42,0,1.48,1.48,0,0,0,.35-.13,1.69,1.69,0,0,0,.31-.21,1.93,1.93,0,0,0,.3-.27Zm-2.76-2a3,3,0,0,1,.87-.58,2.86,2.86,0,0,1,1-.19,1.83,1.83,0,0,1,.73.14,1.45,1.45,0,0,1,.53.37,1.72,1.72,0,0,1,.33.58,2.56,2.56,0,0,1,.11.75v3.11h-.38a.34.34,0,0,1-.19,0,.29.29,0,0,1-.11-.16l-.1-.46c-.12.12-.25.22-.37.32l-.38.23a2,2,0,0,1-.44.13,1.9,1.9,0,0,1-.5.06,1.78,1.78,0,0,1-.53-.08,1.18,1.18,0,0,1-.44-.24,1.09,1.09,0,0,1-.29-.4,1.41,1.41,0,0,1-.11-.57,1.13,1.13,0,0,1,.16-.56,1.56,1.56,0,0,1,.51-.47,3.43,3.43,0,0,1,.93-.34,6.74,6.74,0,0,1,1.4-.15v-.38a1.29,1.29,0,0,0-.24-.85.88.88,0,0,0-.72-.3,1.6,1.6,0,0,0-.53.08l-.37.18-.27.18a.4.4,0,0,1-.22.08.25.25,0,0,1-.15,0,.35.35,0,0,1-.1-.11Zm8.07.48a1.34,1.34,0,0,0-.52-.45,1.42,1.42,0,0,0-.63-.13,1.24,1.24,0,0,0-1,.48,2.32,2.32,0,0,0-.36,1.39,3.76,3.76,0,0,0,.08.81,1.44,1.44,0,0,0,.24.56,1.08,1.08,0,0,0,.39.32,1.42,1.42,0,0,0,.52.1,1.39,1.39,0,0,0,.74-.2,2,2,0,0,0,.58-.54Zm.85-3.37v7.07h-.51a.22.22,0,0,1-.23-.18l-.07-.59a2.91,2.91,0,0,1-.71.61,1.89,1.89,0,0,1-.93.23,1.68,1.68,0,0,1-.75-.16,1.61,1.61,0,0,1-.59-.48A2.21,2.21,0,0,1,95,91a4.32,4.32,0,0,1-.12-1.07,3.22,3.22,0,0,1,.14-1,2.57,2.57,0,0,1,.41-.81,1.89,1.89,0,0,1,.66-.53,2,2,0,0,1,.88-.2,1.68,1.68,0,0,1,.77.16,1.72,1.72,0,0,1,.57.41V85.27Zm5.74,3.13a1.77,1.77,0,0,0-.41-.05,1.38,1.38,0,0,0-.67.16,1.51,1.51,0,0,0-.51.39,1.87,1.87,0,0,0-.34.56,1.82,1.82,0,0,0-.12.65.91.91,0,0,0,.16.56.56.56,0,0,0,.47.2.71.71,0,0,0,.29-.05.8.8,0,0,0,.3-.16,1.31,1.31,0,0,0,.26-.33,2,2,0,0,0,.2-.52Zm.3,1.33a2.31,2.31,0,0,0-.1.6.79.79,0,0,0,.08.35.33.33,0,0,0,.19.18.87.87,0,0,0,.28,0,.82.82,0,0,0,.44-.14,1.12,1.12,0,0,0,.37-.38,1.93,1.93,0,0,0,.26-.58,3.07,3.07,0,0,0,.09-.77,3,3,0,0,0-.21-1.16,2.26,2.26,0,0,0-.58-.83,2.46,2.46,0,0,0-.88-.5,3.51,3.51,0,0,0-1.09-.17,3.08,3.08,0,0,0-1.21.25,3,3,0,0,0-1,.68,3.26,3.26,0,0,0-.9,2.3,3.74,3.74,0,0,0,.26,1.44,2.9,2.9,0,0,0,.7,1,2.82,2.82,0,0,0,1,.63,3.88,3.88,0,0,0,1.29.21,4.55,4.55,0,0,0,1.29-.16,4.1,4.1,0,0,0,1-.4.17.17,0,0,1,.16,0,.14.14,0,0,1,.11.1l.12.32a4.19,4.19,0,0,1-1.17.54,5.19,5.19,0,0,1-1.48.2,4.35,4.35,0,0,1-1.55-.27,3.51,3.51,0,0,1-2.07-2,4.24,4.24,0,0,1-.3-1.64,4.15,4.15,0,0,1,.13-1,3.91,3.91,0,0,1,1-1.67,3.57,3.57,0,0,1,1.64-1,3.31,3.31,0,0,1,1-.14,4.12,4.12,0,0,1,.86.09,3.63,3.63,0,0,1,.8.29,3.19,3.19,0,0,1,.69.46,3.1,3.1,0,0,1,.55.64,2.83,2.83,0,0,1,.35.79,3.21,3.21,0,0,1,.13,1,2.93,2.93,0,0,1-.15,1,2.29,2.29,0,0,1-.4.76,1.94,1.94,0,0,1-.6.51,1.67,1.67,0,0,1-.76.18,1,1,0,0,1-.6-.18.83.83,0,0,1-.3-.55,1.83,1.83,0,0,1-.61.55,1.51,1.51,0,0,1-.7.17,1.12,1.12,0,0,1-.5-.1.94.94,0,0,1-.35-.27,1.38,1.38,0,0,1-.21-.42,1.72,1.72,0,0,1-.07-.52,2.28,2.28,0,0,1,.62-1.57,2.49,2.49,0,0,1,.76-.54,2.54,2.54,0,0,1,1.06-.22,2.49,2.49,0,0,1,.57.06,2.44,2.44,0,0,1,.46.14Zm5,.23a1.35,1.35,0,0,0,.46-.07.84.84,0,0,0,.53-.51,1.23,1.23,0,0,0,.07-.39.94.94,0,0,0-.28-.71,1.28,1.28,0,0,0-1.57,0,.93.93,0,0,0-.27.71,1,1,0,0,0,.07.39.79.79,0,0,0,.2.31.91.91,0,0,0,.33.2A1.31,1.31,0,0,0,110.27,90Zm1.54,2.64a.39.39,0,0,0-.1-.28.75.75,0,0,0-.27-.18,1.57,1.57,0,0,0-.4-.08l-.48,0-.51,0-.5,0a1.58,1.58,0,0,0-.44.31.68.68,0,0,0-.17.45.55.55,0,0,0,.09.3.61.61,0,0,0,.26.24,1.33,1.33,0,0,0,.43.17,2.77,2.77,0,0,0,.62.06,3,3,0,0,0,.62-.06,1.77,1.77,0,0,0,.46-.18,1.08,1.08,0,0,0,.29-.27A.65.65,0,0,0,111.81,92.6Zm.87-4.93V88c0,.1-.07.17-.2.2l-.55.07a1.63,1.63,0,0,1,.16.7,1.55,1.55,0,0,1-.14.65,1.38,1.38,0,0,1-.37.49,1.64,1.64,0,0,1-.58.32,2.43,2.43,0,0,1-.73.11,2.61,2.61,0,0,1-.64-.08.71.71,0,0,0-.24.21.37.37,0,0,0-.08.21.31.31,0,0,0,.14.27,1.07,1.07,0,0,0,.37.12,4,4,0,0,0,.53,0l.6,0,.61.07a2,2,0,0,1,.52.18.94.94,0,0,1,.52.88,1.31,1.31,0,0,1-.16.6,1.47,1.47,0,0,1-.45.52,2.21,2.21,0,0,1-.72.36,2.83,2.83,0,0,1-1,.14,3.63,3.63,0,0,1-.93-.1,2.18,2.18,0,0,1-.67-.29,1.17,1.17,0,0,1-.39-.41.91.91,0,0,1-.13-.48.86.86,0,0,1,.22-.61,1.55,1.55,0,0,1,.62-.4.91.91,0,0,1-.34-.26.63.63,0,0,1-.13-.43.57.57,0,0,1,0-.22.65.65,0,0,1,.11-.22,1.37,1.37,0,0,1,.2-.22,1.27,1.27,0,0,1,.27-.18,1.43,1.43,0,0,1-.56-.53,1.42,1.42,0,0,1-.2-.78,1.47,1.47,0,0,1,.13-.64,1.45,1.45,0,0,1,.38-.5,1.84,1.84,0,0,1,.59-.31,2.17,2.17,0,0,1,.74-.11,2.22,2.22,0,0,1,.59.07,1.69,1.69,0,0,1,.5.2Zm.88,4.67V87.48h.52a.21.21,0,0,1,.22.18l.06.5a2.42,2.42,0,0,1,.61-.55,1.42,1.42,0,0,1,.78-.21,1.11,1.11,0,0,1,.79.28,1.53,1.53,0,0,1,.44.73,1.68,1.68,0,0,1,.27-.45,1.58,1.58,0,0,1,.37-.32,1.85,1.85,0,0,1,.44-.18,2,2,0,0,1,.48-.06,1.65,1.65,0,0,1,.68.13,1.3,1.3,0,0,1,.51.35,1.71,1.71,0,0,1,.32.58,2.67,2.67,0,0,1,.11.78v3.1h-.86v-3.1a1.28,1.28,0,0,0-.25-.86.89.89,0,0,0-.72-.3,1.06,1.06,0,0,0-.4.08,1,1,0,0,0-.34.22,1.06,1.06,0,0,0-.23.36,1.5,1.5,0,0,0-.08.5v3.1h-.86v-3.1a1.33,1.33,0,0,0-.23-.87.85.85,0,0,0-.69-.29,1,1,0,0,0-.58.18,1.79,1.79,0,0,0-.5.46v3.62Zm10.53-2.19a6.75,6.75,0,0,0-1,.1,2.86,2.86,0,0,0-.67.19.9.9,0,0,0-.38.28.61.61,0,0,0-.12.37.67.67,0,0,0,.07.33.63.63,0,0,0,.16.23.79.79,0,0,0,.26.13,1.55,1.55,0,0,0,.31,0,1.86,1.86,0,0,0,.42,0,1.48,1.48,0,0,0,.35-.13,1.69,1.69,0,0,0,.31-.21,1.93,1.93,0,0,0,.3-.27Zm-2.76-2a3,3,0,0,1,.87-.58,2.86,2.86,0,0,1,1-.19,1.86,1.86,0,0,1,.73.14,1.45,1.45,0,0,1,.53.37,1.72,1.72,0,0,1,.33.58,2.56,2.56,0,0,1,.11.75v3.11h-.38a.32.32,0,0,1-.19,0,.29.29,0,0,1-.11-.16l-.1-.46c-.12.12-.25.22-.37.32l-.38.23a2,2,0,0,1-.44.13,1.9,1.9,0,0,1-.5.06,1.78,1.78,0,0,1-.53-.08,1.18,1.18,0,0,1-.44-.24,1.09,1.09,0,0,1-.29-.4,1.41,1.41,0,0,1-.11-.57,1,1,0,0,1,.16-.56,1.56,1.56,0,0,1,.51-.47,3.43,3.43,0,0,1,.93-.34,6.74,6.74,0,0,1,1.4-.15v-.38a1.29,1.29,0,0,0-.24-.85.88.88,0,0,0-.72-.3,1.6,1.6,0,0,0-.53.08l-.37.18-.27.18a.4.4,0,0,1-.22.08.25.25,0,0,1-.15,0,.35.35,0,0,1-.1-.11Zm5.8-.68v4.86h-.85V87.48Zm.18-1.53a.49.49,0,0,1,0,.24.8.8,0,0,1-.13.19.69.69,0,0,1-.2.13.6.6,0,0,1-.24,0,.59.59,0,0,1-.23,0,.62.62,0,0,1-.32-.32.64.64,0,0,1,0-.24.59.59,0,0,1,0-.23.58.58,0,0,1,.13-.2.59.59,0,0,1,.19-.13.46.46,0,0,1,.23,0,.47.47,0,0,1,.24,0,.53.53,0,0,1,.2.13.58.58,0,0,1,.13.2A.46.46,0,0,1,127.31,86Zm2.11-.68v7.07h-.86V85.27Zm1.24,6.54a.59.59,0,0,1,0-.23.53.53,0,0,1,.13-.19.5.5,0,0,1,.19-.13.46.46,0,0,1,.23-.05.47.47,0,0,1,.24.05.5.5,0,0,1,.19.13.43.43,0,0,1,.13.19.59.59,0,0,1,.05.23.6.6,0,0,1-.05.24.5.5,0,0,1-.13.19.66.66,0,0,1-.43.17.46.46,0,0,1-.23,0,.47.47,0,0,1-.19-.12.64.64,0,0,1-.13-.19A.61.61,0,0,1,130.66,91.81Zm5.8-3.47a.3.3,0,0,1-.08.08.18.18,0,0,1-.11,0,.33.33,0,0,1-.15,0,1.4,1.4,0,0,0-.22-.14,1.52,1.52,0,0,0-.31-.13,1.44,1.44,0,0,0-.45-.06,1.47,1.47,0,0,0-.64.13,1.23,1.23,0,0,0-.46.36,2,2,0,0,0-.28.58,3.21,3.21,0,0,0,0,1.55,1.66,1.66,0,0,0,.29.58,1.39,1.39,0,0,0,.44.36,1.45,1.45,0,0,0,.59.12,1.54,1.54,0,0,0,.52-.08,1.69,1.69,0,0,0,.33-.16l.22-.17a.27.27,0,0,1,.18-.07.17.17,0,0,1,.16.08l.24.31a2.31,2.31,0,0,1-.36.34,2,2,0,0,1-.44.23,1.89,1.89,0,0,1-.48.13,3,3,0,0,1-.52,0,2.19,2.19,0,0,1-.85-.17,2,2,0,0,1-.68-.48A2.43,2.43,0,0,1,133,91a3.19,3.19,0,0,1-.16-1.06,3.29,3.29,0,0,1,.15-1,2.34,2.34,0,0,1,.44-.79,2,2,0,0,1,.71-.52,2.38,2.38,0,0,1,1-.19,2.31,2.31,0,0,1,.91.17,2,2,0,0,1,.69.47Zm3.16-.94a2.42,2.42,0,0,1,1,.18,2,2,0,0,1,1.19,1.3,3.21,3.21,0,0,1,0,2.06,2.14,2.14,0,0,1-.46.79,2,2,0,0,1-.73.51,2.61,2.61,0,0,1-1,.17,2.7,2.7,0,0,1-1-.17,2.09,2.09,0,0,1-.73-.51,2.29,2.29,0,0,1-.46-.79,3.4,3.4,0,0,1,0-2.06,2.24,2.24,0,0,1,.46-.8,2.21,2.21,0,0,1,.73-.5A2.5,2.5,0,0,1,139.62,87.4Zm0,4.34a1.26,1.26,0,0,0,1.08-.48,2.78,2.78,0,0,0,0-2.7,1.27,1.27,0,0,0-1.08-.49,1.62,1.62,0,0,0-.64.13,1.13,1.13,0,0,0-.45.36,1.64,1.64,0,0,0-.27.58,3.57,3.57,0,0,0-.08.77,2.28,2.28,0,0,0,.35,1.35A1.28,1.28,0,0,0,139.62,91.74Zm3.4.6V87.48h.51a.22.22,0,0,1,.23.18l.06.5a2.26,2.26,0,0,1,.61-.55,1.41,1.41,0,0,1,.77-.21,1.09,1.09,0,0,1,.79.28,1.47,1.47,0,0,1,.45.73,1.68,1.68,0,0,1,.27-.45,1.4,1.4,0,0,1,.37-.32,1.7,1.7,0,0,1,.44-.18,1.84,1.84,0,0,1,.47-.06,1.62,1.62,0,0,1,.68.13,1.3,1.3,0,0,1,.51.35,1.55,1.55,0,0,1,.32.58,2.37,2.37,0,0,1,.11.78v3.1h-.86v-3.1a1.34,1.34,0,0,0-.24-.86.89.89,0,0,0-.72-.3,1.11,1.11,0,0,0-.41.08,1,1,0,0,0-.33.22.93.93,0,0,0-.23.36,1.5,1.5,0,0,0-.08.5v3.1h-.86v-3.1a1.33,1.33,0,0,0-.24-.87.82.82,0,0,0-.68-.29,1,1,0,0,0-.59.18,1.76,1.76,0,0,0-.49.46v3.62Z"/>
          <path d="M55.15,134.1a.55.55,0,0,1-.1.11.21.21,0,0,1-.12,0,.28.28,0,0,1-.19-.08l-.28-.18a3.11,3.11,0,0,0-.4-.18,1.79,1.79,0,0,0-.56-.08,1.55,1.55,0,0,0-.55.09,1.18,1.18,0,0,0-.4.22.88.88,0,0,0-.24.34,1,1,0,0,0-.08.42.76.76,0,0,0,.14.48,1.16,1.16,0,0,0,.37.32,3.25,3.25,0,0,0,.53.24l.6.2a6.44,6.44,0,0,1,.61.24,2.37,2.37,0,0,1,.53.33,1.51,1.51,0,0,1,.37.49,1.6,1.6,0,0,1,.14.72,2.34,2.34,0,0,1-.15.85,1.8,1.8,0,0,1-.45.69,2,2,0,0,1-.73.46,2.63,2.63,0,0,1-1,.17,3,3,0,0,1-1.22-.24,2.71,2.71,0,0,1-.93-.66l.26-.44.1-.09a.24.24,0,0,1,.12,0,.22.22,0,0,1,.14,0l.18.12.23.17.29.17.38.13a2.28,2.28,0,0,0,.48.05,1.78,1.78,0,0,0,.59-.09,1.46,1.46,0,0,0,.44-.26,1,1,0,0,0,.27-.4,1.19,1.19,0,0,0,.1-.51.88.88,0,0,0-.14-.51,1.34,1.34,0,0,0-.37-.34,2.56,2.56,0,0,0-.53-.22l-.61-.19-.6-.23a2.09,2.09,0,0,1-.53-.34,1.59,1.59,0,0,1-.37-.51,1.8,1.8,0,0,1-.14-.77,1.76,1.76,0,0,1,.14-.71,1.74,1.74,0,0,1,.41-.6,1.82,1.82,0,0,1,.67-.42,2.35,2.35,0,0,1,.91-.16,3,3,0,0,1,1,.18,2.5,2.5,0,0,1,.83.53Zm4.71,2.84a1.53,1.53,0,0,0-.08-.54,1.22,1.22,0,0,0-.25-.43,1,1,0,0,0-.39-.28,1.38,1.38,0,0,0-.52-.1,1.31,1.31,0,0,0-1,.36,1.69,1.69,0,0,0-.45,1Zm.7,2.28a2.05,2.05,0,0,1-.38.34,2.65,2.65,0,0,1-.48.23,3,3,0,0,1-.52.13,3.17,3.17,0,0,1-.53.05,2.52,2.52,0,0,1-.93-.17,2.06,2.06,0,0,1-.74-.5,2.49,2.49,0,0,1-.48-.81,3.51,3.51,0,0,1-.17-1.12,3,3,0,0,1,.15-1,2.24,2.24,0,0,1,.46-.76,1.93,1.93,0,0,1,.71-.51,2.4,2.4,0,0,1,1-.19,2.16,2.16,0,0,1,.81.15,1.87,1.87,0,0,1,.64.42,1.93,1.93,0,0,1,.43.69,2.61,2.61,0,0,1,.15.92.58.58,0,0,1,0,.27.18.18,0,0,1-.16.06H57.18a3.14,3.14,0,0,0,.12.81,1.76,1.76,0,0,0,.32.57,1.27,1.27,0,0,0,.48.34,1.71,1.71,0,0,0,.62.11,2.11,2.11,0,0,0,.55-.07,4.27,4.27,0,0,0,.41-.17,2.32,2.32,0,0,0,.28-.16.34.34,0,0,1,.19-.07.19.19,0,0,1,.17.08Zm2-6.39v7.07h-.85v-7.07Zm4.64,4.11a1.53,1.53,0,0,0-.08-.54,1.22,1.22,0,0,0-.25-.43,1,1,0,0,0-.39-.28,1.38,1.38,0,0,0-.52-.1,1.31,1.31,0,0,0-1,.36,1.63,1.63,0,0,0-.44,1Zm.7,2.28a2.05,2.05,0,0,1-.38.34,2.65,2.65,0,0,1-.48.23,2.83,2.83,0,0,1-.52.13A3.17,3.17,0,0,1,66,140a2.52,2.52,0,0,1-.93-.17,2.06,2.06,0,0,1-.74-.5,2.49,2.49,0,0,1-.48-.81,3.51,3.51,0,0,1-.17-1.12,2.71,2.71,0,0,1,.16-1,2.07,2.07,0,0,1,.45-.76,1.93,1.93,0,0,1,.71-.51,2.4,2.4,0,0,1,1-.19,2.16,2.16,0,0,1,.81.15,1.87,1.87,0,0,1,.64.42,1.93,1.93,0,0,1,.43.69,2.61,2.61,0,0,1,.15.92.58.58,0,0,1,0,.27.18.18,0,0,1-.16.06H64.52a3.14,3.14,0,0,0,.12.81,1.76,1.76,0,0,0,.32.57,1.27,1.27,0,0,0,.48.34,1.71,1.71,0,0,0,.62.11,2.11,2.11,0,0,0,.55-.07,3.41,3.41,0,0,0,.41-.17,2.32,2.32,0,0,0,.28-.16.34.34,0,0,1,.19-.07.19.19,0,0,1,.17.08Zm4.51-3.32-.08.09a.18.18,0,0,1-.11,0,.24.24,0,0,1-.15,0l-.22-.14a1.52,1.52,0,0,0-.31-.13,1.67,1.67,0,0,0-1.09.07,1.26,1.26,0,0,0-.46.37,1.84,1.84,0,0,0-.28.58,2.93,2.93,0,0,0-.09.76,3.16,3.16,0,0,0,.1.79,1.61,1.61,0,0,0,.29.57,1.27,1.27,0,0,0,.44.36,1.45,1.45,0,0,0,.59.12,1.87,1.87,0,0,0,.52-.07,2.5,2.5,0,0,0,.33-.17l.22-.17a.27.27,0,0,1,.18-.07.17.17,0,0,1,.16.08l.24.31a1.81,1.81,0,0,1-.8.57,2.43,2.43,0,0,1-.48.14,3,3,0,0,1-.52,0,2.19,2.19,0,0,1-.85-.17,1.91,1.91,0,0,1-.68-.48,2.43,2.43,0,0,1-.45-.79,3.5,3.5,0,0,1,0-2.06,2.29,2.29,0,0,1,.44-.8,2.08,2.08,0,0,1,.71-.52,2.55,2.55,0,0,1,1-.19,2.31,2.31,0,0,1,.91.17,2.17,2.17,0,0,1,.69.47ZM75.1,140a1.21,1.21,0,0,1-.89-.32,1.34,1.34,0,0,1-.31-.93v-3h-.58a.19.19,0,0,1-.13,0,.16.16,0,0,1,0-.14v-.34l.79-.1.2-1.51a.24.24,0,0,1,.06-.11.22.22,0,0,1,.14,0h.43v1.68h1.4v.62h-1.4v2.91a.62.62,0,0,0,.15.46.5.5,0,0,0,.38.15.75.75,0,0,0,.23,0l.17-.09.12-.07a.16.16,0,0,1,.1,0,.17.17,0,0,1,.12.08l.25.41a1.61,1.61,0,0,1-.54.32A1.77,1.77,0,0,1,75.1,140Zm7-2.27a8.39,8.39,0,0,0-1,.1,3.12,3.12,0,0,0-.68.19,1,1,0,0,0-.38.29.64.64,0,0,0-.11.36A.81.81,0,0,0,80,139a.66.66,0,0,0,.17.23.75.75,0,0,0,.25.13,1.12,1.12,0,0,0,.32,0,1.73,1.73,0,0,0,.41,0,1.6,1.6,0,0,0,.35-.14,1.73,1.73,0,0,0,.32-.2,3.84,3.84,0,0,0,.3-.28Zm-2.76-2a2.66,2.66,0,0,1,1.9-.78,1.81,1.81,0,0,1,.72.14,1.49,1.49,0,0,1,.54.37,1.64,1.64,0,0,1,.32.58,2.27,2.27,0,0,1,.11.75v3.11h-.38a.36.36,0,0,1-.19,0,.25.25,0,0,1-.1-.16l-.1-.46-.37.32a2.5,2.5,0,0,1-.39.23,2.71,2.71,0,0,1-.43.14,2.57,2.57,0,0,1-.5,0,1.91,1.91,0,0,1-.54-.08,1.14,1.14,0,0,1-.43-.24,1.24,1.24,0,0,1-.3-.4,1.42,1.42,0,0,1-.1-.57,1,1,0,0,1,.16-.55,1.32,1.32,0,0,1,.51-.48,3.14,3.14,0,0,1,.93-.33,6.67,6.67,0,0,1,1.4-.16v-.38a1.23,1.23,0,0,0-.25-.85.85.85,0,0,0-.71-.29,1.38,1.38,0,0,0-.53.08,2.14,2.14,0,0,0-.37.17l-.27.18a.42.42,0,0,1-.22.08.33.33,0,0,1-.15,0,.63.63,0,0,1-.11-.12Zm8.16.28a2.24,2.24,0,0,1,.57-.77,1.23,1.23,0,0,1,.82-.29,1.35,1.35,0,0,1,.29,0,1,1,0,0,1,.26.1l-.07.64a.13.13,0,0,1-.14.12l-.2,0a1.23,1.23,0,0,0-.29,0,1.3,1.3,0,0,0-.41.07,1,1,0,0,0-.32.2,1.46,1.46,0,0,0-.26.33,3,3,0,0,0-.2.44v3.07h-.86V135h.49a.29.29,0,0,1,.19.05.37.37,0,0,1,.08.19Zm5.75.93a1.53,1.53,0,0,0-.09-.54,1.19,1.19,0,0,0-.63-.71,1.47,1.47,0,0,0-.53-.1,1.31,1.31,0,0,0-1,.36,1.63,1.63,0,0,0-.44,1Zm.69,2.28a1.78,1.78,0,0,1-.38.34,2.65,2.65,0,0,1-.48.23,2.83,2.83,0,0,1-.52.13,3.07,3.07,0,0,1-.53.05,2.6,2.6,0,0,1-.93-.17,1.94,1.94,0,0,1-.73-.5,2.18,2.18,0,0,1-.48-.81,3.25,3.25,0,0,1-.18-1.12,2.71,2.71,0,0,1,.16-1,2.07,2.07,0,0,1,.45-.76,1.93,1.93,0,0,1,.71-.51,2.4,2.4,0,0,1,1-.19,2.16,2.16,0,0,1,.81.15,1.87,1.87,0,0,1,.64.42,1.8,1.8,0,0,1,.43.69,2.61,2.61,0,0,1,.15.92.58.58,0,0,1,0,.27.18.18,0,0,1-.16.06H90.6a3.14,3.14,0,0,0,.12.81,2,2,0,0,0,.32.57,1.27,1.27,0,0,0,.48.34,1.75,1.75,0,0,0,.62.11,2.25,2.25,0,0,0,.56-.07,4,4,0,0,0,.4-.17,2.32,2.32,0,0,0,.28-.16.34.34,0,0,1,.19-.07.19.19,0,0,1,.17.08Zm3.76-1.51a8.39,8.39,0,0,0-1,.1,3.12,3.12,0,0,0-.68.19,1,1,0,0,0-.38.29.64.64,0,0,0-.11.36.81.81,0,0,0,.06.33.66.66,0,0,0,.17.23.75.75,0,0,0,.25.13,1.12,1.12,0,0,0,.32,0,1.73,1.73,0,0,0,.41,0,1.6,1.6,0,0,0,.35-.14,1.73,1.73,0,0,0,.32-.2,3.84,3.84,0,0,0,.3-.28Zm-2.76-2a2.66,2.66,0,0,1,1.9-.78,1.81,1.81,0,0,1,.72.14,1.49,1.49,0,0,1,.54.37,1.64,1.64,0,0,1,.32.58,2.27,2.27,0,0,1,.11.75v3.11h-.38a.36.36,0,0,1-.19,0,.25.25,0,0,1-.1-.16l-.1-.46-.37.32a2.5,2.5,0,0,1-.39.23,2.71,2.71,0,0,1-.43.14,2.57,2.57,0,0,1-.5,0,1.91,1.91,0,0,1-.54-.08,1.14,1.14,0,0,1-.43-.24,1.24,1.24,0,0,1-.3-.4,1.42,1.42,0,0,1-.1-.57,1,1,0,0,1,.16-.55,1.32,1.32,0,0,1,.51-.48,3.14,3.14,0,0,1,.93-.33,6.67,6.67,0,0,1,1.4-.16v-.38a1.23,1.23,0,0,0-.25-.85.85.85,0,0,0-.71-.29,1.38,1.38,0,0,0-.53.08,2.14,2.14,0,0,0-.37.17l-.27.18a.42.42,0,0,1-.22.08.33.33,0,0,1-.15,0,.63.63,0,0,1-.11-.12Zm7.73.11a.2.2,0,0,1-.18.11.29.29,0,0,1-.16-.06l-.23-.11a1.25,1.25,0,0,0-.31-.12,1.4,1.4,0,0,0-.43-.06,1.14,1.14,0,0,0-.39.06.71.71,0,0,0-.3.15.79.79,0,0,0-.19.22.67.67,0,0,0-.06.28.47.47,0,0,0,.11.31,1.3,1.3,0,0,0,.28.22,3.19,3.19,0,0,0,.41.16l.46.15.46.17a1.52,1.52,0,0,1,.41.24,1,1,0,0,1,.28.36,1,1,0,0,1,.11.49,1.61,1.61,0,0,1-.12.63,1.42,1.42,0,0,1-.35.49,1.72,1.72,0,0,1-.58.33,2.39,2.39,0,0,1-.79.12,2.47,2.47,0,0,1-.92-.16,2.68,2.68,0,0,1-.7-.43l.2-.33.09-.09a.21.21,0,0,1,.14,0,.37.37,0,0,1,.18.07c.06.05.14.09.23.15a2.27,2.27,0,0,0,.34.15,1.64,1.64,0,0,0,.49.07,1.38,1.38,0,0,0,.43-.07.83.83,0,0,0,.31-.17.67.67,0,0,0,.19-.26.81.81,0,0,0,.06-.31.52.52,0,0,0-.11-.33.88.88,0,0,0-.28-.22,2.19,2.19,0,0,0-.41-.17l-.47-.15a4.28,4.28,0,0,1-.46-.17,1.87,1.87,0,0,1-.41-.25,1.09,1.09,0,0,1-.28-.36,1.13,1.13,0,0,1-.11-.54,1.4,1.4,0,0,1,.11-.53,1.34,1.34,0,0,1,.34-.45,1.78,1.78,0,0,1,.54-.31,2.13,2.13,0,0,1,.74-.12,2.16,2.16,0,0,1,.86.16,2,2,0,0,1,.66.41Zm3.37-.88a2.49,2.49,0,0,1,1,.18,2.09,2.09,0,0,1,.73.51,2.2,2.2,0,0,1,.46.79,3,3,0,0,1,.16,1,3.11,3.11,0,0,1-.16,1,2.24,2.24,0,0,1-.46.78,2.09,2.09,0,0,1-.73.51,2.82,2.82,0,0,1-1.93,0,2,2,0,0,1-.73-.51,2.26,2.26,0,0,1-.47-.78,3.39,3.39,0,0,1-.16-1,3.27,3.27,0,0,1,.16-1,2.21,2.21,0,0,1,.47-.79,2,2,0,0,1,.73-.51A2.5,2.5,0,0,1,106.08,135Zm0,4.34a1.23,1.23,0,0,0,1.07-.48,2.71,2.71,0,0,0,0-2.7,1.23,1.23,0,0,0-1.07-.48,1.56,1.56,0,0,0-.64.12,1.13,1.13,0,0,0-.45.36,1.64,1.64,0,0,0-.27.58,3.07,3.07,0,0,0-.09.77,2.21,2.21,0,0,0,.36,1.35A1.27,1.27,0,0,0,106.08,139.3Zm4.2-3.55a3.51,3.51,0,0,1,.34-.33,2.92,2.92,0,0,1,.37-.24,2.41,2.41,0,0,1,.42-.16,2,2,0,0,1,.49-.06,1.68,1.68,0,0,1,.7.14,1.27,1.27,0,0,1,.51.37,1.62,1.62,0,0,1,.31.58,2.58,2.58,0,0,1,.11.76v3.09h-.86v-3.09a1.3,1.3,0,0,0-.26-.86.92.92,0,0,0-.76-.3,1.47,1.47,0,0,0-.71.18,2.31,2.31,0,0,0-.61.49v3.58h-.85V135H110a.2.2,0,0,1,.22.18Zm4.4,3.62a.59.59,0,0,1,0-.23.62.62,0,0,1,.12-.19.59.59,0,0,1,.19-.13.69.69,0,0,1,.24,0,.59.59,0,0,1,.23,0,.53.53,0,0,1,.2.13.91.91,0,0,1,.13.19.59.59,0,0,1,0,.23.61.61,0,0,1,0,.24.7.7,0,0,1-.13.19.53.53,0,0,1-.2.13.59.59,0,0,1-.23,0,.67.67,0,0,1-.24,0,.59.59,0,0,1-.19-.13.52.52,0,0,1-.12-.19A.6.6,0,0,1,114.68,139.37Zm2.27,0a.59.59,0,0,1,0-.23.62.62,0,0,1,.12-.19.59.59,0,0,1,.19-.13.69.69,0,0,1,.24,0,.59.59,0,0,1,.23,0,.53.53,0,0,1,.2.13.91.91,0,0,1,.13.19.59.59,0,0,1,0,.23.61.61,0,0,1,0,.24.7.7,0,0,1-.13.19.53.53,0,0,1-.2.13.59.59,0,0,1-.23,0,.67.67,0,0,1-.24,0,.59.59,0,0,1-.19-.13.52.52,0,0,1-.12-.19A.6.6,0,0,1,117,139.37Zm2.27,0a.59.59,0,0,1,0-.23.62.62,0,0,1,.12-.19.5.5,0,0,1,.19-.13.64.64,0,0,1,.24,0,.59.59,0,0,1,.23,0,.43.43,0,0,1,.19.13.5.5,0,0,1,.13.19.46.46,0,0,1,0,.23.47.47,0,0,1,0,.24.62.62,0,0,1-.32.32.59.59,0,0,1-.23,0,.64.64,0,0,1-.24,0,.5.5,0,0,1-.19-.13.52.52,0,0,1-.12-.19A.6.6,0,0,1,119.22,139.37Z"/>
          <path d="M52.56,182.59h-.93v-6.87h.93Zm2.29-4.15a2,2,0,0,1,.33-.32,2.26,2.26,0,0,1,.38-.25,1.92,1.92,0,0,1,.42-.16,1.86,1.86,0,0,1,.48-.06,1.76,1.76,0,0,1,.71.14,1.34,1.34,0,0,1,.5.37,1.64,1.64,0,0,1,.32.58,2.59,2.59,0,0,1,.1.76v3.09h-.86V179.5a1.32,1.32,0,0,0-.25-.86.94.94,0,0,0-.76-.3,1.51,1.51,0,0,0-.72.18,2.69,2.69,0,0,0-.6.49v3.58H54v-4.86h.51a.21.21,0,0,1,.23.18Zm5.4,3a1.44,1.44,0,0,0,.52.45,1.38,1.38,0,0,0,.62.13,1.23,1.23,0,0,0,1-.49,2.27,2.27,0,0,0,.36-1.38,3.69,3.69,0,0,0-.08-.81,1.72,1.72,0,0,0-.24-.56.91.91,0,0,0-.39-.32,1.29,1.29,0,0,0-.53-.1,1.37,1.37,0,0,0-.73.19,2.25,2.25,0,0,0-.58.54Zm0-2.93a2.29,2.29,0,0,1,.71-.61,1.94,1.94,0,0,1,1.69-.07,1.53,1.53,0,0,1,.58.47,2.35,2.35,0,0,1,.37.78,4.29,4.29,0,0,1,.13,1.07,3.22,3.22,0,0,1-.15,1,2.23,2.23,0,0,1-.42.81,2,2,0,0,1-.66.53,1.93,1.93,0,0,1-.88.19,1.66,1.66,0,0,1-1.33-.57v2.15h-.86v-6.51h.52a.21.21,0,0,1,.22.18Zm8.56-.76v4.86h-.51a.23.23,0,0,1-.23-.17l-.06-.53a2.55,2.55,0,0,1-.71.57,1.94,1.94,0,0,1-.91.21,1.71,1.71,0,0,1-.7-.13,1.46,1.46,0,0,1-.51-.37,1.62,1.62,0,0,1-.31-.58,2.59,2.59,0,0,1-.1-.76v-3.1h.85v3.1a1.3,1.3,0,0,0,.25.86,1,1,0,0,0,.77.3,1.44,1.44,0,0,0,.71-.18,2.35,2.35,0,0,0,.61-.5v-3.58Zm2.85,4.94a1.21,1.21,0,0,1-.89-.32,1.32,1.32,0,0,1-.3-.93v-3h-.59a.21.21,0,0,1-.13,0,.2.2,0,0,1,0-.14v-.34l.79-.1.2-1.5a.23.23,0,0,1,.06-.12.22.22,0,0,1,.14,0h.43v1.68h1.41v.62H71.28v2.92a.61.61,0,0,0,.15.45.52.52,0,0,0,.38.15.75.75,0,0,0,.23,0l.18-.09.12-.07a.12.12,0,0,1,.09,0,.17.17,0,0,1,.12.08l.25.41a1.63,1.63,0,0,1-.54.33A2,2,0,0,1,71.62,182.67ZM80,177.73,77.26,184a.33.33,0,0,1-.11.15.25.25,0,0,1-.19.06h-.64l.89-1.93-2-4.58h.73a.24.24,0,0,1,.18.06.27.27,0,0,1,.09.12l1.3,3.06c0,.14.09.28.13.42a4.13,4.13,0,0,1,.14-.42l1.27-3.06a.28.28,0,0,1,.09-.13.3.3,0,0,1,.16-.05Zm2.67-.08a2.42,2.42,0,0,1,1,.18,2.09,2.09,0,0,1,.73.51,2.2,2.2,0,0,1,.46.79,3.05,3.05,0,0,1,.16,1,3.11,3.11,0,0,1-.16,1,2.24,2.24,0,0,1-.46.78,2.09,2.09,0,0,1-.73.51,2.61,2.61,0,0,1-1,.17,2.7,2.7,0,0,1-1-.17,2.11,2.11,0,0,1-1.19-1.29,3.11,3.11,0,0,1-.16-1,3.05,3.05,0,0,1,.16-1,2.06,2.06,0,0,1,.46-.79,2.09,2.09,0,0,1,.73-.51A2.5,2.5,0,0,1,82.65,177.65Zm0,4.34a1.26,1.26,0,0,0,1.08-.48,2.27,2.27,0,0,0,.35-1.34,2.32,2.32,0,0,0-.35-1.36,1.26,1.26,0,0,0-1.08-.48,1.59,1.59,0,0,0-.64.12,1.13,1.13,0,0,0-.45.36,1.64,1.64,0,0,0-.27.58,3.12,3.12,0,0,0-.08.78,2.2,2.2,0,0,0,.35,1.34A1.27,1.27,0,0,0,82.65,182Zm7.4-4.26v4.86h-.51a.22.22,0,0,1-.23-.17l-.07-.53a2.55,2.55,0,0,1-.71.57,1.87,1.87,0,0,1-.9.21,1.76,1.76,0,0,1-.71-.13,1.46,1.46,0,0,1-.51-.37,1.62,1.62,0,0,1-.31-.58,2.59,2.59,0,0,1-.1-.76v-3.1h.85v3.1a1.35,1.35,0,0,0,.25.86,1,1,0,0,0,.78.3,1.43,1.43,0,0,0,.7-.18,2.2,2.2,0,0,0,.61-.5v-3.58Zm2.16,1a2.08,2.08,0,0,1,.57-.78,1.22,1.22,0,0,1,.82-.28,1.36,1.36,0,0,1,.29,0,1,1,0,0,1,.26.1l-.07.64a.13.13,0,0,1-.14.12l-.2,0a1.28,1.28,0,0,0-.29,0,1.31,1.31,0,0,0-.41.06,1,1,0,0,0-.32.2,1.46,1.46,0,0,0-.26.33,3.62,3.62,0,0,0-.2.44v3.07H91.4v-4.86h.49a.29.29,0,0,1,.19.05.3.3,0,0,1,.07.19Zm4.94,3.88v-4.86h.51a.22.22,0,0,1,.23.18l.06.5a2.53,2.53,0,0,1,.6-.54,1.48,1.48,0,0,1,.78-.22,1.14,1.14,0,0,1,.79.28,1.42,1.42,0,0,1,.44.74,1.86,1.86,0,0,1,.27-.46,1.9,1.9,0,0,1,.38-.32,1.78,1.78,0,0,1,.43-.18,2,2,0,0,1,.48-.06,1.79,1.79,0,0,1,.68.13,1.41,1.41,0,0,1,.51.35,1.6,1.6,0,0,1,.32.59,2.3,2.3,0,0,1,.11.78v3.09h-.86V179.5a1.31,1.31,0,0,0-.25-.87.89.89,0,0,0-.72-.29,1.09,1.09,0,0,0-.4.07,1,1,0,0,0-.33.22,1.11,1.11,0,0,0-.23.36,1.37,1.37,0,0,0-.08.51v3.09H100V179.5a1.38,1.38,0,0,0-.24-.88.81.81,0,0,0-.68-.28,1,1,0,0,0-.59.17A1.76,1.76,0,0,0,98,179v3.62Zm11.15-3a1.53,1.53,0,0,0-.09-.54,1.22,1.22,0,0,0-.25-.43,1.08,1.08,0,0,0-.38-.28,1.47,1.47,0,0,0-.53-.1,1.31,1.31,0,0,0-1,.36,1.63,1.63,0,0,0-.44,1Zm.69,2.28a2.05,2.05,0,0,1-.38.34,2.65,2.65,0,0,1-.48.23,2.83,2.83,0,0,1-.52.13,2.38,2.38,0,0,1-.53,0,2.33,2.33,0,0,1-.93-.17,1.94,1.94,0,0,1-.73-.5,2.18,2.18,0,0,1-.48-.81,3.25,3.25,0,0,1-.18-1.12,2.75,2.75,0,0,1,.16-.95,2.16,2.16,0,0,1,.45-.76,1.93,1.93,0,0,1,.71-.51,2.4,2.4,0,0,1,1-.19,2.16,2.16,0,0,1,.81.15,1.76,1.76,0,0,1,.64.43,1.88,1.88,0,0,1,.43.68,2.61,2.61,0,0,1,.15.92.58.58,0,0,1,0,.27.19.19,0,0,1-.16.07h-3.25a3.13,3.13,0,0,0,.12.8,1.76,1.76,0,0,0,.32.57,1.27,1.27,0,0,0,.48.34,1.71,1.71,0,0,0,.62.11,1.75,1.75,0,0,0,.55-.07,2.31,2.31,0,0,0,.41-.17l.28-.15a.3.3,0,0,1,.19-.08.21.21,0,0,1,.17.08Zm4-3.38a.18.18,0,0,1-.17.11.41.41,0,0,1-.17,0l-.22-.12-.31-.12a1.46,1.46,0,0,0-.44-.06,1.12,1.12,0,0,0-.38.06,1.05,1.05,0,0,0-.3.15.71.71,0,0,0-.19.23.6.6,0,0,0-.06.27.46.46,0,0,0,.1.31,1.11,1.11,0,0,0,.29.22,2.7,2.7,0,0,0,.41.16l.46.15.46.17a1.93,1.93,0,0,1,.4.24,1.12,1.12,0,0,1,.29.36,1.06,1.06,0,0,1,.11.5,1.59,1.59,0,0,1-.12.62,1.33,1.33,0,0,1-.36.49,1.68,1.68,0,0,1-.57.33,2.39,2.39,0,0,1-.79.12,2.43,2.43,0,0,1-.92-.16,2.3,2.3,0,0,1-.7-.43l.2-.33a.26.26,0,0,1,.09-.09.28.28,0,0,1,.13,0,.4.4,0,0,1,.19.07,1.53,1.53,0,0,0,.23.15l.33.15a1.7,1.7,0,0,0,.49.07,1.16,1.16,0,0,0,.44-.07.92.92,0,0,0,.31-.17.56.56,0,0,0,.18-.26.64.64,0,0,0,.07-.31.52.52,0,0,0-.11-.33.82.82,0,0,0-.29-.22,2.09,2.09,0,0,0-.4-.17l-.47-.14-.47-.18a1.5,1.5,0,0,1-.4-.25,1.28,1.28,0,0,1-.29-.36,1.25,1.25,0,0,1-.1-.53,1.41,1.41,0,0,1,.11-.54,1.34,1.34,0,0,1,.34-.45,1.78,1.78,0,0,1,.54-.31,2.13,2.13,0,0,1,.74-.12,2.26,2.26,0,0,1,.85.16,2.15,2.15,0,0,1,.67.41Zm4.16,0a.2.2,0,0,1-.18.11.37.37,0,0,1-.16,0l-.23-.12-.31-.12a1.4,1.4,0,0,0-.43-.06,1.14,1.14,0,0,0-.39.06,1.05,1.05,0,0,0-.3.15.71.71,0,0,0-.19.23.6.6,0,0,0-.06.27.47.47,0,0,0,.11.31,1,1,0,0,0,.29.22,2.56,2.56,0,0,0,.4.16l.46.15.46.17a2,2,0,0,1,.41.24,1.09,1.09,0,0,1,.28.36,1.06,1.06,0,0,1,.11.5,1.59,1.59,0,0,1-.12.62,1.42,1.42,0,0,1-.35.49,1.72,1.72,0,0,1-.58.33,2.39,2.39,0,0,1-.79.12,2.47,2.47,0,0,1-.92-.16,2.43,2.43,0,0,1-.7-.43l.2-.33.09-.09a.29.29,0,0,1,.14,0,.34.34,0,0,1,.18.07,1.53,1.53,0,0,0,.23.15,2.84,2.84,0,0,0,.34.15,1.64,1.64,0,0,0,.49.07A1.14,1.14,0,0,0,116,182a1,1,0,0,0,.32-.17.76.76,0,0,0,.18-.26.78.78,0,0,0,.06-.31.52.52,0,0,0-.11-.33.88.88,0,0,0-.28-.22,2.19,2.19,0,0,0-.41-.17l-.47-.14c-.15-.06-.31-.11-.46-.18a1.55,1.55,0,0,1-.41-.25,1.23,1.23,0,0,1-.27-1.43,1.19,1.19,0,0,1,.33-.45,1.78,1.78,0,0,1,.54-.31,2.13,2.13,0,0,1,.74-.12,2.35,2.35,0,0,1,.86.16,2.23,2.23,0,0,1,.66.41Zm4,1.88a6.6,6.6,0,0,0-1,.09,3,3,0,0,0-.68.19,1,1,0,0,0-.38.29.6.6,0,0,0-.12.36.81.81,0,0,0,.07.33.5.5,0,0,0,.17.23.66.66,0,0,0,.25.13,1.08,1.08,0,0,0,.32,0,1.78,1.78,0,0,0,.41,0,1.51,1.51,0,0,0,.35-.14,1.55,1.55,0,0,0,.32-.2,1.9,1.9,0,0,0,.29-.28Zm-2.76-2a2.82,2.82,0,0,1,.87-.58,2.66,2.66,0,0,1,1-.19,1.83,1.83,0,0,1,.73.13,1.45,1.45,0,0,1,.53.37,1.51,1.51,0,0,1,.33.58,2.56,2.56,0,0,1,.11.75v3.11h-.38a.47.47,0,0,1-.19,0,.32.32,0,0,1-.11-.17l-.09-.46c-.13.12-.26.23-.38.32a3,3,0,0,1-.38.23,2.16,2.16,0,0,1-.43.14,2.59,2.59,0,0,1-.51,0,1.55,1.55,0,0,1-.53-.08,1.18,1.18,0,0,1-.44-.24,1.05,1.05,0,0,1-.29-.39,1.5,1.5,0,0,1-.11-.58,1.1,1.1,0,0,1,.16-.55,1.43,1.43,0,0,1,.52-.48,3,3,0,0,1,.92-.33,7.41,7.41,0,0,1,1.4-.16v-.38a1.31,1.31,0,0,0-.24-.85.86.86,0,0,0-.72-.29,1.41,1.41,0,0,0-.53.08,1.82,1.82,0,0,0-.37.18l-.27.17a.37.37,0,0,1-.22.08.24.24,0,0,1-.15,0,.58.58,0,0,1-.1-.12Zm6.6,1.8a1.52,1.52,0,0,0,.45-.07.93.93,0,0,0,.33-.21.69.69,0,0,0,.2-.3,1.05,1.05,0,0,0,.07-.4.93.93,0,0,0-.27-.71,1.06,1.06,0,0,0-.78-.27,1.11,1.11,0,0,0-.8.27.93.93,0,0,0-.27.71,1.29,1.29,0,0,0,.07.4.81.81,0,0,0,.21.3.93.93,0,0,0,.33.21A1.53,1.53,0,0,0,124.89,180.22Zm1.54,2.64a.44.44,0,0,0-.1-.29.7.7,0,0,0-.28-.17,1.87,1.87,0,0,0-.39-.09l-.48,0-.51,0-.5-.05a1.22,1.22,0,0,0-.44.32.64.64,0,0,0-.17.44.61.61,0,0,0,.08.3.78.78,0,0,0,.26.25,1.54,1.54,0,0,0,.43.16,3.23,3.23,0,0,0,1.24,0,1.38,1.38,0,0,0,.46-.18.88.88,0,0,0,.3-.27A.71.71,0,0,0,126.43,182.86Zm.87-4.94v.32c0,.11-.07.17-.21.2l-.55.07a1.53,1.53,0,0,1,.16.7,1.51,1.51,0,0,1-.13.65,1.55,1.55,0,0,1-.38.5,1.74,1.74,0,0,1-.57.31,2.19,2.19,0,0,1-.73.11,2.27,2.27,0,0,1-.65-.08,1,1,0,0,0-.23.21.32.32,0,0,0-.08.22.29.29,0,0,0,.13.26,1,1,0,0,0,.38.12,2.7,2.7,0,0,0,.52.05l.61,0a3.79,3.79,0,0,1,.6.07,1.65,1.65,0,0,1,.53.17,1,1,0,0,1,.37.33.92.92,0,0,1,.14.55,1.27,1.27,0,0,1-.15.6,1.71,1.71,0,0,1-.45.52,2.23,2.23,0,0,1-.72.37,3.13,3.13,0,0,1-1,.14,3.71,3.71,0,0,1-.93-.11,2.22,2.22,0,0,1-.66-.28,1.22,1.22,0,0,1-.4-.42,1,1,0,0,1-.13-.48.89.89,0,0,1,.23-.61,1.48,1.48,0,0,1,.62-.4.93.93,0,0,1-.35-.25.74.74,0,0,1-.12-.44.89.89,0,0,1,0-.22,1.19,1.19,0,0,1,.12-.22,1,1,0,0,1,.2-.22,1.14,1.14,0,0,1,.27-.17,1.64,1.64,0,0,1-.57-.54,1.58,1.58,0,0,1-.06-1.42,1.41,1.41,0,0,1,.38-.49,1.64,1.64,0,0,1,.58-.32,2.56,2.56,0,0,1,.75-.11,2.27,2.27,0,0,1,.59.07,2.18,2.18,0,0,1,.5.2Zm4.06,1.71a1.53,1.53,0,0,0-.09-.54,1.07,1.07,0,0,0-.24-.43,1.21,1.21,0,0,0-.39-.28,1.47,1.47,0,0,0-.53-.1,1.31,1.31,0,0,0-1,.36,1.68,1.68,0,0,0-.44,1Zm.69,2.28a1.78,1.78,0,0,1-.38.34,2.65,2.65,0,0,1-.48.23,2.72,2.72,0,0,1-.51.13,2.47,2.47,0,0,1-.54,0,2.4,2.4,0,0,1-.93-.17,2,2,0,0,1-.73-.5,2.18,2.18,0,0,1-.48-.81,3.25,3.25,0,0,1-.18-1.12,3,3,0,0,1,.16-.95,2.16,2.16,0,0,1,.45-.76,1.93,1.93,0,0,1,.71-.51,2.45,2.45,0,0,1,1-.19,2.07,2.07,0,0,1,.8.15,1.68,1.68,0,0,1,.64.43,1.76,1.76,0,0,1,.43.68,2.6,2.6,0,0,1,.16.92.56.56,0,0,1,0,.27.19.19,0,0,1-.16.07h-3.25a3.13,3.13,0,0,0,.12.8,2,2,0,0,0,.32.57,1.45,1.45,0,0,0,.48.34,1.77,1.77,0,0,0,.63.11,1.84,1.84,0,0,0,.55-.07,2.53,2.53,0,0,0,.4-.17l.28-.15a.32.32,0,0,1,.2-.08.19.19,0,0,1,.16.08Zm1,.16a.86.86,0,0,1,0-.24.91.91,0,0,1,.13-.19.5.5,0,0,1,.19-.13.6.6,0,0,1,.24,0,.59.59,0,0,1,.23,0,.43.43,0,0,1,.19.13.5.5,0,0,1,.13.19.47.47,0,0,1,0,.24.52.52,0,0,1,0,.24.46.46,0,0,1-.13.18.43.43,0,0,1-.19.13.59.59,0,0,1-.23,0,.6.6,0,0,1-.24,0,.5.5,0,0,1-.19-.13.83.83,0,0,1-.13-.18A1,1,0,0,1,133,182.07Zm2.27,0a.61.61,0,0,1,0-.24.91.91,0,0,1,.13-.19.5.5,0,0,1,.19-.13.6.6,0,0,1,.24,0,.59.59,0,0,1,.23,0,.62.62,0,0,1,.32.32.6.6,0,0,1,.05.24.69.69,0,0,1-.05.24.46.46,0,0,1-.13.18.5.5,0,0,1-.19.13.59.59,0,0,1-.23,0,.6.6,0,0,1-.24,0,.5.5,0,0,1-.19-.13.83.83,0,0,1-.13-.18A.67.67,0,0,1,135.3,182.07Zm2.27,0a.61.61,0,0,1,0-.24.64.64,0,0,1,.13-.19.5.5,0,0,1,.19-.13.59.59,0,0,1,.23,0,.6.6,0,0,1,.24,0,.62.62,0,0,1,.32.32.6.6,0,0,1,.05.24.69.69,0,0,1-.05.24.46.46,0,0,1-.13.18.5.5,0,0,1-.19.13.6.6,0,0,1-.24,0,.59.59,0,0,1-.23,0,.5.5,0,0,1-.19-.13.59.59,0,0,1-.13-.18A.67.67,0,0,1,137.57,182.07Z"/>
          <path class="cls-6" d="M47.16,115.92h.47a1.77,1.77,0,0,0,1-.23A.81.81,0,0,0,49,115a.75.75,0,0,0-.34-.7,2.08,2.08,0,0,0-1-.2h-.44Zm0,1.18v2.63H45.71v-6.85h2a3.43,3.43,0,0,1,2.07.51,1.79,1.79,0,0,1,.67,1.54,1.86,1.86,0,0,1-.33,1.08,2.21,2.21,0,0,1-1,.73l2,3H49.57l-1.64-2.63Zm6.94-1.69a.88.88,0,0,0-.71.29,1.36,1.36,0,0,0-.3.81h2a1.18,1.18,0,0,0-.28-.81A.91.91,0,0,0,54.1,115.41Zm.2,4.41a2.71,2.71,0,0,1-2-.7,2.64,2.64,0,0,1-.71-2,2.91,2.91,0,0,1,.66-2,2.35,2.35,0,0,1,1.82-.72,2.31,2.31,0,0,1,1.73.63,2.43,2.43,0,0,1,.62,1.75v.7H53.06a1.43,1.43,0,0,0,.36,1,1.27,1.27,0,0,0,.95.34,3.68,3.68,0,0,0,.89-.1,4.22,4.22,0,0,0,.88-.31v1.1a3,3,0,0,1-.8.28A5.09,5.09,0,0,1,54.3,119.82Zm6.63-.09-.28-.71h0a2.14,2.14,0,0,1-.75.63,2.32,2.32,0,0,1-1,.17,1.6,1.6,0,0,1-1.19-.43,1.65,1.65,0,0,1-.43-1.23,1.36,1.36,0,0,1,.58-1.22,3.24,3.24,0,0,1,1.76-.44l.91,0v-.23a.72.72,0,0,0-.82-.8,3.72,3.72,0,0,0-1.47.38l-.48-1a4.35,4.35,0,0,1,2-.47,2.5,2.5,0,0,1,1.62.46,1.72,1.72,0,0,1,.56,1.4v3.49Zm-.42-2.43-.55,0a1.71,1.71,0,0,0-.93.23.68.68,0,0,0-.31.62c0,.41.23.61.7.61a1.1,1.1,0,0,0,.79-.29,1,1,0,0,0,.3-.76Zm6.55.87a1.45,1.45,0,0,1-.56,1.23,2.76,2.76,0,0,1-1.67.42,4.61,4.61,0,0,1-1-.08,3.45,3.45,0,0,1-.75-.22v-1.18a4.87,4.87,0,0,0,.89.31,3.46,3.46,0,0,0,.88.13q.78,0,.78-.45a.35.35,0,0,0-.1-.27,1.11,1.11,0,0,0-.36-.24c-.17-.09-.39-.2-.67-.32a3.9,3.9,0,0,1-.89-.47,1.3,1.3,0,0,1-.42-.49,1.78,1.78,0,0,1-.12-.69,1.26,1.26,0,0,1,.54-1.08,2.66,2.66,0,0,1,1.53-.38,4.48,4.48,0,0,1,1.85.41l-.44,1a7.44,7.44,0,0,0-.73-.27,2.38,2.38,0,0,0-.7-.11c-.42,0-.63.11-.63.34a.38.38,0,0,0,.2.33,4.74,4.74,0,0,0,.89.42,4,4,0,0,1,.9.47,1.52,1.52,0,0,1,.43.49A1.54,1.54,0,0,1,67.06,118.17Zm2.26-1.07a2.23,2.23,0,0,0,.25,1.18.92.92,0,0,0,.83.39.89.89,0,0,0,.82-.39,2.2,2.2,0,0,0,.26-1.18,2.16,2.16,0,0,0-.26-1.17,1.07,1.07,0,0,0-1.65,0A2.17,2.17,0,0,0,69.32,117.1Zm3.62,0a2.82,2.82,0,0,1-.68,2,2.44,2.44,0,0,1-1.88.72,2.75,2.75,0,0,1-1.33-.32,2.21,2.21,0,0,1-.88-1,3.12,3.12,0,0,1-.31-1.44,2.8,2.8,0,0,1,.67-2,2.47,2.47,0,0,1,1.88-.71,2.6,2.6,0,0,1,1.33.33,2.19,2.19,0,0,1,.89.94A3.12,3.12,0,0,1,72.94,117.1Zm6,2.63H77.53v-3.06a1.5,1.5,0,0,0-.2-.85.75.75,0,0,0-.65-.29,1,1,0,0,0-.86.41,2.43,2.43,0,0,0-.27,1.32v2.47H74.12v-5.24h1.09l.2.67h.07a1.53,1.53,0,0,1,.66-.57,2.26,2.26,0,0,1,1-.2,1.81,1.81,0,0,1,1.38.5,2,2,0,0,1,.48,1.42Zm6.86-4.17H84.58v4.17H83.15v-4.17h-.78v-.69l.78-.38v-.39a1.71,1.71,0,0,1,.44-1.3,2,2,0,0,1,1.42-.42,3.78,3.78,0,0,1,1.31.22L86,113.65a2.72,2.72,0,0,0-.8-.13.52.52,0,0,0-.44.18.74.74,0,0,0-.14.46v.33h1.24Zm2,1.54a2.22,2.22,0,0,0,.26,1.18.92.92,0,0,0,.83.39.89.89,0,0,0,.82-.39A2.2,2.2,0,0,0,90,117.1a2.16,2.16,0,0,0-.26-1.17,1.07,1.07,0,0,0-1.65,0A2.16,2.16,0,0,0,87.78,117.1Zm3.63,0a2.82,2.82,0,0,1-.68,2,2.44,2.44,0,0,1-1.88.72,2.75,2.75,0,0,1-1.33-.32,2.21,2.21,0,0,1-.88-1,3.12,3.12,0,0,1-.31-1.44,2.8,2.8,0,0,1,.67-2,2.46,2.46,0,0,1,1.88-.71,2.62,2.62,0,0,1,1.33.33,2.19,2.19,0,0,1,.89.94A3.12,3.12,0,0,1,91.41,117.1Zm4.1-2.71a2.25,2.25,0,0,1,.49,0l-.11,1.34a1.76,1.76,0,0,0-.42,0,1.5,1.5,0,0,0-1.07.35,1.27,1.27,0,0,0-.38,1v2.67H92.59v-5.24h1.08l.21.88H94a2,2,0,0,1,.66-.71A1.63,1.63,0,0,1,95.51,114.39Zm6.1,1a.88.88,0,0,0-.71.29,1.29,1.29,0,0,0-.29.81h2a1.18,1.18,0,0,0-.27-.81A.92.92,0,0,0,101.61,115.41Zm.2,4.41a2.67,2.67,0,0,1-2-.7,2.61,2.61,0,0,1-.72-2,2.91,2.91,0,0,1,.66-2,2.35,2.35,0,0,1,1.82-.72,2.31,2.31,0,0,1,1.73.63,2.39,2.39,0,0,1,.62,1.75v.7h-3.38a1.43,1.43,0,0,0,.36,1,1.27,1.27,0,0,0,.95.34,3.76,3.76,0,0,0,.9-.1,4.43,4.43,0,0,0,.88-.31v1.1a3.17,3.17,0,0,1-.8.28A5.26,5.26,0,0,1,101.81,119.82Zm8.14-.09h-1.43v-3.06a1.42,1.42,0,0,0-.2-.85.73.73,0,0,0-.64-.29,1,1,0,0,0-.87.41,2.43,2.43,0,0,0-.27,1.32v2.47h-1.43v-5.24h1.1l.19.67h.08a1.53,1.53,0,0,1,.66-.57,2.24,2.24,0,0,1,1-.2,1.85,1.85,0,0,1,1.39.5,2,2,0,0,1,.47,1.42Zm3.64-1a1,1,0,0,0,.8-.31,1.88,1.88,0,0,0,.28-1.09v-.17a2.17,2.17,0,0,0-.26-1.21,1,1,0,0,0-.84-.37c-.67,0-1,.53-1,1.59a2.26,2.26,0,0,0,.25,1.17A.87.87,0,0,0,113.59,118.7Zm-.51,1.12a1.68,1.68,0,0,1-1.45-.71,4.07,4.07,0,0,1,0-4,1.74,1.74,0,0,1,1.47-.72,1.86,1.86,0,0,1,.87.19,1.78,1.78,0,0,1,.65.58h0l.12-.67H116V122h-1.43v-2.2a7,7,0,0,1,.06-.79h-.06a1.54,1.54,0,0,1-.61.58A1.9,1.9,0,0,1,113.08,119.82Zm8.13-.09-.19-.67h-.08a1.58,1.58,0,0,1-.65.57,2.25,2.25,0,0,1-1,.19,1.83,1.83,0,0,1-1.39-.49,2,2,0,0,1-.47-1.42v-3.42h1.43v3.06a1.5,1.5,0,0,0,.2.85.74.74,0,0,0,.64.28,1,1,0,0,0,.87-.39,2.51,2.51,0,0,0,.27-1.34v-2.46h1.43v5.24Zm2.54-6.6q0-.69.78-.69c.51,0,.77.23.77.69a.67.67,0,0,1-.19.52.78.78,0,0,1-.58.19C124,113.84,123.75,113.6,123.75,113.13Zm1.49,6.6h-1.43v-5.24h1.43Zm4.43-5.34a2.21,2.21,0,0,1,.48,0l-.11,1.34a1.66,1.66,0,0,0-.42,0,1.5,1.5,0,0,0-1.07.35,1.27,1.27,0,0,0-.38,1v2.67h-1.43v-5.24h1.09l.21.88h.07a2,2,0,0,1,.65-.71A1.64,1.64,0,0,1,129.67,114.39Zm3.6,1a.88.88,0,0,0-.71.29,1.36,1.36,0,0,0-.3.81h2a1.18,1.18,0,0,0-.28-.81A.89.89,0,0,0,133.27,115.41Zm.2,4.41a2.67,2.67,0,0,1-2-.7,2.61,2.61,0,0,1-.72-2,2.91,2.91,0,0,1,.66-2,2.35,2.35,0,0,1,1.82-.72A2.31,2.31,0,0,1,135,115a2.39,2.39,0,0,1,.62,1.75v.7h-3.38a1.43,1.43,0,0,0,.36,1,1.27,1.27,0,0,0,.95.34,3.62,3.62,0,0,0,.89-.1,4.3,4.3,0,0,0,.89-.31v1.1a3.1,3.1,0,0,1-.81.28A5.09,5.09,0,0,1,133.47,119.82Zm2.55-5.33h1.57l1,3a4.22,4.22,0,0,1,.17.91h0a3.67,3.67,0,0,1,.2-.91l1-3h1.53l-2.21,5.91a2.63,2.63,0,0,1-.87,1.23,2.22,2.22,0,0,1-1.32.41,3.55,3.55,0,0,1-.73-.08v-1.14a2.47,2.47,0,0,0,.56.06,1,1,0,0,0,.67-.23,1.51,1.51,0,0,0,.44-.7l.09-.26Z"/>
          <path class="cls-6" d="M48.61,162.85,47,157.48h-.05c.06,1.09.09,1.82.09,2.18v3.19H45.71V156h2l1.63,5.24h0L51.05,156h2v6.85H51.68v-3.77c0-.2,0-.73.07-1.59h0l-1.77,5.36Zm8.21-4.32a.91.91,0,0,0-.71.29,1.3,1.3,0,0,0-.3.82h2a1.19,1.19,0,0,0-.28-.82A1,1,0,0,0,56.82,158.53ZM57,163a2.75,2.75,0,0,1-2-.7,2.68,2.68,0,0,1-.71-2,2.87,2.87,0,0,1,.66-2,2.31,2.31,0,0,1,1.82-.73,2.28,2.28,0,0,1,1.73.64,2.39,2.39,0,0,1,.62,1.74v.7H55.78a1.34,1.34,0,0,0,.36.95,1.26,1.26,0,0,0,1,.34,3.68,3.68,0,0,0,.89-.1,4.22,4.22,0,0,0,.88-.31v1.11a3.42,3.42,0,0,1-.8.27A5,5,0,0,1,57,163Zm7-1.65a1.43,1.43,0,0,1-.57,1.22,2.69,2.69,0,0,1-1.67.43,5.26,5.26,0,0,1-1-.08,3.73,3.73,0,0,1-.76-.23v-1.18a4.53,4.53,0,0,0,.9.31,3.35,3.35,0,0,0,.88.13q.78,0,.78-.45a.37.37,0,0,0-.11-.27,1.47,1.47,0,0,0-.35-.24,6.71,6.71,0,0,0-.68-.31,4.63,4.63,0,0,1-.89-.47,1.37,1.37,0,0,1-.41-.5A1.53,1.53,0,0,1,60,159a1.23,1.23,0,0,1,.54-1.08,2.62,2.62,0,0,1,1.54-.39,4.3,4.3,0,0,1,1.84.42l-.43,1a5.77,5.77,0,0,0-.74-.28,2.31,2.31,0,0,0-.69-.11c-.43,0-.64.12-.64.34a.43.43,0,0,0,.2.34,6,6,0,0,0,.9.41,4.47,4.47,0,0,1,.9.47,1.33,1.33,0,0,1,.42.5A1.51,1.51,0,0,1,64,161.3Zm4.77,0a1.44,1.44,0,0,1-.56,1.22,2.72,2.72,0,0,1-1.68.43,5.34,5.34,0,0,1-1-.08,3.73,3.73,0,0,1-.76-.23v-1.18a4.53,4.53,0,0,0,.9.31,3.4,3.4,0,0,0,.88.13q.78,0,.78-.45a.37.37,0,0,0-.11-.27,1.28,1.28,0,0,0-.35-.24,6.71,6.71,0,0,0-.68-.31,4.63,4.63,0,0,1-.89-.47,1.48,1.48,0,0,1-.41-.5,1.68,1.68,0,0,1-.13-.68,1.23,1.23,0,0,1,.54-1.08,2.64,2.64,0,0,1,1.54-.39,4.26,4.26,0,0,1,1.84.42l-.43,1a6.29,6.29,0,0,0-.73-.28,2.43,2.43,0,0,0-.7-.11c-.42,0-.64.12-.64.34a.42.42,0,0,0,.21.34,5.31,5.31,0,0,0,.89.41,4.47,4.47,0,0,1,.9.47,1.33,1.33,0,0,1,.42.5A1.51,1.51,0,0,1,68.75,161.3Zm4.44,1.55-.27-.71h0a2.14,2.14,0,0,1-.75.63,2.31,2.31,0,0,1-1,.18,1.51,1.51,0,0,1-1.62-1.66,1.37,1.37,0,0,1,.58-1.23,3.36,3.36,0,0,1,1.76-.44l.91,0v-.23a.71.71,0,0,0-.81-.8,3.76,3.76,0,0,0-1.48.38L70,158a4.19,4.19,0,0,1,2-.48,2.56,2.56,0,0,1,1.62.46,1.73,1.73,0,0,1,.56,1.4v3.49Zm-.42-2.43-.55,0a1.8,1.8,0,0,0-.93.23.71.71,0,0,0-.31.63c0,.4.24.6.7.6a1.06,1.06,0,0,0,.79-.29,1,1,0,0,0,.3-.75Zm7.46-2.81v.73l-.82.21a1.43,1.43,0,0,1,.22.79,1.56,1.56,0,0,1-.59,1.31,2.49,2.49,0,0,1-1.63.47h-.26l-.21,0a.48.48,0,0,0-.22.37c0,.21.26.31.79.31h.89a2,2,0,0,1,1.31.37,1.31,1.31,0,0,1,.46,1.09,1.62,1.62,0,0,1-.77,1.42,4,4,0,0,1-2.2.51,3,3,0,0,1-1.68-.39,1.2,1.2,0,0,1-.57-1.06,1.13,1.13,0,0,1,.29-.8,1.71,1.71,0,0,1,.87-.45,1,1,0,0,1-.39-.31.71.71,0,0,1-.16-.45.76.76,0,0,1,.17-.5,2.41,2.41,0,0,1,.5-.39,1.43,1.43,0,0,1-.65-.57,1.79,1.79,0,0,1-.24-.93A1.65,1.65,0,0,1,75.9,158a2.41,2.41,0,0,1,1.59-.47,3.61,3.61,0,0,1,.52.05l.39.05Zm-4,6a.55.55,0,0,0,.28.47,1.64,1.64,0,0,0,.8.17,2.7,2.7,0,0,0,1.21-.22.63.63,0,0,0,.43-.57.4.4,0,0,0-.26-.41,2.18,2.18,0,0,0-.79-.11h-.74a1.12,1.12,0,0,0-.66.18A.58.58,0,0,0,76.18,163.59Zm.52-4.26a1,1,0,0,0,.2.67.7.7,0,0,0,.59.25.67.67,0,0,0,.59-.25,1,1,0,0,0,.19-.67c0-.63-.26-1-.78-1S76.7,158.7,76.7,159.33Zm6.57-.8a.93.93,0,0,0-.72.29,1.3,1.3,0,0,0-.29.82h2a1.14,1.14,0,0,0-.27-.82A1,1,0,0,0,83.27,158.53Zm.2,4.42a2.72,2.72,0,0,1-2-.7,2.64,2.64,0,0,1-.71-2,2.91,2.91,0,0,1,.65-2,2.33,2.33,0,0,1,1.83-.73,2.29,2.29,0,0,1,1.73.64,2.39,2.39,0,0,1,.62,1.74v.7H82.23a1.34,1.34,0,0,0,.36.95,1.25,1.25,0,0,0,.94.34,3.71,3.71,0,0,0,.9-.1,4.43,4.43,0,0,0,.88-.31v1.11a3.59,3.59,0,0,1-.8.27A5.09,5.09,0,0,1,83.47,163Z"/>
          <path class="cls-9" d="M191,140.91a1.18,1.18,0,0,1-1.57,0l-5-4.62a1,1,0,0,1,.78-1.75h10a1,1,0,0,1,.78,1.75Z"/>
        </g>
      </g>
    </g>
  </g>
</svg>
