<svg xmlns="http://www.w3.org/2000/svg" viewBox="0 0 250 250">
  <defs>
    <style>
      .cls-1, .cls-10, .cls-4 {
        fill: none;
      }

      .cls-1 {
        stroke: #4d4d4d;
        stroke-width: 6px;
      }

      .cls-1, .cls-4 {
        stroke-miterlimit: 10;
      }

      .cls-2 {
        fill: #231f20;
      }

      .cls-3 {
        fill: #e6e6e6;
      }

      .cls-4 {
        stroke: #c3c3c3;
        stroke-linecap: round;
        stroke-width: 2px;
      }

      .cls-5 {
        fill: #c3c3c3;
      }

      .cls-6 {
        fill: #eff3f6;
      }

      .cls-7 {
        fill: #34404c;
      }

      .cls-8 {
        fill: #e0e9ef;
      }

      .cls-9 {
        fill: #293541;
      }

      .cls-10 {
        stroke: #ed3825;
      }

      .cls-11 {
        fill: #ed3825;
      }

      .cls-12 {
        fill: #e3e5ed;
      }

      .cls-13 {
        fill: #ecedf2;
      }
    </style>
  </defs>
  <title>about-img</title>
  <g id="Layer_40" data-name="Layer 40">
    <rect class="cls-1" x="14" y="15" width="222" height="458" rx="30.03" ry="30.03"/>
    <rect class="cls-2" x="14" y="15" width="222" height="458" rx="30.03" ry="30.03"/>
    <rect class="cls-3" x="27" y="69" width="196" height="350"/>
    <line class="cls-4" x1="106" y1="42" x2="144" y2="42"/>
    <circle class="cls-5" cx="90" cy="43" r="2"/>
    <rect class="cls-6" x="27" y="69" width="196.22" height="369"/>
    <rect class="cls-7" x="46.09" y="122.4" width="157.72" height="163.86" rx="2.36" ry="2.36"/>
    <rect class="cls-8" x="59.32" y="146.96" width="131.28" height="20.31" rx="2.36" ry="2.36"/>
    <path class="cls-9" d="M70.07,157.09a3,3,0,0,1-.85,2.29,3.48,3.48,0,0,1-2.46.8H65v-6.07h1.9a3.19,3.19,0,0,1,2.31.79A2.87,2.87,0,0,1,70.07,157.09Zm-1.33,0c0-1.3-.58-2-1.73-2h-.69v4h.56C68.12,159.12,68.74,158.45,68.74,157.12Zm5.44,3.06-.25-.63h0a1.87,1.87,0,0,1-.66.56,2.21,2.21,0,0,1-.88.15,1.42,1.42,0,0,1-1.06-.38,1.49,1.49,0,0,1-.38-1.09,1.2,1.2,0,0,1,.52-1.08,2.87,2.87,0,0,1,1.56-.39l.8,0v-.2a.63.63,0,0,0-.72-.71,3.22,3.22,0,0,0-1.31.34l-.42-.86a3.8,3.8,0,0,1,1.78-.42,2.21,2.21,0,0,1,1.43.41,1.51,1.51,0,0,1,.5,1.24v3.09ZM73.8,158l-.49,0a1.5,1.5,0,0,0-.82.2.61.61,0,0,0-.27.55c0,.36.21.54.62.54a1,1,0,0,0,.7-.26.89.89,0,0,0,.26-.67Zm4.52,1.22a2.64,2.64,0,0,0,.8-.14v.94a2.86,2.86,0,0,1-1.16.21,1.41,1.41,0,0,1-1.11-.38,1.68,1.68,0,0,1-.34-1.15v-2.24H75.9V156l.7-.43.36-1h.81v1h1.3v1h-1.3v2.24a.51.51,0,0,0,.15.4A.63.63,0,0,0,78.32,159.25Zm3.66-2.9a.83.83,0,0,0-.63.26,1.17,1.17,0,0,0-.26.72h1.78a1.06,1.06,0,0,0-.25-.72A.82.82,0,0,0,82,156.35Zm.18,3.91a2.37,2.37,0,0,1-1.75-.62,2.33,2.33,0,0,1-.63-1.75,2.58,2.58,0,0,1,.58-1.8,2.11,2.11,0,0,1,1.62-.64,2.07,2.07,0,0,1,1.53.56,2.15,2.15,0,0,1,.54,1.55v.62h-3a1.23,1.23,0,0,0,.32.84,1.14,1.14,0,0,0,.84.3,3.35,3.35,0,0,0,.79-.09,3.82,3.82,0,0,0,.78-.27v1a2.7,2.7,0,0,1-.71.24A4.09,4.09,0,0,1,82.16,160.26Z"/>
    <path class="cls-6" d="M166,173.22a.82.82,0,0,0-1.26,0l-7.31,8.23H61.68a2.36,2.36,0,0,0-2.36,2.36V310.35a2.36,2.36,0,0,0,2.36,2.36H188.23a2.36,2.36,0,0,0,2.36-2.36V183.81a2.36,2.36,0,0,0-2.36-2.36h-15Z"/>
    <path d="M71.51,214.69a1.53,1.53,0,0,1-.59,1.29,2.52,2.52,0,0,1-1.64.48,3.78,3.78,0,0,1-1.72-.37V214.9a6.52,6.52,0,0,0,1,.38,2.82,2.82,0,0,0,.78.11,1.06,1.06,0,0,0,.64-.16.53.53,0,0,0,.23-.48.48.48,0,0,0-.1-.31.85.85,0,0,0-.29-.27,5.61,5.61,0,0,0-.79-.41,3.79,3.79,0,0,1-.83-.51,1.88,1.88,0,0,1-.45-.56,1.77,1.77,0,0,1,.38-2,2.27,2.27,0,0,1,1.51-.46,3.7,3.7,0,0,1,.9.11,6.11,6.11,0,0,1,.9.32l-.41,1a4.63,4.63,0,0,0-.81-.28,2.64,2.64,0,0,0-.62-.08.85.85,0,0,0-.56.17.55.55,0,0,0-.19.44.48.48,0,0,0,.08.3.8.8,0,0,0,.24.25,7.61,7.61,0,0,0,.82.42,3.25,3.25,0,0,1,1.17.82A1.57,1.57,0,0,1,71.51,214.69Zm4.29,1.68-.17-.59h-.07a1.27,1.27,0,0,1-.57.5,2,2,0,0,1-.85.18A1.64,1.64,0,0,1,72.9,216a1.78,1.78,0,0,1-.41-1.26v-3h1.26v2.71a1.31,1.31,0,0,0,.18.76.65.65,0,0,0,.57.25.87.87,0,0,0,.77-.35,2.19,2.19,0,0,0,.24-1.18v-2.19h1.26v4.64Z"/>
    <path d="M86.47,216.37,85,211.61h0c0,1,.08,1.62.08,1.94v2.82H83.9v-6.06h1.75L87.08,215h0l1.52-4.64h1.75v6.06h-1.2V213.5c0-.13,0-.29,0-.47s0-.64.06-1.41h0l-1.57,4.75Zm6.35-2.32a2,2,0,0,0,.23,1,.82.82,0,0,0,.74.35.78.78,0,0,0,.72-.35,2.47,2.47,0,0,0,0-2.08,1,1,0,0,0-1.46,0A1.91,1.91,0,0,0,92.82,214.05Zm3.21,0a2.54,2.54,0,0,1-.59,1.77,2.21,2.21,0,0,1-1.67.64,2.4,2.4,0,0,1-1.18-.29,2,2,0,0,1-.78-.85,2.83,2.83,0,0,1-.28-1.27,2.46,2.46,0,0,1,.6-1.77,2.17,2.17,0,0,1,1.67-.63,2.26,2.26,0,0,1,1.17.29,1.92,1.92,0,0,1,.79.83A2.84,2.84,0,0,1,96,214.05Z"/>
    <path d="M105.1,216.37h-1.29v-5h-1.65v-1.07h4.58v1.07H105.1Zm5.77,0-.17-.59h-.07a1.35,1.35,0,0,1-.58.5,1.93,1.93,0,0,1-.85.18A1.62,1.62,0,0,1,108,216a1.74,1.74,0,0,1-.42-1.26v-3h1.27v2.71a1.31,1.31,0,0,0,.18.76.65.65,0,0,0,.57.25.85.85,0,0,0,.76-.35,2.19,2.19,0,0,0,.24-1.18v-2.19h1.27v4.64Z"/>
    <path d="M124.77,216.37h-1.46l-.82-3.18c0-.12-.09-.35-.16-.7s-.12-.6-.13-.72a5.79,5.79,0,0,1-.12.72l-.15.71-.82,3.17h-1.46l-1.55-6.06h1.26l.78,3.31c.14.61.23,1.14.3,1.59a7.3,7.3,0,0,1,.11-.73,6.29,6.29,0,0,1,.17-.77l.88-3.4h1.22l.88,3.4q.06.22.15.69c.05.32.1.58.13.81,0-.22.07-.49.13-.81s.12-.58.17-.78l.77-3.31h1.27Zm4.13-3.82a.77.77,0,0,0-.63.26,1.13,1.13,0,0,0-.26.72h1.78a1,1,0,0,0-.25-.72A.8.8,0,0,0,128.9,212.55Zm.18,3.91a2.4,2.4,0,0,1-1.75-.62,2.34,2.34,0,0,1-.63-1.75,2.55,2.55,0,0,1,.58-1.8,2.07,2.07,0,0,1,1.61-.64,2,2,0,0,1,1.53.56,2.1,2.1,0,0,1,.55,1.55v.61h-3a1.19,1.19,0,0,0,.32.84,1.14,1.14,0,0,0,.84.31,3.35,3.35,0,0,0,.79-.09,3.88,3.88,0,0,0,.78-.28v1a2.83,2.83,0,0,1-.71.24A4,4,0,0,1,129.08,216.46Z"/>
    <path d="M140,216.37h-1.29v-5h-1.64v-1.07h4.58v1.07H140Zm6.77,0h-1.27v-2.71c0-.67-.25-1-.75-1a.86.86,0,0,0-.77.36,2.29,2.29,0,0,0-.23,1.17v2.18h-1.27v-6.45h1.27v1.31c0,.1,0,.35,0,.72l0,.38h.07a1.45,1.45,0,0,1,1.34-.68,1.61,1.61,0,0,1,1.24.44,1.75,1.75,0,0,1,.43,1.26Z"/>
    <path d="M157.43,216.37h-1.27v-6.06h3.48v1.05h-2.21v1.57h2.06v1h-2.06Zm5.89-4.72a2.63,2.63,0,0,1,.43,0l-.1,1.19a1.64,1.64,0,0,0-1.32.27,1.15,1.15,0,0,0-.34.87v2.36h-1.26v-4.64h1l.18.78h.07a1.64,1.64,0,0,1,.58-.62A1.42,1.42,0,0,1,163.32,211.65Z"/>
    <path d="M176.57,214.69A1.56,1.56,0,0,1,176,216a2.55,2.55,0,0,1-1.65.48,3.81,3.81,0,0,1-1.72-.37V214.9a6.89,6.89,0,0,0,1,.38,2.92,2.92,0,0,0,.78.11,1.1,1.1,0,0,0,.65-.16.55.55,0,0,0,.23-.48.48.48,0,0,0-.1-.31,1,1,0,0,0-.3-.27,4.81,4.81,0,0,0-.78-.41,3.79,3.79,0,0,1-.83-.51,1.74,1.74,0,0,1-.45-.56,1.77,1.77,0,0,1,.38-2,2.25,2.25,0,0,1,1.51-.46,3.7,3.7,0,0,1,.9.11,6.11,6.11,0,0,1,.9.32l-.41,1a5.26,5.26,0,0,0-.81-.28,2.7,2.7,0,0,0-.62-.08.83.83,0,0,0-.56.17.59.59,0,0,0-.12.74.85.85,0,0,0,.25.25,7.61,7.61,0,0,0,.82.42,3.2,3.2,0,0,1,1.16.82A1.58,1.58,0,0,1,176.57,214.69Zm4,1.68-.25-.63h0a1.77,1.77,0,0,1-.66.56,2,2,0,0,1-.88.16,1.46,1.46,0,0,1-1.06-.38,1.5,1.5,0,0,1-.38-1.09,1.21,1.21,0,0,1,.52-1.09,3.06,3.06,0,0,1,1.56-.39l.8,0v-.21a.63.63,0,0,0-.72-.7,3.35,3.35,0,0,0-1.31.33l-.42-.85a3.8,3.8,0,0,1,1.78-.42,2.16,2.16,0,0,1,1.43.41,1.47,1.47,0,0,1,.5,1.23v3.09Zm-.38-2.15-.49,0a1.59,1.59,0,0,0-.82.2.63.63,0,0,0-.27.56c0,.35.21.53.62.53a1,1,0,0,0,.7-.25.9.9,0,0,0,.26-.67Z"/>
    <rect class="cls-10" x="133.69" y="239.75" width="17" height="17" rx="0.71" ry="0.71"/>
    <path d="M73.39,233.85H72.1v-3.51l0-.58,0-.63-.45.42-.7.56-.61-.77,2-1.56h1.06Z"/>
    <path d="M91.93,233.85H87.69V233l1.52-1.54c.45-.46.75-.78.88-.95a2.13,2.13,0,0,0,.3-.5,1.28,1.28,0,0,0,.09-.48.67.67,0,0,0-.2-.54.76.76,0,0,0-.53-.18,1.66,1.66,0,0,0-.69.16,4.13,4.13,0,0,0-.69.46l-.7-.82a4.26,4.26,0,0,1,.74-.54,2.29,2.29,0,0,1,.65-.24,3.1,3.1,0,0,1,.78-.09,2.26,2.26,0,0,1,1,.21,1.62,1.62,0,0,1,.68.58,1.54,1.54,0,0,1,.24.86,2,2,0,0,1-.15.78,2.76,2.76,0,0,1-.46.75,9.74,9.74,0,0,1-1.09,1.1l-.78.74v.06h2.65Z"/>
    <path d="M109.16,229.14a1.41,1.41,0,0,1-.34,1,1.76,1.76,0,0,1-1,.55v0a2,2,0,0,1,1.11.44,1.24,1.24,0,0,1,.38,1,1.62,1.62,0,0,1-.63,1.36,2.92,2.92,0,0,1-1.82.49,4.37,4.37,0,0,1-1.75-.33v-1.09a3.81,3.81,0,0,0,.78.29,3,3,0,0,0,.84.11,1.64,1.64,0,0,0,.93-.21.79.79,0,0,0,.31-.7.63.63,0,0,0-.35-.6,2.54,2.54,0,0,0-1.11-.18h-.46v-1h.46a2.16,2.16,0,0,0,1-.19.66.66,0,0,0,.33-.63c0-.46-.29-.69-.86-.69a1.9,1.9,0,0,0-.61.1,3.35,3.35,0,0,0-.69.34l-.59-.88a3.27,3.27,0,0,1,2-.6,2.61,2.61,0,0,1,1.49.38A1.24,1.24,0,0,1,109.16,229.14Z"/>
    <path d="M127,232.59h-.73v1.26H125v-1.26h-2.59v-.89l2.66-3.92h1.18v3.81H127Zm-2-1v-1c0-.17,0-.42,0-.74s0-.52,0-.57h0a6.15,6.15,0,0,1-.37.66l-1.12,1.68Z"/>
    <path d="M142.31,230a1.94,1.94,0,0,1,1.4.49,1.77,1.77,0,0,1,.52,1.36,2,2,0,0,1-.62,1.56,2.64,2.64,0,0,1-1.8.55,3.47,3.47,0,0,1-1.63-.33v-1.11a3.09,3.09,0,0,0,.76.29,3.58,3.58,0,0,0,.83.11c.78,0,1.17-.32,1.17-1s-.4-.91-1.21-.91a2.93,2.93,0,0,0-.49,0l-.43.09-.51-.27.23-3.09h3.29v1.09h-2.17l-.11,1.19.14,0A2.8,2.8,0,0,1,142.31,230Z"/>
    <path d="M157.53,231.27a4,4,0,0,1,.76-2.68,2.86,2.86,0,0,1,2.29-.88,4.32,4.32,0,0,1,.81.06v1a3.1,3.1,0,0,0-.73-.09,2.57,2.57,0,0,0-1.08.2,1.32,1.32,0,0,0-.62.59,2.76,2.76,0,0,0-.25,1.11h.06a1.4,1.4,0,0,1,1.31-.71,1.65,1.65,0,0,1,1.28.51,2.07,2.07,0,0,1,.46,1.42,2.16,2.16,0,0,1-.55,1.54,2,2,0,0,1-1.52.56,2.13,2.13,0,0,1-1.17-.31,2.06,2.06,0,0,1-.78-.91A3.49,3.49,0,0,1,157.53,231.27Zm2.19,1.63a.78.78,0,0,0,.64-.27,1.28,1.28,0,0,0,.22-.79,1.08,1.08,0,0,0-.21-.7.75.75,0,0,0-.62-.25,1,1,0,0,0-.67.25.79.79,0,0,0-.27.59,1.32,1.32,0,0,0,.25.83A.81.81,0,0,0,159.72,232.9Z"/>
    <path d="M175.65,233.85l2.28-5h-3v-1.08h4.36v.8l-2.3,5.26Z"/>
    <path d="M72.31,245.17a2.26,2.26,0,0,1,1.4.4,1.24,1.24,0,0,1,.53,1.07,1.42,1.42,0,0,1-.25.83,2.19,2.19,0,0,1-.83.64,2.88,2.88,0,0,1,1,.77,1.39,1.39,0,0,1,.3.87,1.46,1.46,0,0,1-.58,1.2,2.47,2.47,0,0,1-1.54.45,2.59,2.59,0,0,1-1.57-.42,1.4,1.4,0,0,1-.57-1.2,1.54,1.54,0,0,1,.28-.92,2.23,2.23,0,0,1,.88-.71,2.28,2.28,0,0,1-.74-.7,1.59,1.59,0,0,1-.23-.82,1.26,1.26,0,0,1,.54-1.06A2.36,2.36,0,0,1,72.31,245.17Zm-1,4.53a.66.66,0,0,0,.25.56,1.06,1.06,0,0,0,.68.2,1.07,1.07,0,0,0,.71-.2.69.69,0,0,0,.24-.55.74.74,0,0,0-.24-.52,3,3,0,0,0-.76-.52C71.65,249,71.36,249.29,71.36,249.7Zm.94-3.59a.8.8,0,0,0-.53.17.53.53,0,0,0-.2.45.71.71,0,0,0,.16.45,1.73,1.73,0,0,0,.58.4,1.58,1.58,0,0,0,.56-.39.71.71,0,0,0,.17-.46.54.54,0,0,0-.21-.45A.84.84,0,0,0,72.3,246.11Z"/>
    <path d="M91.9,247.84a4.06,4.06,0,0,1-.75,2.68,2.86,2.86,0,0,1-2.29.88,4.22,4.22,0,0,1-.82-.06v-1a3,3,0,0,0,.73.09,2.48,2.48,0,0,0,1.06-.19,1.31,1.31,0,0,0,.64-.59,2.69,2.69,0,0,0,.25-1.12h0a1.4,1.4,0,0,1-.56.55,1.67,1.67,0,0,1-.78.16,1.58,1.58,0,0,1-1.25-.51,2,2,0,0,1-.46-1.41,2.1,2.1,0,0,1,.55-1.54,2,2,0,0,1,1.51-.57,2.19,2.19,0,0,1,1.18.32,2,2,0,0,1,.77.91A3.48,3.48,0,0,1,91.9,247.84Zm-2.19-1.63a.74.74,0,0,0-.62.27,1.24,1.24,0,0,0-.23.79,1.12,1.12,0,0,0,.2.7.76.76,0,0,0,.62.26,1,1,0,0,0,.67-.26.76.76,0,0,0,.28-.59,1.35,1.35,0,0,0-.26-.83A.78.78,0,0,0,89.71,246.21Z"/>
    <path d="M105.9,251.32h-1.28v-4.09l0-.63-.44.42-.7.56-.62-.77,2-1.56h1.05Zm5.89-3a4.23,4.23,0,0,1-.52,2.36,2,2,0,0,1-3.19,0,4.2,4.2,0,0,1-.53-2.33,4.3,4.3,0,0,1,.52-2.36,2,2,0,0,1,3.19,0A4.16,4.16,0,0,1,111.79,248.28Zm-3,0a4.78,4.78,0,0,0,.19,1.61.67.67,0,0,0,.65.48.69.69,0,0,0,.65-.49,4.7,4.7,0,0,0,.2-1.6,4.41,4.41,0,0,0-.21-1.6.67.67,0,0,0-.64-.49.68.68,0,0,0-.65.49A4.75,4.75,0,0,0,108.83,248.28Z"/>
    <path d="M123.37,251.32h-1.28v-4.09l0-.63-.44.42-.7.56-.62-.77,2-1.56h1.05Zm4.86,0H127v-4.09l0-.63-.44.42-.7.56-.62-.77,2-1.56h1Z"/>
    <path class="cls-11" d="M140.85,251.32h-1.29v-3.51l0-.58,0-.63c-.22.21-.36.35-.45.42l-.7.56-.61-.77,1.95-1.56h1.06Zm5.92,0h-4.24v-.89l1.52-1.54c.45-.47.75-.79.89-1a2.13,2.13,0,0,0,.3-.5,1.27,1.27,0,0,0,.09-.47.68.68,0,0,0-.21-.55.76.76,0,0,0-.53-.18,1.56,1.56,0,0,0-.69.17,3.18,3.18,0,0,0-.69.46l-.7-.83a5.08,5.08,0,0,1,.75-.54,3,3,0,0,1,.64-.24,3.1,3.1,0,0,1,.78-.09,2.26,2.26,0,0,1,1,.21,1.53,1.53,0,0,1,.92,1.44,2.09,2.09,0,0,1-.15.79,3,3,0,0,1-.45.75,13.25,13.25,0,0,1-1.09,1.1l-.78.73v.06h2.64Z"/>
    <path d="M158.32,251.32H157v-4.09l0-.63a5.87,5.87,0,0,1-.45.42l-.69.56-.62-.77,1.95-1.56h1.06Zm5.69-4.71a1.4,1.4,0,0,1-.35,1,1.76,1.76,0,0,1-1,.55v0a1.89,1.89,0,0,1,1.11.45,1.23,1.23,0,0,1,.38,1,1.66,1.66,0,0,1-.64,1.37,3,3,0,0,1-1.81.48,4.37,4.37,0,0,1-1.75-.33V250a3.51,3.51,0,0,0,.77.29,3,3,0,0,0,.84.11,1.68,1.68,0,0,0,.94-.21.79.79,0,0,0,.3-.69.62.62,0,0,0-.35-.61,2.54,2.54,0,0,0-1.11-.18h-.46v-1h.47a2.23,2.23,0,0,0,1-.18.68.68,0,0,0,.33-.64q0-.69-.87-.69a1.9,1.9,0,0,0-.61.1,2.94,2.94,0,0,0-.68.35l-.6-.89a3.32,3.32,0,0,1,2-.6,2.51,2.51,0,0,1,1.49.39A1.2,1.2,0,0,1,164,246.61Z"/>
    <path d="M175.79,251.32h-1.28v-4.09l0-.63-.44.42-.7.56-.62-.77,2-1.56h1Zm6.06-1.26h-.73v1.26h-1.25v-1.26h-2.59v-.89l2.66-3.92h1.18v3.81h.73Zm-2-1v-1c0-.18,0-.42,0-.75s0-.52,0-.57h0a4.28,4.28,0,0,1-.37.66l-1.11,1.68Z"/>
    <path d="M98,193a3,3,0,0,1-.86,2.29,3.45,3.45,0,0,1-2.46.8H93V190h1.9a3.19,3.19,0,0,1,2.31.79A2.87,2.87,0,0,1,98,193Zm-1.34,0c0-1.3-.57-1.95-1.72-1.95h-.69V195h.55C96.08,195,96.7,194.34,96.7,193Zm4.42-.77a.8.8,0,0,0-.63.26,1.17,1.17,0,0,0-.26.72H102a1,1,0,0,0-.24-.72A.84.84,0,0,0,101.12,192.24Zm.18,3.91a2.36,2.36,0,0,1-1.75-.62,2.33,2.33,0,0,1-.63-1.75,2.55,2.55,0,0,1,.58-1.8,2.36,2.36,0,0,1,3.14-.08,2.11,2.11,0,0,1,.55,1.55v.61h-3a1.23,1.23,0,0,0,.32.85,1.14,1.14,0,0,0,.84.3,3.35,3.35,0,0,0,.79-.09,3.88,3.88,0,0,0,.78-.28v1a2.85,2.85,0,0,1-.71.25A4.77,4.77,0,0,1,101.3,196.15Zm4.8,0c-1.44,0-2.16-.79-2.16-2.38a2.49,2.49,0,0,1,.59-1.8,2.19,2.19,0,0,1,1.69-.63,3.24,3.24,0,0,1,1.44.32l-.37,1c-.2-.08-.39-.15-.56-.2a1.81,1.81,0,0,0-.51-.08q-1,0-1,1.41c0,.9.33,1.36,1,1.36a2.09,2.09,0,0,0,.67-.1,2.4,2.4,0,0,0,.62-.31v1.09a2,2,0,0,1-.62.27A3.5,3.5,0,0,1,106.1,196.15Zm4.42-3.91a.84.84,0,0,0-.64.26,1.24,1.24,0,0,0-.26.72h1.78a1.06,1.06,0,0,0-.25-.72A.81.81,0,0,0,110.52,192.24Zm.17,3.91a2.37,2.37,0,0,1-1.75-.62,2.33,2.33,0,0,1-.63-1.75,2.59,2.59,0,0,1,.58-1.8,2.37,2.37,0,0,1,3.15-.08,2.16,2.16,0,0,1,.55,1.55v.61h-3a1.28,1.28,0,0,0,.32.85,1.14,1.14,0,0,0,.84.3,3.29,3.29,0,0,0,.79-.09,4.19,4.19,0,0,0,.79-.28v1a3,3,0,0,1-.71.25A4.88,4.88,0,0,1,110.69,196.15Zm7.08-.08H116.5v-2.71a1.26,1.26,0,0,0-.17-.75.57.57,0,0,0-.52-.26.77.77,0,0,0-.71.36,2.43,2.43,0,0,0-.22,1.18v2.18h-1.26v-4.64h1l.17.59h.07a1.37,1.37,0,0,1,.54-.5,1.79,1.79,0,0,1,.81-.18,1.45,1.45,0,0,1,1.41.68h.12a1.25,1.25,0,0,1,.54-.5,1.87,1.87,0,0,1,.83-.18,1.62,1.62,0,0,1,1.19.41,1.77,1.77,0,0,1,.4,1.29v3h-1.27v-2.71a1.26,1.26,0,0,0-.17-.75.57.57,0,0,0-.52-.26.8.8,0,0,0-.7.34,1.9,1.9,0,0,0-.23,1.05Zm6.78-4.73a1.49,1.49,0,0,1,1.28.65,2.91,2.91,0,0,1,.47,1.75,2.88,2.88,0,0,1-.48,1.78,1.68,1.68,0,0,1-2.59,0h-.08l-.22.51h-1v-6.46h1.26v1.5c0,.19,0,.5,0,.92h0A1.48,1.48,0,0,1,124.55,191.34Zm-.41,1a.8.8,0,0,0-.68.29,1.67,1.67,0,0,0-.23,1v.13a2,2,0,0,0,.22,1.07.8.8,0,0,0,.71.33.71.71,0,0,0,.62-.36,2,2,0,0,0,.23-1.05,1.88,1.88,0,0,0-.23-1A.74.74,0,0,0,124.14,192.35Zm5.13-.11a.8.8,0,0,0-.63.26,1.18,1.18,0,0,0-.27.72h1.78a1.06,1.06,0,0,0-.24-.72A.84.84,0,0,0,129.27,192.24Zm.18,3.91a2.38,2.38,0,0,1-1.76-.62,2.33,2.33,0,0,1-.63-1.75,2.59,2.59,0,0,1,.58-1.8,2.37,2.37,0,0,1,3.15-.08,2.11,2.11,0,0,1,.55,1.55v.61h-3a1.23,1.23,0,0,0,.32.85,1.1,1.1,0,0,0,.83.3,3.44,3.44,0,0,0,.8-.09,3.88,3.88,0,0,0,.78-.28v1a2.85,2.85,0,0,1-.71.25A4.77,4.77,0,0,1,129.45,196.15Zm5.51-4.81a1.66,1.66,0,0,1,.42,0l-.09,1.19a1.32,1.32,0,0,0-.37,0,1.35,1.35,0,0,0-.95.32,1.12,1.12,0,0,0-.34.87v2.36h-1.26v-4.64h1l.18.78h.07a1.67,1.67,0,0,1,.58-.63A1.42,1.42,0,0,1,135,191.34Zm7.39,4.73h-4.24v-.89l1.52-1.54c.46-.47.75-.78.89-1a2.13,2.13,0,0,0,.3-.5,1.27,1.27,0,0,0,.09-.47.71.71,0,0,0-.2-.55.8.8,0,0,0-.54-.18,1.56,1.56,0,0,0-.69.17,3.18,3.18,0,0,0-.69.46l-.7-.83a5.08,5.08,0,0,1,.75-.54,3,3,0,0,1,.64-.24,3.1,3.1,0,0,1,.78-.09,2.31,2.31,0,0,1,1,.21,1.59,1.59,0,0,1,.67.58,1.57,1.57,0,0,1,.24.86,2.09,2.09,0,0,1-.15.79,3,3,0,0,1-.45.75,13.25,13.25,0,0,1-1.09,1.1l-.78.73V195h2.64Zm4.83-3a4.21,4.21,0,0,1-.53,2.35,1.79,1.79,0,0,1-1.6.76,1.77,1.77,0,0,1-1.58-.79,4.1,4.1,0,0,1-.54-2.32,4.31,4.31,0,0,1,.52-2.37,2,2,0,0,1,3.19,0A4.17,4.17,0,0,1,147.18,193Zm-3,0a4.75,4.75,0,0,0,.19,1.6.68.68,0,0,0,1.3,0,4.67,4.67,0,0,0,.2-1.59,4.43,4.43,0,0,0-.21-1.61.67.67,0,0,0-.64-.49.68.68,0,0,0-.65.49A4.78,4.78,0,0,0,144.21,193Zm6.78,3h-1.28V192l0-.63-.44.42-.7.56-.62-.77,2-1.56H151Zm2.29,0,2.28-5h-3V190h4.35v.8l-2.29,5.26Z"/>
    <path class="cls-9" d="M175.48,195a1.31,1.31,0,0,0,1-.22l1.9-1.45a.69.69,0,0,0,0-1.15l-1.9-1.45a1.27,1.27,0,0,0-1-.22Z"/>
    <path class="cls-9" d="M74,190.41v4.71a1.27,1.27,0,0,1-1-.22l-2-1.56a.69.69,0,0,1,0-1.15l2-1.56A1.23,1.23,0,0,1,74,190.41Z"/>
    <path class="cls-9" d="M184.45,158.66a1.05,1.05,0,0,1-1.39,0l-1.65-1.52a.9.9,0,0,1,.69-1.55h3.3a.9.9,0,0,1,.7,1.55Z"/>
    <path class="cls-9" d="M203.81,132.79H46.09V116.26a2.36,2.36,0,0,1,2.36-2.36h153a2.36,2.36,0,0,1,2.36,2.36Z"/>
    <path class="cls-6" d="M91.09,127.6l-.59-1.93h-3L87,127.6H85.11L88,119.47h2.1l2.86,8.13Zm-1-3.37-.92-3c-.07-.23-.11-.41-.14-.54-.12.47-.47,1.64-1,3.5Zm5.69,3.48a2,2,0,0,1-1.71-.85,3.93,3.93,0,0,1-.62-2.35,3.87,3.87,0,0,1,.63-2.36,2.06,2.06,0,0,1,1.75-.86,2,2,0,0,1,1.78.91h.06a6.44,6.44,0,0,1-.13-1.23v-2h1.69v8.61H97.94l-.33-.81h-.07A2,2,0,0,1,95.78,127.71Zm.6-1.35a1.13,1.13,0,0,0,.94-.37,2.07,2.07,0,0,0,.33-1.28v-.18a2.48,2.48,0,0,0-.31-1.43,1.11,1.11,0,0,0-1-.43,1,1,0,0,0-.88.48,2.53,2.53,0,0,0-.31,1.39,2.44,2.44,0,0,0,.31,1.37A1,1,0,0,0,96.38,126.36Zm6.58,1.35a2,2,0,0,1-1.72-.85,3.93,3.93,0,0,1-.62-2.35,3.87,3.87,0,0,1,.63-2.36,2.08,2.08,0,0,1,1.75-.86,2,2,0,0,1,1.78.91h.06a6.44,6.44,0,0,1-.13-1.23v-2h1.69v8.61h-1.29l-.33-.81h-.07A1.93,1.93,0,0,1,103,127.71Zm.59-1.35a1.13,1.13,0,0,0,.94-.37,2.13,2.13,0,0,0,.34-1.28v-.18a2.57,2.57,0,0,0-.31-1.43,1.14,1.14,0,0,0-1-.43,1,1,0,0,0-.88.48,2.53,2.53,0,0,0-.31,1.39,2.43,2.43,0,0,0,.32,1.37A1,1,0,0,0,103.55,126.36Zm14.87,1.24h-2.18l-3.52-6.12h0c.07,1.08.11,1.85.11,2.31v3.81h-1.53v-8.09h2.16l3.51,6.06h0c0-1.06-.08-1.8-.08-2.23v-3.83h1.54Zm4.47-5.1a1.08,1.08,0,0,0-.84.34,1.55,1.55,0,0,0-.35,1h2.37a1.34,1.34,0,0,0-.32-1A1.11,1.11,0,0,0,122.89,122.5Zm.24,5.21a3.19,3.19,0,0,1-2.33-.83,3.11,3.11,0,0,1-.84-2.33,3.4,3.4,0,0,1,.77-2.4,2.77,2.77,0,0,1,2.15-.86,2.7,2.7,0,0,1,2,.75,2.83,2.83,0,0,1,.74,2.07v.81h-4a1.63,1.63,0,0,0,.42,1.13,1.51,1.51,0,0,0,1.12.4,5.22,5.22,0,0,0,1.06-.11,5.51,5.51,0,0,0,1-.38v1.31a3.82,3.82,0,0,1-1,.33A6.09,6.09,0,0,1,123.13,127.71Zm9-.11-.47-2.17L131,122.7h0l-1.13,4.9H128l-1.76-6.19h1.69l.71,2.74c.11.49.23,1.17.35,2h0c0-.28.08-.72.19-1.33l.09-.47.77-3h1.86l.72,3c0,.08,0,.2.07.36s.06.32.09.51.06.35.08.52,0,.31,0,.41h0c0-.27.09-.63.17-1.09s.15-.78.19-.94l.74-2.74h1.65L134,127.6Zm12.48-2.25a2.1,2.1,0,0,1-.8,1.73,3.4,3.4,0,0,1-2.19.63,5.1,5.1,0,0,1-2.29-.49v-1.59a9.93,9.93,0,0,0,1.39.51,4.08,4.08,0,0,0,1,.15,1.5,1.5,0,0,0,.86-.21.75.75,0,0,0,.3-.65.68.68,0,0,0-.13-.42,1.73,1.73,0,0,0-.39-.36,10.89,10.89,0,0,0-1-.54,5.62,5.62,0,0,1-1.11-.67,2.64,2.64,0,0,1-.59-.75,2.36,2.36,0,0,1,.5-2.69,3.1,3.1,0,0,1,2-.61,4.7,4.7,0,0,1,1.2.15,8.65,8.65,0,0,1,1.2.42l-.56,1.33a9.28,9.28,0,0,0-1.07-.37,3.42,3.42,0,0,0-.83-.1,1.09,1.09,0,0,0-.75.23.74.74,0,0,0-.26.59.77.77,0,0,0,.11.4,1.12,1.12,0,0,0,.33.32,11.89,11.89,0,0,0,1.09.57,4.22,4.22,0,0,1,1.56,1.09A2.09,2.09,0,0,1,144.59,125.35Zm7,2.25h-1.69V124c0-.89-.33-1.34-1-1.34a1.12,1.12,0,0,0-1,.49,2.94,2.94,0,0,0-.31,1.56v2.91h-1.69V119h1.69v1.75c0,.14,0,.46,0,1l0,.5h.09a2,2,0,0,1,1.79-.91,2.21,2.21,0,0,1,1.66.59,2.35,2.35,0,0,1,.56,1.68Zm1.67-7.79c0-.55.3-.82.92-.82s.91.27.91.82a.81.81,0,0,1-.23.62,1,1,0,0,1-.68.21C153.6,120.64,153.3,120.36,153.3,119.81Zm1.76,7.79h-1.69v-6.19h1.69Zm5.19-4.92h-1.46v4.92H157.1v-4.92h-.93v-.82l.93-.45V121a2.07,2.07,0,0,1,.52-1.55,2.43,2.43,0,0,1,1.67-.48,4.17,4.17,0,0,1,1.55.26l-.43,1.24a3.07,3.07,0,0,0-.94-.17.62.62,0,0,0-.52.22.91.91,0,0,0-.16.54v.39h1.46Zm3.58,3.68a3.66,3.66,0,0,0,1.07-.19v1.26a4,4,0,0,1-1.55.28,1.91,1.91,0,0,1-1.48-.51,2.23,2.23,0,0,1-.46-1.54v-3h-.81V122l.93-.56.49-1.31h1.08v1.32h1.73v1.27H163.1v3a.63.63,0,0,0,.2.53A.75.75,0,0,0,163.83,126.36Z"/>
    <rect class="cls-12" x="27" y="96.16" width="196" height="0.83"/>
    <rect class="cls-13" x="27" y="68.85" width="196" height="27.31"/>
    <circle class="cls-7" cx="203.85" cy="82.59" r="10.05"/>
    <circle class="cls-9" cx="203.85" cy="82.59" r="8.71"/>
    <path class="cls-6" d="M200.45,85.2l-1-3.38h0q.06,1,.06,1.38v2h-.82V80.9h1.24l1,3.29h0L202,80.9h1.24v4.3h-.85V82.83c0-.13,0-.46.05-1h0l-1.11,3.37Zm8.06,0h-1l-.58-2.26c0-.08-.06-.25-.11-.5s-.08-.42-.09-.51a4.67,4.67,0,0,1-.09.51c0,.24-.08.4-.11.5l-.58,2.26h-1l-1.09-4.3h.89l.56,2.34c.09.44.16.81.2,1.13,0-.11,0-.28.08-.52l.12-.54.63-2.41h.86l.63,2.41c0,.1.06.27.1.49a5.78,5.78,0,0,1,.1.57q0-.23.09-.57c.05-.23.09-.41.12-.56l.55-2.34h.9Z"/>
  </g>
</svg>
