<svg width="28" height="28" viewBox="0 0 28 28" fill="none" xmlns="http://www.w3.org/2000/svg">
<rect width="28" height="28" rx="2" fill="#284089"/>
<path d="M0.477426 0H4.47793C4.72487 0 4.93889 0.156889 4.93889 0.349984V2.72746C4.93889 2.82401 4.84011 2.89642 4.70841 2.89642H0.230481C0.0987778 2.89642 0 2.82401 0 2.72746V0.349984C0 0.156889 0.214019 0 0.477426 0Z" transform="matrix(-0.725497 -0.681038 -0.705682 0.715592 24.4028 6.44238)" fill="white"/>
<path d="M0.905463 0C0.592667 0 0.27987 0.0362045 0 0.108615L0.658518 2.03956C0.72437 2.23265 1.08656 2.23265 1.15241 2.03956L1.81093 0.108615C1.53106 0.0362045 1.21826 0 0.905463 0Z" transform="matrix(-0.725497 -0.681038 -0.705682 0.715592 6.5874 22.2925)" fill="white"/>
<path d="M1.35764 4.19679C1.6869 4.12438 2.03262 4.08817 2.37834 4.08817C2.72406 4.08817 3.08625 4.12438 3.39905 4.19679L4.71608 0.334898C4.76547 0.190077 4.56792 0.057326 4.37036 0.117668L3.69538 0.310761C3.62953 0.32283 3.56367 0.32283 3.49782 0.310761L2.46066 0.0090513C2.39481 -0.0030171 2.32895 -0.0030171 2.2631 0.0090513L1.22593 0.310761C1.16008 0.32283 1.09423 0.32283 1.02838 0.310761L0.353398 0.117668C0.155843 0.057326 -0.041713 0.190077 0.0076759 0.334898L1.35764 4.19679Z" transform="matrix(-0.725497 -0.681038 -0.705682 0.715592 10.7959 20.1108)" fill="white"/>
<path d="M4.65902 0H2.46944H0.27987C0.131704 0 0 0.0795799 0 0.169107V15.1202C0 15.1301 0.016463 15.15 0.0329259 15.15C0.181093 15.1898 0.839611 15.339 0.839611 15.339C0.921926 15.3589 1.00424 15.3589 1.07009 15.339L2.3542 15.0307C2.38713 15.0207 2.43652 15.0207 2.46944 15.0207C2.50237 15.0207 2.55176 15.0207 2.58468 15.0307L3.8688 15.339C3.95111 15.3589 4.03343 15.3589 4.09928 15.339C4.09928 15.339 4.7578 15.1799 4.90596 15.15C4.92243 15.15 4.93889 15.1301 4.93889 15.1202V0.169107C4.93889 0.0795799 4.80718 0 4.65902 0Z" transform="matrix(-0.725497 -0.681038 -0.705682 0.715592 21.9399 8.93945)" fill="white"/>
</svg>
