<svg xmlns="http://www.w3.org/2000/svg" xmlns:xlink="http://www.w3.org/1999/xlink" viewBox="0 0 250 250">
  <defs>
    <style>
      .cls-1, .cls-2, .cls-5 {
        fill: none;
      }

      .cls-2 {
        stroke: #4d4d4d;
        stroke-width: 6px;
      }

      .cls-14, .cls-2, .cls-5 {
        stroke-miterlimit: 10;
      }

      .cls-3 {
        fill: #231f20;
      }

      .cls-4 {
        fill: #e6e6e6;
      }

      .cls-5 {
        stroke: #c3c3c3;
        stroke-linecap: round;
        stroke-width: 2px;
      }

      .cls-6 {
        fill: #c3c3c3;
      }

      .cls-7 {
        clip-path: url(#clip-path);
      }

      .cls-14, .cls-8 {
        fill: #293541;
      }

      .cls-9 {
        fill: #ed3825;
      }

      .cls-10, .cls-12 {
        fill: #eff3f6;
      }

      .cls-11, .cls-12 {
        isolation: isolate;
      }

      .cls-12 {
        font-size: 7.12px;
        font-family: OpenSans-Bold, Open Sans;
        font-weight: 700;
      }

      .cls-13 {
        fill: #e8b111;
      }

      .cls-14 {
        stroke: #293541;
        stroke-width: 4px;
      }

      .cls-15 {
        fill: #ffc313;
      }
    </style>
    <clipPath id="clip-path">
      <rect class="cls-1" x="29.87" y="65.77" width="189.79" height="196.46" transform="translate(288.77 39.23) rotate(90)"/>
    </clipPath>
  </defs>
  <title>about-img</title>
  <g id="Layer_40" data-name="Layer 40">
    <rect class="cls-2" x="14" y="15" width="222" height="458" rx="30.03" ry="30.03"/>
    <rect class="cls-3" x="14" y="15" width="222" height="458" rx="30.03" ry="30.03"/>
    <rect class="cls-4" x="27" y="69" width="196" height="350"/>
    <line class="cls-5" x1="106" y1="42" x2="144" y2="42"/>
    <circle class="cls-6" cx="90" cy="43" r="2"/>
    <g class="cls-7">
      <g>
        <rect class="cls-8" x="26.32" y="66.84" width="196.9" height="321.14"/>
        <path class="cls-9" d="M67.86,227.41H182.07a2,2,0,0,1,2,2V340.52a2,2,0,0,1-2,2H67.86a2,2,0,0,1-2-2V229.39A2,2,0,0,1,67.86,227.41Z"/>
        <path class="cls-10" d="M73,246H177.77a2,2,0,0,1,1.95,2v13a2,2,0,0,1-1.95,2H73a2,2,0,0,1-2-2v-13A2,2,0,0,1,73,246Z"/>
        <g class="cls-11">
          <text class="cls-12" transform="translate(70.99 242.09) scale(0.99 1)">Email</text>
        </g>
        <path class="cls-13" d="M77.25,188.65h41.46a2,2,0,0,1,2,2v14.23a2,2,0,0,1-2,2H77.25a2,2,0,0,1-2-2V190.63A2,2,0,0,1,77.25,188.65Z"/>
        <path class="cls-9" d="M132,188.65h41.46a2,2,0,0,1,2,2v14.23a2,2,0,0,1-2,2H132a2,2,0,0,1-1.95-2V190.63A2,2,0,0,1,132,188.65Z"/>
        <g class="cls-11">
          <text class="cls-12" transform="translate(81.09 200.51) scale(0.99 1)">Employee</text>
        </g>
        <g class="cls-11">
          <text class="cls-12" transform="translate(138.15 200.51) scale(0.99 1)">Manager</text>
        </g>
        <ellipse class="cls-9" cx="124.96" cy="132.89" rx="34.81" ry="35.2"/>
        <path class="cls-8" d="M125,165.88a33,33,0,1,0-32.63-33A32.81,32.81,0,0,0,125,165.88Z"/>
        <path class="cls-8" d="M125.18,164.58a31.7,31.7,0,1,0-31.35-31.69A31.52,31.52,0,0,0,125.18,164.58Z"/>
        <path class="cls-9" d="M105.32,108.35a31.74,31.74,0,0,0-11.21,20.32c3.78,11.84,10.46,18.11,10.54,18.13a21.93,21.93,0,0,1,1.23-4c-.82-2.17-3.16-15-2-24.92C104.59,112.43,105.15,109.31,105.32,108.35Z"/>
        <path class="cls-9" d="M108.11,141.61a26.61,26.61,0,0,1,1.33-2.45,23.84,23.84,0,0,1,3.37-4.28c0,.09,1.4-10.5,8.5-17.19,10-9.42,18.19-10.79,21.45-11l-.9-.59a.46.46,0,0,1-.13-.08c-.6-.37-1.2-.74-1.84-1.07a.49.49,0,0,1-.15-.09c-.63-.32-1.27-.65-1.92-.93l-.17-.06c-.32-.16-.64-.29-1-.42l-1-.37-.19-.06-1-.33h0l-1-.3-.22-.07-1-.26h0c-.34-.08-.68-.15-1-.21a1.89,1.89,0,0,1-.23,0c-.35-.06-.69-.13-1-.17h0l-1-.15-.26,0c-.34,0-.68-.07-1.05-.11h0l-1.07-.07h-.26c-.37,0-.73,0-1.07,0A31.13,31.13,0,0,0,114.83,103,61.75,61.75,0,0,0,108.11,141.61Z"/>
        <path class="cls-9" d="M115.8,144.41a28.66,28.66,0,0,1,3.37-.65,29.87,29.87,0,0,1,6.74-.11c-.09,0,6.83-10.16,28.9-.43a32.12,32.12,0,0,0-2.3-25.88c-7.32,2-15.72,4.69-21.11,7.71C117.77,132.69,115.75,144.39,115.8,144.41Z"/>
        <path class="cls-9" d="M100.17,152c1.63.37,3.71.5,3.73.56a32,32,0,0,1,.32-3.75c-1-.83-3-2.3-5-4.21-1.85-1.74-3.46-3.45-4.57-4.61A31.63,31.63,0,0,0,100.17,152Z"/>
        <path class="cls-14" d="M113.05,127.14l-4.91,3.63,4,5.47,4.9-3.62Z"/>
        <path class="cls-8" d="M108.22,131a1.34,1.34,0,0,1-1.12-.47,1.7,1.7,0,0,1,.17-1.85,6.73,6.73,0,0,1,1.76-1.84,5.56,5.56,0,0,1,3-1.22,1.31,1.31,0,0,1,1.11.48c.54.74,0,2.23-1.93,3.69A5.54,5.54,0,0,1,108.22,131Z"/>
        <path class="cls-8" d="M112,126a.84.84,0,0,1,.75.31c.45.63-.37,2-1.85,3.08a5.18,5.18,0,0,1-2.7,1.13.87.87,0,0,1-.76-.3c-.45-.63.37-2,1.85-3.09A5.32,5.32,0,0,1,112,126Zm0-.86a5.85,5.85,0,0,0-3.22,1.3,6.91,6.91,0,0,0-1.87,2,2,2,0,0,0-.15,2.33,1.7,1.7,0,0,0,1.46.65,6,6,0,0,0,3.22-1.3,7.08,7.08,0,0,0,1.87-2,2,2,0,0,0,.15-2.32A1.72,1.72,0,0,0,112,125.16Z"/>
        <path class="cls-9" d="M110.11,130.13a1.88,1.88,0,0,1-1.74-1.35,1.78,1.78,0,0,1,.66-2,5.54,5.54,0,0,1,3-1.21,1.31,1.31,0,0,1,1.11.48c.54.73,0,2.23-1.93,3.69A1.58,1.58,0,0,1,110.11,130.13Z"/>
        <path class="cls-8" d="M112,126a.84.84,0,0,1,.75.31c.45.63-.37,2-1.85,3.08a1.39,1.39,0,0,1-.81.28,1.42,1.42,0,0,1-.82-2.54A5.44,5.44,0,0,1,112,126Zm0-.86a5.85,5.85,0,0,0-3.22,1.3,2.17,2.17,0,0,0-.82,2.47,2.29,2.29,0,0,0,2.15,1.63,2.17,2.17,0,0,0,1.31-.45,6.89,6.89,0,0,0,1.86-2c.73-1.22.41-2,.15-2.32A1.61,1.61,0,0,0,112,125.16Z"/>
        <path class="cls-9" d="M111.5,132l2.3,3.19,3.13-2.3-2.47-3.41S109.76,129.61,111.5,132Z"/>
        <path class="cls-8" d="M112.55,125.74a.66.66,0,0,0-.27.46.67.67,0,0,0-.52.13.66.66,0,0,0-.28.45.63.63,0,0,0-.51.14.62.62,0,0,0-.28.45.67.67,0,0,0-.52.13.65.65,0,0,0-.28.48.63.63,0,0,0-.53.13.62.62,0,0,0-.28.46.64.64,0,0,0-.52.13.71.71,0,0,1-.79.58.65.65,0,0,0-.28.46.68.68,0,0,0-.52.13.59.59,0,0,0-.21.78l.86,1.19.43.61.85,1.2a.6.6,0,0,0,.8,0,.7.7,0,0,1,.79-.59.62.62,0,0,0,.28-.45.68.68,0,0,0,.52-.13.67.67,0,0,0,.28-.46.66.66,0,0,0,.51-.13.63.63,0,0,0,.28-.48.62.62,0,0,0,.54-.13.71.71,0,0,1,.79-.58.67.67,0,0,0,.28-.46.71.71,0,0,0,.8-.59.62.62,0,0,0,.51-.13.59.59,0,0,0,.22-.78l-.86-1.19-.43-.61-.86-1.19A.55.55,0,0,0,112.55,125.74Z"/>
        <path class="cls-9" d="M112.66,125.85a.39.39,0,0,0-.13.5l.93,1.3.28.39.92,1.31a.36.36,0,0,0,.51,0,.37.37,0,0,0,.13-.5l-.92-1.3-.28-.39-.92-1.31A.39.39,0,0,0,112.66,125.85Z"/>
        <path class="cls-9" d="M111.87,126.46a.38.38,0,0,0-.13.5l.92,1.3.28.39.92,1.3a.36.36,0,0,0,.52,0c.17-.14.24-.37.13-.5l-.93-1.31-.27-.39-.93-1.3A.36.36,0,0,0,111.87,126.46Z"/>
        <path class="cls-9" d="M111.07,127.05a.37.37,0,0,0-.13.49l.93,1.31.28.39.92,1.3a.41.41,0,0,0,.64-.48l-.92-1.3-.28-.39-.92-1.3A.39.39,0,0,0,111.07,127.05Z"/>
        <path class="cls-9" d="M110.26,127.63a.37.37,0,0,0-.13.5l.92,1.3.28.39.92,1.31a.37.37,0,0,0,.52,0,.39.39,0,0,0,.13-.5l-.93-1.3-.28-.39-.92-1.31A.38.38,0,0,0,110.26,127.63Z"/>
        <path class="cls-9" d="M109.46,128.24a.39.39,0,0,0-.13.5l.93,1.3.28.39.92,1.3a.35.35,0,0,0,.51,0,.37.37,0,0,0,.13-.5l-.92-1.31-.28-.39-.92-1.3A.37.37,0,0,0,109.46,128.24Z"/>
        <path class="cls-9" d="M108.65,128.83a.36.36,0,0,0-.13.49l.92,1.31.28.39.92,1.3a.37.37,0,0,0,.52,0,.39.39,0,0,0,.13-.5l-.93-1.3-.27-.39-.93-1.3A.37.37,0,0,0,108.65,128.83Z"/>
        <path class="cls-9" d="M107.85,129.41a.39.39,0,0,0-.13.5l.93,1.3.28.39.92,1.31a.36.36,0,0,0,.51,0,.37.37,0,0,0,.13-.5l-.92-1.3-.28-.39-.92-1.31A.39.39,0,0,0,107.85,129.41Z"/>
        <path class="cls-10" d="M117.51,116.39a7.24,7.24,0,0,0-.75-2,6.73,6.73,0,0,1-.34-5.15,3.88,3.88,0,0,1,4.72-2,3.38,3.38,0,0,0,.86.15,4.92,4.92,0,0,0,2.79-1.35,4.49,4.49,0,0,1,2.58-1.28,2.18,2.18,0,0,1,.9.2c1.52.67,1,2.47.62,3.53l-.13.42-.4-.13a6.08,6.08,0,0,0-1.94-.33c-3.39,0-5.56,3-6.12,4.89v0a11,11,0,0,1-1.61,2.71l0,0a5.74,5.74,0,0,0-.38.44l-.56.63Z"/>
        <path class="cls-8" d="M127.37,105.21a1.77,1.77,0,0,1,.73.15c1.07.47.81,1.65.38,3a6.77,6.77,0,0,0-2.06-.32c-3.5,0-5.88,3-6.52,5.19a11.64,11.64,0,0,1-1.55,2.6l-.41.46a8.29,8.29,0,0,0-.79-2.11,6.21,6.21,0,0,1-.32-4.73,3.35,3.35,0,0,1,3.09-1.93,3.65,3.65,0,0,1,1.09.17,3.22,3.22,0,0,0,1,.15C124.25,107.83,125.63,105.21,127.37,105.21Zm0-.87a4.85,4.85,0,0,0-2.86,1.36A4.33,4.33,0,0,1,122,107a2.17,2.17,0,0,1-.73-.13,4.26,4.26,0,0,0-1.37-.21,4.2,4.2,0,0,0-3.89,2.45,7.34,7.34,0,0,0,.36,5.54,7.43,7.43,0,0,1,.71,1.88l.39,1.63,1.09-1.26c.15-.15.26-.3.39-.41l0,0,0,0a11.63,11.63,0,0,0,1.68-2.82l0,0,0,0c.54-1.78,2.56-4.58,5.71-4.58a6.18,6.18,0,0,1,1.81.3l.81.26.26-.82a6.61,6.61,0,0,0,.41-2.13,2.06,2.06,0,0,0-1.27-1.93A2.15,2.15,0,0,0,127.37,104.34Z"/>
        <path class="cls-9" d="M150.53,148.19c-.19,0-.53-.11-.7-.8l-.18-.65c-.34-1.31-.4-1.52-.43-1.57-.15-.41-.3-.8-.47-1.19a25.72,25.72,0,0,0-8.24-10.57,21.13,21.13,0,0,0-12.67-4.32c-.56,0-1.12,0-1.67.06l-.43,0,0-.43c-.24-3.76-2.19-6.36-3.78-8.47-1.25-1.67-2.34-3.1-2.24-4.67.15-2.21,2.8-6.55,7.15-6.55,2.34,0,4.75,1.21,7.15,3.64a5.8,5.8,0,0,1,.45.55c6.81,6.71,12.74,18,15.83,30.09.25,1,.79,3.49.83,3.69a1.05,1.05,0,0,1-.15.93A.51.51,0,0,1,150.53,148.19Z"/>
        <path class="cls-8" d="M126.85,109.5c2,0,4.3,1,6.85,3.52.09.09.24.28.43.52,7.15,7,12.86,18.67,15.72,29.92.26,1,.79,3.47.83,3.67.07.37,0,.6-.15.6s-.21-.13-.3-.47-.1-.44-.17-.65c-.21-.85-.38-1.46-.43-1.59-.15-.41-.3-.82-.47-1.21-3.59-8.47-11.7-15.18-21.32-15.18-.58,0-1.14,0-1.72.07-.43-6.8-6.2-9.84-6-13.07C120.28,113.5,122.82,109.5,126.85,109.5Zm0-.86a7.43,7.43,0,0,0-5.45,2.54,8,8,0,0,0-2.13,4.4c-.1,1.72,1,3.22,2.32,5,1.63,2.17,3.46,4.63,3.7,8.23l.06.87.86-.07c.56,0,1.12-.06,1.65-.06a20.83,20.83,0,0,1,12.41,4.23,25.62,25.62,0,0,1,8.12,10.4c.17.39.32.78.47,1.17,0,0,.06.22.41,1.52,0,.2.11.42.17.65.26,1,.88,1.13,1.14,1.13a.91.91,0,0,0,.75-.37,1.5,1.5,0,0,0,.24-1.28c0-.21-.58-2.67-.84-3.71a80.44,80.44,0,0,0-6.31-16.72,53.68,53.68,0,0,0-9.6-13.56c-.28-.37-.41-.5-.47-.57C131.81,109.92,129.3,108.64,126.85,108.64Z"/>
        <path class="cls-9" d="M124.36,164.93a31.59,31.59,0,0,1-13.67-3.08h0a32.07,32.07,0,0,1-5.82-3.85l-.2-.15-.06-.24a23.39,23.39,0,0,1,2.83-17.78,22.82,22.82,0,0,1,31.69-7.4,23.22,23.22,0,0,1,10.82,19.43v.26l-.15.22A31.82,31.82,0,0,1,124.36,164.93Z"/>
        <path class="cls-8" d="M127,129.63A22.13,22.13,0,0,1,138.75,133a22.6,22.6,0,0,1,10.48,18.8,31.15,31.15,0,0,1-38.2,9.31,32.1,32.1,0,0,1-5.67-3.73,22.73,22.73,0,0,1,2.75-17.2A22.08,22.08,0,0,1,127,129.63Zm0-1.52a23.62,23.62,0,0,0-20.16,11.31,24.1,24.1,0,0,0-2.94,18.37l.13.5.39.32a33.22,33.22,0,0,0,5.94,3.93h0a32.48,32.48,0,0,0,14,3.15,32,32,0,0,0,14.73-3.52,33.17,33.17,0,0,0,11.3-9.4l.32-.41v-.52a24,24,0,0,0-11.19-20.06A23.29,23.29,0,0,0,127,128.11Z"/>
        <path class="cls-10" d="M123.68,130.58a2.87,2.87,0,0,1-1.14-.28l-.09,0a2.47,2.47,0,0,1-1.33-1.52,4.14,4.14,0,0,1,.84-3.45l0,0a1.71,1.71,0,0,0-.22-.42,6.94,6.94,0,0,1-.38-.67,2.35,2.35,0,0,1,.06-1.3,3.89,3.89,0,0,0,.11-.57,11.56,11.56,0,0,0-.6-1.39l-.19-.34.45-.29h.13c.15,0,.32,0,1,.83a18.58,18.58,0,0,1,2.84,6,2.93,2.93,0,0,0,.12.43c.18.63.33,1.13.37,1.37l0,.13-.06.13A2.2,2.2,0,0,1,123.68,130.58Z"/>
        <path class="cls-8" d="M121.31,120.73c.13,0,.63.65.63.65a17.41,17.41,0,0,1,2.74,5.84c.11.41.43,1.45.48,1.76-.45.91-1,1.17-1.51,1.17a2.79,2.79,0,0,1-1.07-.3c-.62-.26-2.15-1.52-.3-4.35.28-.43-.19-.76-.56-1.52-.15-.32.28-1.38.22-1.73A11.8,11.8,0,0,0,121.31,120.73Zm0-.87a.88.88,0,0,0-.47.13l-.69.43.37.72a8.4,8.4,0,0,1,.54,1.22,4,4,0,0,0-.09.43,2.49,2.49,0,0,0,0,1.59,5.9,5.9,0,0,0,.41.71s.06.09.08.15a4.43,4.43,0,0,0-.77,3.63,2.93,2.93,0,0,0,1.59,1.8s.06,0,.08,0a3.11,3.11,0,0,0,1.31.33,2.47,2.47,0,0,0,2.26-1.65l.13-.24,0-.28c0-.26-.17-.74-.36-1.41,0-.18-.09-.33-.13-.44a18.28,18.28,0,0,0-2.9-6.14C122,120.08,121.72,119.86,121.31,119.86Z"/>
        <path class="cls-15" d="M115.45,123.94a1,1,0,0,1-.8-.39c-.32-.48-.17-1.17.15-2a12,12,0,0,1,3.48-5l.84-.71.21,1.08a9.57,9.57,0,0,0,1.91,3.28l.5.65-.73.35c-1,.48-2,1.06-2.9,1.58A6.63,6.63,0,0,1,115.45,123.94Z"/>
        <path class="cls-8" d="M118.71,117a10,10,0,0,0,2,3.54c-2.36,1.09-4.49,2.74-5.28,2.74-.41,0-.45-.44,0-1.57A11.34,11.34,0,0,1,118.71,117Zm.84-2.41L117.87,116a12.64,12.64,0,0,0-3.67,5.28,2.89,2.89,0,0,0-.08,2.65,1.57,1.57,0,0,0,1.33.67c.79,0,1.61-.5,3-1.3.86-.52,1.83-1.09,2.84-1.57l1.46-.67-1-1.3a9.67,9.67,0,0,1-1.78-3Z"/>
        <path class="cls-8" d="M148.58,152.45a30.84,30.84,0,0,0-.69-6.21c-.38-1.22-.77-1.26-1-1.22s-.3.22-.34.33a1.59,1.59,0,0,0,0,.91c.06.22.1.43.17.65a26.65,26.65,0,0,1,.71,6.14c0,.63,0,1.24-.07,1.85A24.27,24.27,0,0,0,148.58,152.45Z"/>
        <path class="cls-8" d="M146.33,156.29a20.82,20.82,0,0,0,.32-3.65,19.76,19.76,0,1,0-38.24,7,31.07,31.07,0,0,0,37.92-3.36Z"/>
        <path class="cls-9" d="M126.9,155a2.39,2.39,0,1,0-2.37-2.39A2.38,2.38,0,0,0,126.9,155Z"/>
        <path class="cls-8" d="M128.44,154.2a2.08,2.08,0,0,1-3,0c-.84-.84,2.16-3.88,3-3A2.15,2.15,0,0,1,128.44,154.2Z"/>
        <path class="cls-9" d="M126.9,138.31a.33.33,0,0,1-.33-.32v-1.52a.33.33,0,1,1,.65,0V138A.33.33,0,0,1,126.9,138.31Z"/>
        <path class="cls-9" d="M129,149.67a.33.33,0,0,1-.08-.46l4.27-6.29a.31.31,0,0,1,.45-.09.32.32,0,0,1,.09.45l-4.28,6.3A.34.34,0,0,1,129,149.67Z"/>
        <path class="cls-9" d="M123,153.31a.3.3,0,0,1-.26.37l-5,.94a.3.3,0,0,1-.36-.26.31.31,0,0,1,.26-.37l5-.94A.33.33,0,0,1,123,153.31Z"/>
        <path class="cls-9" d="M136.92,142.5a.31.31,0,0,1,0-.45L138,141a.32.32,0,0,1,.46,0,.34.34,0,0,1,0,.46l-1.06,1.06A.31.31,0,0,1,136.92,142.5Z"/>
        <path class="cls-9" d="M116.7,163.41l.17-.17a.32.32,0,0,0,0-.46.31.31,0,0,0-.45,0l-.43.43Z"/>
        <path class="cls-9" d="M112.73,152.64a.34.34,0,0,1-.33.33h-1.5a.34.34,0,0,1-.32-.33.33.33,0,0,1,.32-.32h1.5A.33.33,0,0,1,112.73,152.64Z"/>
        <path class="cls-9" d="M141.07,152.64a.34.34,0,0,0,.32.33h1.5a.34.34,0,0,0,.32-.33.33.33,0,0,0-.32-.32h-1.5A.33.33,0,0,0,141.07,152.64Z"/>
        <path class="cls-9" d="M116.87,142.5a.31.31,0,0,1-.45,0l-1-1.06a.32.32,0,0,1,0-.46.31.31,0,0,1,.45,0l1.05,1.07A.31.31,0,0,1,116.87,142.5Z"/>
        <path class="cls-9" d="M121.44,139.42a.33.33,0,0,1-.43-.17l-.58-1.41a.34.34,0,0,1,.18-.44.32.32,0,0,1,.42.17l.58,1.42A.31.31,0,0,1,121.44,139.42Z"/>
        <path class="cls-9" d="M132.31,139.4a.33.33,0,0,1-.18-.44l.58-1.41a.33.33,0,0,1,.61.26l-.58,1.41A.36.36,0,0,1,132.31,139.4Z"/>
        <path class="cls-9" d="M113.82,158.16a.33.33,0,0,1-.17.43l-1.4.59a.33.33,0,0,1-.43-.18.33.33,0,0,1,.18-.43l1.39-.59A.31.31,0,0,1,113.82,158.16Z"/>
        <path class="cls-9" d="M140,147.15a.32.32,0,0,0,.43.17l1.4-.58a.34.34,0,0,0,.17-.44.32.32,0,0,0-.43-.17l-1.4.58A.36.36,0,0,0,140,147.15Z"/>
        <path class="cls-9" d="M113.8,147.17a.32.32,0,0,1-.43.17l-1.4-.58a.34.34,0,0,1-.17-.44.32.32,0,0,1,.43-.17l1.4.59A.36.36,0,0,1,113.8,147.17Z"/>
        <path class="cls-9" d="M140,158.11a.35.35,0,0,0,.17.44l1.4.58A.33.33,0,0,0,142,159a.35.35,0,0,0-.17-.44l-1.4-.58A.31.31,0,0,0,140,158.11Z"/>
        <path class="cls-8" d="M142.61,138.27a.31.31,0,0,1-.45,0l-1-1.06a.32.32,0,0,1,0-.46.31.31,0,0,1,.45,0l1.05,1.06A.32.32,0,0,1,142.61,138.27Z"/>
        <path class="cls-8" d="M107.27,157.81a16.41,16.41,0,0,1-.73-5.65c0-.52-.38-1-.79-.82l-.19.06a.68.68,0,0,0-.37.61,17.71,17.71,0,0,0,.86,6c.58.44,1.16.87,1.76,1.28A12.28,12.28,0,0,1,107.27,157.81Z"/>
      </g>
    </g>
  </g>
</svg>
