<?xml version="1.0" encoding="utf-8"?>
<!-- Generator: Adobe Illustrator 22.0.1, SVG Export Plug-In . SVG Version: 6.00 Build 0)  -->
<svg version="1.1" id="Layer_1" xmlns="http://www.w3.org/2000/svg" xmlns:xlink="http://www.w3.org/1999/xlink" x="0px" y="0px"
	 viewBox="0 0 100 100" style="enable-background:new 0 0 100 100;" xml:space="preserve">
<style type="text/css">
	.st0{fill:#EFF3F6;}
	.st1{fill:#293541;}
	.st2{fill:#ED3825;}
	.st3{fill:#293541;stroke:#293541;stroke-width:4;stroke-miterlimit:10;}
	.st4{fill:#FFC313;}
</style>
<circle class="st0" cx="50" cy="50" r="50"/>
<path class="st1" d="M50,96.9c25.9,0,46.9-21,46.9-46.9S75.9,3.1,50,3.1S3.1,24.1,3.1,50S24.1,96.9,50,96.9z"/>
<path class="st1" d="M50.3,95c24.9,0,45-20.2,45-45c0-24.9-20.2-45-45-45c-24.9,0-45,20.2-45,45C5.3,74.9,25.4,95,50.3,95z"/>
<path class="st2" d="M21.8,15.2C13.1,22.2,7.2,32.4,5.7,44c5.4,16.8,15,25.7,15.1,25.8c0.4-1.9,1-3.8,1.8-5.6
	c-1.2-3.1-4.5-21.3-2.8-35.4C20.7,20.9,21.5,16.5,21.8,15.2z"/>
<path class="st2" d="M25.8,62.4c0.6-1.2,1.2-2.3,1.9-3.5c1.4-2.3,3-4.3,4.8-6.1c-0.1,0.1,2-14.9,12.2-24.4
	C59.1,15,70.9,13.1,75.6,12.7c-0.4-0.3-0.9-0.6-1.3-0.8c-0.1,0-0.1-0.1-0.2-0.1c-0.9-0.5-1.7-1-2.7-1.5c-0.1,0-0.1-0.1-0.2-0.1
	c-0.9-0.5-1.8-0.9-2.7-1.3c-0.1,0-0.2-0.1-0.2-0.1c-0.5-0.2-0.9-0.4-1.4-0.6c-0.5-0.2-1-0.4-1.4-0.5c-0.1,0-0.2-0.1-0.3-0.1
	c-0.5-0.2-1-0.3-1.4-0.5c0,0,0,0,0,0c-0.5-0.2-1-0.3-1.4-0.4c-0.1,0-0.2-0.1-0.3-0.1c-0.5-0.1-1-0.2-1.4-0.4h0C60,6,59.5,5.9,59,5.8
	c-0.1,0-0.2,0-0.3-0.1c-0.5-0.1-1-0.2-1.5-0.2h0c-0.5-0.1-1-0.2-1.5-0.2c-0.1,0-0.2,0-0.4,0c-0.5-0.1-1-0.1-1.5-0.2h0
	c-0.5,0-1-0.1-1.5-0.1c-0.1,0-0.2,0-0.4,0c-0.5,0-1,0-1.5,0c-5.2,0-10.2,0.9-14.8,2.5C22.1,31.2,24.6,55.1,25.8,62.4z"/>
<path class="st2" d="M36.8,66.4c1.6-0.4,3.2-0.7,4.8-0.9c3.3-0.4,6.5-0.5,9.7-0.2c-0.1,0,9.8-14.4,41.5-0.6
	c1.6-4.6,2.5-9.6,2.5-14.7c0-8-2.1-15.5-5.8-22C79.1,30.8,67,34.6,59.3,38.9C39.7,49.7,36.8,66.3,36.8,66.4z"/>
<path class="st2" d="M14.4,77.1c2.3,0.5,5.3,0.7,5.4,0.8c0,0.1,0-3,0.5-5.3c-1.4-1.2-4.3-3.3-7.2-6c-2.7-2.5-5-4.9-6.6-6.5
	C7.9,66.4,10.6,72.2,14.4,77.1z"/>
<path class="st3" d="M32.9,41.8L25.8,47l5.7,7.8l7.1-5.1L32.9,41.8z"/>
<path class="st1" d="M25.9,47.3c-0.9,0-1.4-0.4-1.6-0.7C23.9,46,24,45,24.6,44c0.6-0.9,1.4-1.8,2.5-2.6c1.5-1.1,3.1-1.7,4.3-1.7
	c0.9,0,1.4,0.4,1.6,0.7c0.8,1,0.1,3.2-2.8,5.2C28.7,46.6,27.1,47.3,25.9,47.3z"/>
<path class="st1" d="M31.4,40.3c0.5,0,0.9,0.1,1.1,0.4c0.6,0.9-0.5,2.8-2.7,4.4c-1.4,1-2.9,1.6-3.9,1.6c-0.5,0-0.9-0.1-1.1-0.4
	c-0.6-0.9,0.5-2.8,2.7-4.4C28.9,40.8,30.4,40.3,31.4,40.3z M31.4,39c-1.3,0-3,0.7-4.6,1.9c-1.1,0.8-2.1,1.8-2.7,2.8
	c-1,1.7-0.6,2.8-0.2,3.3c0.2,0.3,0.9,0.9,2.1,0.9c1.3,0,3-0.7,4.6-1.9c1.1-0.8,2.1-1.8,2.7-2.8c1-1.7,0.6-2.8,0.2-3.3
	C33.2,39.6,32.6,39,31.4,39z"/>
<path class="st2" d="M28.7,46.1c-1.1,0-2.1-0.8-2.5-1.9c-0.3-1,0-2.2,1-2.8c1.5-1.1,3.1-1.7,4.3-1.7c0.9,0,1.4,0.4,1.6,0.7
	c0.8,1,0.1,3.2-2.8,5.2C29.7,45.9,29.2,46.1,28.7,46.1z"/>
<path class="st1" d="M31.4,40.3c0.5,0,0.9,0.1,1.1,0.4c0.6,0.9-0.5,2.8-2.7,4.4c-0.4,0.3-0.8,0.4-1.2,0.4c-1.7,0-2.9-2.4-1.2-3.6
	C28.9,40.8,30.4,40.3,31.4,40.3z M31.4,39c-1.3,0-3,0.7-4.6,1.9c-1.1,0.8-1.6,2.2-1.2,3.5c0.4,1.4,1.7,2.3,3.1,2.3
	c0.6,0,1.3-0.2,1.9-0.6c1.1-0.8,2.1-1.8,2.7-2.8c1-1.7,0.6-2.8,0.2-3.3C33.2,39.6,32.6,39,31.4,39z"/>
<path class="st2" d="M30.7,48.8l3.3,4.5l4.5-3.3l-3.5-4.8C35,45.2,28.2,45.3,30.7,48.8z"/>
<path class="st1" d="M32.2,39.9c-0.2,0.2-0.4,0.4-0.4,0.6c-0.2,0-0.5,0-0.7,0.2c-0.2,0.2-0.4,0.4-0.4,0.6c-0.2,0-0.5,0-0.7,0.2
	c-0.2,0.2-0.4,0.4-0.4,0.6c-0.2,0-0.5,0-0.7,0.2c-0.2,0.2-0.4,0.4-0.4,0.7c-0.2-0.1-0.5,0-0.8,0.2c-0.2,0.2-0.4,0.4-0.4,0.6
	c-0.2,0-0.5,0-0.7,0.2c-0.2,0.2-0.4,0.4-0.4,0.6c-0.2,0-0.5,0-0.7,0.2c-0.2,0.2-0.4,0.4-0.4,0.6c-0.2,0-0.5,0-0.7,0.2
	c-0.4,0.3-0.5,0.8-0.3,1.1l1.2,1.7l0.6,0.9l1.2,1.7c0.2,0.3,0.7,0.3,1.1,0.1c0.2-0.2,0.4-0.4,0.4-0.6c0.2,0,0.5,0,0.7-0.2
	c0.2-0.2,0.4-0.4,0.4-0.6c0.2,0,0.5,0,0.7-0.2c0.2-0.2,0.4-0.4,0.4-0.6c0.2,0,0.5,0,0.7-0.2c0.2-0.2,0.4-0.4,0.4-0.7
	c0.2,0.1,0.5,0,0.8-0.2c0.2-0.2,0.4-0.4,0.4-0.6c0.2,0,0.5,0,0.7-0.2c0.2-0.2,0.4-0.4,0.4-0.6c0.2,0,0.5,0,0.7-0.2
	c0.2-0.2,0.4-0.4,0.4-0.6c0.2,0,0.5,0,0.7-0.2c0.4-0.3,0.5-0.8,0.3-1.1l-1.2-1.7l-0.6-0.9l-1.2-1.7C33.1,39.6,32.6,39.5,32.2,39.9z"
	/>
<path class="st2" d="M32.3,40c-0.2,0.2-0.3,0.5-0.2,0.7l1.3,1.9l0.4,0.6l1.3,1.9c0.2,0.2,0.5,0.2,0.7,0c0.2-0.2,0.3-0.5,0.2-0.7
	l-1.3-1.9l-0.4-0.6L33.1,40C32.9,39.9,32.6,39.8,32.3,40z"/>
<path class="st2" d="M31.2,40.9c-0.2,0.2-0.3,0.5-0.2,0.7l1.3,1.9l0.4,0.6l1.3,1.9c0.2,0.2,0.5,0.2,0.7,0c0.2-0.2,0.3-0.5,0.2-0.7
	l-1.3-1.9l-0.4-0.6l-1.3-1.9C31.8,40.7,31.4,40.7,31.2,40.9z"/>
<path class="st2" d="M30,41.7c-0.2,0.2-0.3,0.5-0.2,0.7l1.3,1.9l0.4,0.6l1.3,1.9c0.2,0.2,0.5,0.2,0.7,0c0.2-0.2,0.3-0.5,0.2-0.7
	l-1.3-1.9l-0.4-0.6l-1.3-1.9C30.6,41.6,30.3,41.5,30,41.7z"/>
<path class="st2" d="M28.9,42.5c-0.2,0.2-0.3,0.5-0.2,0.7l1.3,1.9l0.4,0.6l1.3,1.9c0.2,0.2,0.5,0.2,0.7,0c0.2-0.2,0.3-0.5,0.2-0.7
	L31.3,45l-0.4-0.6l-1.3-1.9C29.5,42.4,29.1,42.4,28.9,42.5z"/>
<path class="st2" d="M27.7,43.4c-0.2,0.2-0.3,0.5-0.2,0.7l1.3,1.9l0.4,0.6l1.3,1.9c0.2,0.2,0.5,0.2,0.7,0c0.2-0.2,0.3-0.5,0.2-0.7
	l-1.3-1.9l-0.4-0.6l-1.3-1.9C28.3,43.2,28,43.2,27.7,43.4z"/>
<path class="st2" d="M26.6,44.2c-0.2,0.2-0.3,0.5-0.2,0.7l1.3,1.9l0.4,0.6l1.3,1.9c0.2,0.2,0.5,0.2,0.7,0c0.2-0.2,0.3-0.5,0.2-0.7
	L29,46.7l-0.4-0.6l-1.3-1.9C27.1,44.1,26.8,44,26.6,44.2z"/>
<path class="st2" d="M25.4,45.1c-0.2,0.2-0.3,0.5-0.2,0.7l1.3,1.9l0.4,0.6l1.3,1.9c0.2,0.2,0.5,0.2,0.7,0c0.2-0.2,0.3-0.5,0.2-0.7
	l-1.3-1.9l-0.4-0.6l-1.3-1.9C26,44.9,25.7,44.9,25.4,45.1z"/>
<path class="st0" d="M39.3,26.6c-0.2-1.1-0.6-2-1.1-2.8c-0.9-1.5-1.5-5-0.5-7.3c0.8-1.9,2.8-3.1,5-3.1c0.6,0,1.2,0.1,1.8,0.3
	c0.4,0.1,0.8,0.2,1.2,0.2c1.5,0,2.8-1,4-1.9c1.2-0.9,2.3-1.8,3.7-1.8c0.4,0,0.9,0.1,1.3,0.3c2.2,1,1.4,3.5,0.9,5L55.5,16l-0.6-0.2
	c-0.9-0.3-1.9-0.5-2.8-0.5c-4.9,0-8,4.3-8.8,6.9v0v0c-1,2.3-2.3,3.8-2.3,3.9l0,0c-0.2,0.2-0.4,0.4-0.6,0.6l-0.8,0.9L39.3,26.6z"/>
<path class="st1" d="M53.5,10.7c0.3,0,0.7,0.1,1,0.2c1.5,0.7,1.2,2.3,0.6,4.3c-1-0.3-2-0.5-3-0.5c-5,0-8.4,4.3-9.4,7.4
	c-1,2.3-2.2,3.7-2.2,3.7c-0.2,0.2-0.4,0.4-0.6,0.6c-0.2-1-0.6-2-1.1-3c-0.8-1.3-1.4-4.6-0.5-6.7c0.8-1.7,2.6-2.7,4.4-2.7
	c0.5,0,1.1,0.1,1.6,0.2c0.5,0.2,1,0.2,1.4,0.2C49,14.4,51,10.7,53.5,10.7z M53.5,9.4c-1.6,0-2.9,1-4.1,1.9c-1.2,0.9-2.3,1.8-3.6,1.8
	c-0.3,0-0.7-0.1-1-0.2c-0.6-0.2-1.3-0.3-2-0.3c-2.4,0-4.6,1.4-5.6,3.5c-1.1,2.5-0.4,6.2,0.5,7.9c0.4,0.8,0.8,1.7,1,2.7l0.6,2.3
	l1.6-1.8c0.2-0.2,0.4-0.4,0.6-0.6l0,0l0,0c0.1-0.1,1.4-1.6,2.4-4l0-0.1l0-0.1c0.8-2.5,3.7-6.5,8.2-6.5c0.8,0,1.7,0.2,2.6,0.4
	l1.2,0.4l0.4-1.2c0.4-1.2,0.6-2.1,0.6-3c-0.1-1.6-1-2.4-1.8-2.7C54.5,9.6,54,9.4,53.5,9.4z"/>
<path class="st2" d="M86.7,71.7c-0.3,0-0.8-0.2-1-1.1l-0.2-0.9c-0.5-1.9-0.6-2.2-0.6-2.2c-0.2-0.6-0.4-1.1-0.7-1.7
	c-2.5-6-6.8-11.3-11.8-15c-5.5-4-11.7-6.1-18.2-6.1c-0.8,0-1.6,0-2.4,0.1l-0.6,0l0-0.6c-0.3-5.3-3.1-9-5.4-12
	c-1.8-2.4-3.4-4.4-3.2-6.6c0.2-3.1,4-9.3,10.3-9.3c3.4,0,6.8,1.7,10.3,5.2c0.1,0.1,0.3,0.4,0.6,0.8c9.8,9.5,18.3,25.5,22.7,42.7
	c0.4,1.5,1.1,5,1.2,5.2c0.1,0.6,0,1-0.2,1.3C87.2,71.6,87,71.7,86.7,71.7z"/>
<path class="st1" d="M52.7,16.8c2.8,0,6.2,1.4,9.8,5c0.1,0.1,0.3,0.4,0.6,0.7C73.4,32.5,81.6,49,85.7,65c0.4,1.4,1.1,4.9,1.2,5.2
	c0.1,0.5,0,0.9-0.2,0.9c-0.2,0-0.3-0.2-0.4-0.7c-0.1-0.3-0.2-0.6-0.2-0.9c-0.3-1.2-0.6-2.1-0.6-2.3c-0.2-0.6-0.4-1.2-0.7-1.7
	C79.6,53.5,67.9,44,54.1,44c-0.8,0-1.6,0-2.5,0.1c-0.6-9.7-8.9-14-8.6-18.6C43.3,22.5,46.9,16.8,52.7,16.8z M52.7,15.6
	c-2.9,0-5.7,1.3-7.8,3.6c-1.7,1.9-2.9,4.3-3.1,6.3c-0.2,2.4,1.4,4.6,3.3,7c2.3,3.1,5,6.6,5.3,11.7l0.1,1.2l1.2-0.1
	c0.8-0.1,1.6-0.1,2.4-0.1c6.3,0,12.5,2.1,17.8,6c5,3.7,9.2,8.9,11.7,14.8c0.2,0.6,0.5,1.1,0.7,1.7c0,0,0.1,0.3,0.6,2.2
	c0.1,0.3,0.2,0.6,0.2,0.9c0.4,1.4,1.3,1.6,1.6,1.6c0.4,0,0.8-0.2,1.1-0.5c0.4-0.4,0.5-1.1,0.3-1.8c-0.1-0.3-0.8-3.8-1.2-5.3
	c-2.1-8.2-5.2-16.4-9.1-23.7c-4-7.8-8.8-14.4-13.8-19.3c-0.4-0.5-0.6-0.7-0.7-0.8C59.8,17.4,56.2,15.6,52.7,15.6z"/>
<path class="st2" d="M49.1,95.5c-6.9,0-13.5-1.5-19.6-4.4h0c-3-1.5-5.8-3.3-8.4-5.5l-0.3-0.2l-0.1-0.3c-2.1-8.7-0.6-17.7,4.1-25.3
	c6.1-9.7,16.6-15.5,28.1-15.5c6.2,0,12.2,1.7,17.5,5c9.6,6,15.4,16.3,15.5,27.6v0.4l-0.2,0.3C76.9,89,63.5,95.5,49.1,95.5z"/>
<path class="st1" d="M52.9,45.4c5.8,0,11.6,1.6,16.9,4.8c9.6,6,14.9,16.2,15,26.7c-8.3,10.7-21.2,17.5-35.7,17.5
	c-6.9,0-13.4-1.5-19.2-4.3c-2.9-1.5-5.6-3.3-8.1-5.3c-1.9-8-0.8-16.8,3.9-24.4C31.8,50.7,42.2,45.4,52.9,45.4z M52.9,43.2
	c-5.7,0-11.3,1.4-16.3,4.1c-5.2,2.8-9.5,6.9-12.6,11.9c-4.9,7.8-6.4,17.1-4.2,26.1l0.2,0.7l0.6,0.5c2.7,2.2,5.5,4,8.5,5.6h0h0
	c6.3,3,13.1,4.5,20.1,4.5c7.4,0,14.6-1.7,21.2-5c6.3-3.1,11.9-7.8,16.2-13.4l0.5-0.6v-0.7c-0.2-11.7-6.2-22.3-16.1-28.5
	C65.5,45,59.3,43.2,52.9,43.2z"/>
<path class="st0" d="M48.1,46.7c-0.7,0-1.3-0.2-1.6-0.4l-0.1-0.1c-0.7-0.3-1.6-1-1.9-2.2c-0.4-1.4,0-3.1,1.2-4.9c0,0,0,0,0,0
	c0-0.1-0.2-0.4-0.3-0.6c-0.2-0.2-0.4-0.6-0.6-1c-0.2-0.5-0.1-1.1,0.1-1.9c0.1-0.3,0.2-0.7,0.2-0.8c-0.1-0.3-0.6-1.4-0.9-2L44,32.5
	l0.6-0.4h0.2c0.2,0,0.5,0,1.4,1.2c1.7,2.3,3.2,5.3,4.1,8.5c0,0.2,0.1,0.4,0.2,0.6c0.2,0.9,0.5,1.6,0.5,1.9l0,0.2l-0.1,0.2
	C50.2,46.1,49.3,46.7,48.1,46.7z"/>
<path class="st1" d="M44.8,32.7c0.2,0,0.9,0.9,0.9,0.9c1.6,2.1,3.1,5,3.9,8.3c0.2,0.6,0.6,2.1,0.7,2.5c-0.6,1.3-1.4,1.7-2.2,1.7
	c-0.6,0-1.2-0.3-1.5-0.4c-0.9-0.4-3.1-2.2-0.4-6.2c0.4-0.6-0.3-1.1-0.8-2.2c-0.2-0.5,0.4-2,0.3-2.5C45.6,34.3,44.7,32.7,44.8,32.7z
	 M44.8,31.5c-0.2,0-0.5,0.1-0.7,0.2l-1,0.6l0.5,1c0.3,0.7,0.7,1.4,0.8,1.7c0,0.2-0.1,0.4-0.1,0.6c-0.2,0.8-0.4,1.6-0.1,2.3
	c0.2,0.4,0.4,0.7,0.6,1c0,0.1,0.1,0.1,0.1,0.2c-1.2,1.9-1.6,3.6-1.1,5.2c0.4,1.4,1.4,2.2,2.3,2.6c0,0,0.1,0,0.1,0.1
	c0.4,0.2,1.1,0.5,1.9,0.5c1,0,2.3-0.4,3.2-2.3l0.2-0.3l-0.1-0.4c-0.1-0.4-0.2-1-0.5-2c-0.1-0.2-0.1-0.5-0.2-0.6
	c-0.9-3.3-2.4-6.4-4.2-8.7C45.8,31.8,45.3,31.5,44.8,31.5z"/>
<path class="st4" d="M36.3,37.3c-0.5,0-0.9-0.2-1.1-0.6c-0.5-0.7-0.2-1.7,0.2-2.9c1-2.8,2.8-5.2,5-7.1l1.2-1l0.3,1.5
	c0.3,1.4,1.5,3,2.7,4.7l0.7,0.9l-1,0.5c-1.5,0.7-2.9,1.5-4.2,2.3C38.2,36.7,37.2,37.3,36.3,37.3z"/>
<path class="st1" d="M41,27.4c0.3,1.6,1.5,3.2,2.9,5c-3.4,1.5-6.4,3.9-7.6,3.9c-0.6,0-0.6-0.6-0.1-2.2C37.5,30.9,39.4,28.8,41,27.4z
	 M42.2,24l-2.4,2c-2.3,1.9-4.2,4.5-5.3,7.5c-0.5,1.3-0.9,2.7-0.1,3.8c0.4,0.6,1.1,1,1.9,1c1.1,0,2.3-0.7,4.3-1.9
	c1.2-0.7,2.6-1.5,4.1-2.2l2.1-1l-1.4-1.9c-1.1-1.5-2.3-3.1-2.6-4.3L42.2,24z"/>
<path class="st1" d="M83.9,77.8c0-3-0.4-6-1-8.8c-0.6-1.7-1.1-1.8-1.5-1.7c-0.2,0-0.4,0.3-0.5,0.5c-0.2,0.4-0.2,1-0.1,1.3
	c0.1,0.3,0.2,0.6,0.2,0.9c0.6,2.7,1,5.6,1,8.7c0,0.9,0,1.8-0.1,2.6C82.7,80.2,83.3,79.1,83.9,77.8z"/>
<path class="st1" d="M80.7,83.2c0.3-1.7,0.5-3.4,0.5-5.2c0-15.7-12.7-28.4-28.4-28.4S24.4,62.4,24.4,78.1c0,3.5,0.6,6.9,1.8,10
	c7,4.4,15.2,7,24.1,7C62,95,72.7,90.6,80.7,83.2z"/>
<path class="st2" d="M52.8,81.5c1.9,0,3.4-1.5,3.4-3.4c0-1.9-1.5-3.4-3.4-3.4s-3.4,1.5-3.4,3.4C49.4,79.9,50.9,81.5,52.8,81.5z"/>
<path class="st1" d="M55,80.3c-1.2,1.2-3.1,1.2-4.3,0s3.1-5.5,4.3-4.3C56.2,77.2,56.2,79.1,55,80.3z"/>
<path class="st2" d="M52.8,57.7c-0.2,0-0.5-0.2-0.5-0.5v-2.2c0-0.2,0.2-0.5,0.5-0.5c0.2,0,0.5,0.2,0.5,0.5v2.2
	C53.2,57.5,53,57.7,52.8,57.7z"/>
<path class="st2" d="M55.9,73.8c-0.2-0.2-0.3-0.4-0.1-0.6l6.1-8.9c0.2-0.2,0.4-0.3,0.6-0.1c0.2,0.2,0.3,0.4,0.1,0.6l-6.1,8.9
	C56.4,73.9,56.1,74,55.9,73.8z"/>
<path class="st2" d="M47.2,79c0.1,0.2-0.1,0.5-0.4,0.5l-7.1,1.3c-0.2,0.1-0.5-0.1-0.5-0.4c-0.1-0.2,0.1-0.5,0.4-0.5l7.1-1.3
	C46.9,78.6,47.2,78.8,47.2,79z"/>
<path class="st2" d="M67.2,63.7c-0.2-0.2-0.2-0.5,0-0.6l1.5-1.5c0.2-0.2,0.5-0.2,0.6,0c0.2,0.2,0.2,0.5,0,0.6l-1.5,1.5
	C67.6,63.8,67.4,63.8,67.2,63.7z"/>
<path class="st2" d="M38.1,93.4l0.2-0.2c0.2-0.2,0.2-0.5,0-0.6c-0.2-0.2-0.5-0.2-0.6,0l-0.6,0.6C37.4,93.2,37.8,93.3,38.1,93.4z"/>
<path class="st2" d="M32.4,78.1c0,0.2-0.2,0.5-0.5,0.5h-2.2c-0.2,0-0.5-0.2-0.5-0.5c0-0.2,0.2-0.5,0.5-0.5H32
	C32.2,77.6,32.4,77.8,32.4,78.1z"/>
<path class="st2" d="M73.1,78.1c0,0.2,0.2,0.5,0.5,0.5h2.2c0.2,0,0.5-0.2,0.5-0.5c0-0.2-0.2-0.5-0.5-0.5h-2.2
	C73.3,77.6,73.1,77.8,73.1,78.1z"/>
<path class="st2" d="M38.4,63.7c-0.2,0.2-0.5,0.2-0.6,0l-1.5-1.5c-0.2-0.2-0.2-0.5,0-0.6s0.5-0.2,0.6,0l1.5,1.5
	C38.6,63.2,38.6,63.5,38.4,63.7z"/>
<path class="st2" d="M44.9,59.3c-0.2,0.1-0.5,0-0.6-0.2l-0.8-2c-0.1-0.2,0-0.5,0.2-0.6c0.2-0.1,0.5,0,0.6,0.2l0.8,2
	C45.3,58.9,45.2,59.2,44.9,59.3z"/>
<path class="st2" d="M60.5,59.3c-0.2-0.1-0.3-0.4-0.2-0.6l0.8-2c0.1-0.2,0.4-0.3,0.6-0.2c0.2,0.1,0.3,0.4,0.2,0.6l-0.8,2
	C61,59.2,60.8,59.3,60.5,59.3z"/>
<path class="st2" d="M34,85.9c0.1,0.2,0,0.5-0.2,0.6l-2,0.8c-0.2,0.1-0.5,0-0.6-0.2c-0.1-0.2,0-0.5,0.2-0.6l2-0.8
	C33.6,85.5,33.9,85.6,34,85.9z"/>
<path class="st2" d="M71.6,70.3c0.1,0.2,0.4,0.3,0.6,0.2l2-0.8c0.2-0.1,0.3-0.4,0.2-0.6c-0.1-0.2-0.4-0.3-0.6-0.2l-2,0.8
	C71.6,69.7,71.5,70,71.6,70.3z"/>
<path class="st2" d="M34,70.3c-0.1,0.2-0.4,0.3-0.6,0.2l-2-0.8c-0.2-0.1-0.3-0.4-0.2-0.6c0.1-0.2,0.4-0.3,0.6-0.2l2,0.8
	C33.9,69.8,34.1,70.1,34,70.3z"/>
<path class="st2" d="M71.6,85.8c-0.1,0.2,0,0.5,0.2,0.6l2,0.8c0.2,0.1,0.5,0,0.6-0.2c0.1-0.2,0-0.5-0.2-0.6l-2-0.8
	C72,85.5,71.7,85.6,71.6,85.8z"/>
<path class="st1" d="M75.3,57.6c-0.2,0.2-0.5,0.2-0.6,0l-1.5-1.5c-0.2-0.2-0.2-0.5,0-0.6c0.2-0.2,0.5-0.2,0.6,0l1.5,1.5
	C75.5,57.2,75.5,57.5,75.3,57.6z"/>
<path class="st1" d="M24.6,85.4c-0.9-2.7-1.2-5.4-1-8c0-0.7-0.6-1.4-1.1-1.2l-0.3,0.1c-0.3,0.1-0.5,0.5-0.5,0.9
	c-0.1,2.9,0.3,5.8,1.2,8.5c0.8,0.6,1.7,1.2,2.5,1.8C25.1,86.8,24.8,86.1,24.6,85.4z"/>
</svg>
