<svg width="20" height="20" viewBox="0 0 20 20" fill="none" xmlns="http://www.w3.org/2000/svg">
<path d="M0.349728 0H3.28021C3.46111 0 3.61788 0.113203 3.61788 0.252531V1.968C3.61788 2.03766 3.54552 2.08991 3.44905 2.08991H0.168834C0.0723576 2.08991 0 2.03766 0 1.968V0.252531C0 0.113203 0.156775 0 0.349728 0Z" transform="matrix(-0.732035 -0.664077 -0.722875 0.708388 17.5591 4.60205)" fill="white"/>
<path d="M0.663278 0C0.434146 0 0.205013 0.0261233 0 0.0783711L0.482384 1.47164C0.530622 1.61097 0.795934 1.61097 0.844172 1.47164L1.32656 0.0783711C1.12154 0.0261233 0.89241 0 0.663278 0Z" transform="matrix(-0.732035 -0.664077 -0.722876 0.708388 4.39111 15.9233)" fill="white"/>
<path d="M0.99451 3.02819C1.2357 2.97594 1.48895 2.94982 1.74221 2.94982C1.99546 2.94982 2.26077 2.97594 2.4899 3.02819L3.45467 0.241646C3.49085 0.13715 3.34613 0.0413636 3.20142 0.0849034L2.70697 0.22423C2.65873 0.232938 2.6105 0.232938 2.56226 0.22423L1.8025 0.00653097C1.75426 -0.00217699 1.70603 -0.00217699 1.65779 0.00653097L0.898033 0.22423C0.849795 0.232938 0.801556 0.232938 0.753318 0.22423L0.258874 0.0849034C0.114159 0.0413636 -0.030556 0.13715 0.00562282 0.241646L0.99451 3.02819Z" transform="matrix(-0.732035 -0.664077 -0.722876 0.708388 7.50195 14.3652)" fill="white"/>
<path d="M3.41287 0H1.80894H0.205013C0.0964768 0 0 0.0574209 0 0.122019V10.91C0 10.9171 0.0120596 10.9315 0.0241192 10.9315C0.132656 10.9602 0.61504 11.0679 0.61504 11.0679C0.675338 11.0822 0.735636 11.0822 0.783874 11.0679L1.72452 10.8454C1.74864 10.8382 1.78482 10.8382 1.80894 10.8382C1.83306 10.8382 1.86924 10.8382 1.89336 10.8454L2.83401 11.0679C2.8943 11.0822 2.9546 11.0822 3.00284 11.0679C3.00284 11.0679 3.48522 10.953 3.59376 10.9315C3.60582 10.9315 3.61788 10.9171 3.61788 10.91V0.122019C3.61788 0.0574209 3.5214 0 3.41287 0Z" transform="matrix(-0.732035 -0.664077 -0.722876 0.708388 15.7383 6.38574)" fill="white"/>
</svg>
