<svg id="Layer_1" data-name="Layer 1" xmlns="http://www.w3.org/2000/svg" viewBox="0 0 911.91 756.16">
  <defs>
    <style>
      .cls-1 {
        fill: #ffc313;
      }

      .cls-2 {
        fill: #293541;
      }

      .cls-3 {
        fill: #33404c;
      }

      .cls-4 {
        fill: #eff3f6;
      }

      .cls-5 {
        fill: #dfe2e5;
      }

      .cls-6 {
        fill: none;
        stroke: #293541;
        stroke-linecap: round;
        stroke-miterlimit: 10;
        stroke-width: 10px;
        stroke-dasharray: 20 30;
      }
    </style>
  </defs>
  <title>404</title>
  <g>
    <path class="cls-1" d="M637.91,823.79c-9.2-2.21-14.74-2.6-25.13-3-15.3-.54-18.85-6.62-24.44-9.76-1.77-1-3.18-5.84-4.31-13.55l-75.15-1.88c-2.66,23.75-10.46,25.06-11.76,39.28-1.44,15.64-.32,34.31,1.15,36.29,2.57,3.47,6.63,10.42,12.6,10.4,12.38,0,25.2,11.31,37.61,11.13,18.86-.29,55.26,16.81,55.26,16.81s25.7,5.33,36.84-2.27a41.12,41.12,0,0,0,13.83-15.9c0-.39-.06-.78-.08-1.19a54.84,54.84,0,0,0-1.85-23.49,22.67,22.67,0,0,0-7.68-10.89c-5.06-4.08-4.32-4.42,1.46,1.1,5.18,5,10,14,11.06,18.5.75,3.17-.05,10,.76,13.25,18.37-6.49,19.77-29.6,8.13-51.61-2.57-4.86-9.1-7.19-16.71-9.52C645.8,826.39,641.29,824.6,637.91,823.79Z" transform="translate(-84.14 -161.84)"/>
    <path class="cls-2" d="M645.13,854.46c16.52,9.5,13,34.18,13,34.18s-1.68,1.14-2.52.58.59-.23-1.51,3.62c0,0,0,.14,0,0a.43.43,0,0,1,0-.16c1.75-11.47.1-22.67-4.1-29.15-1.36-2.1-16.95-2.61-18.5-4.12-1.76-1.72,5.11-2.09,7-4.86,1.31-1.94-1.88-7.22-2.81-8.53-2.64-3.69-7.54-9.56-5.2-8.43,1.07.51,4.54,6.2,8.28,10.82A29.42,29.42,0,0,0,645.13,854.46Z" transform="translate(-84.14 -161.84)"/>
    <path class="cls-1" d="M628.13,874.59s5.89-14.3,20.48-12.93h0c.14.19.29.37.43.57l.12.16c.11.15.22.3.32.46a.71.71,0,0,1,.1.14q.21.3.39.6l.08.12.3.51.11.18c.1.18.21.36.31.55a.22.22,0,0,0,.05.08l.33.66a.8.8,0,0,1,.08.16c.09.17.18.35.26.53s0,.11.08.16l.3.68,0,0,.27.66c0,.06.05.12.07.17s.16.4.23.6a.36.36,0,0,1,0,.11c.09.23.18.47.26.71a.76.76,0,0,1,0,.11l.21.62s0,.1.05.15c.16.49.31,1,.44,1.46l0,.13.18.65,0,.1c.07.25.13.5.2.75h0a64.9,64.9,0,0,1,1.68,15.66,23,23,0,0,1-1.51,3.58l-.09.17v0c-.89,1.77-4.06,5.37-6.26,8.07Z" transform="translate(-84.14 -161.84)"/>
    <path class="cls-2" d="M675.49,851.83s11.85,14.41-1.16,12.22-.53,12-.79,16.78a4.06,4.06,0,0,1-.82,2.42c20.85,2.12,41.89.1,22.29-24.39q-3-3.81-5.87-7.07c-1-.62-2.06-1.26-3.06-1.93C671,839.79,675.49,851.83,675.49,851.83Z" transform="translate(-84.14 -161.84)"/>
    <path class="cls-2" d="M631.78,858.09s-13.24,1.86-13.22,9.81,6.32,11.77,9.56,20.18,5.34,10.39,5.35,14.93-8.09,5.72-8.09,5.72-2.68,2.27,3.28,2.82,39.07-4.52,38.79-4.38S631.78,858.09,631.78,858.09Z" transform="translate(-84.14 -161.84)"/>
    <path class="cls-3" d="M685.45,893c-11.46-14.32-20.65-22.77-27.7-27.72-1.11-1-9.76-5.53-11.87-6.15-4.1-1.2-11-.56-13.71,0-8.11,1.76-16.09,7-9.68,15,1.26,1.57,11.78,18.61,12.1,27.88,0,9.09-8.27,7.52-7.11,9.06.38.51,6.37,1.89,7.27,2C644.51,913.93,716.72,932.05,685.45,893Z" transform="translate(-84.14 -161.84)"/>
    <path class="cls-2" d="M665.92,886s11.86,14.41-1.15,12.21-.53,12-.8,16.79a4.1,4.1,0,0,1-.81,2.41c20.85,2.13,41.89.1,22.29-24.39-2-2.54-4-4.88-5.88-7.07-1-.62-2.05-1.26-3.06-1.93C661.42,873.9,665.92,886,665.92,886Z" transform="translate(-84.14 -161.84)"/>
    <path class="cls-3" d="M694.59,858.33c-9.34-11.67-17.17-19.44-23.56-24.6a46.51,46.51,0,0,0-8.1-3.33c-6.59-2-14.32-3.35-15.73-3.76-4.1-1.2-11-.56-13.71,0-8.11,1.76-8.27,4.78-1.85,12.8a65.31,65.31,0,0,1,9.12,14.31,40.44,40.44,0,0,1,3,13.57c0,9.09-8.27,7.52-7.11,9.06.38.51,6.37,1.89,7.27,2C653.65,879.29,725.86,897.41,694.59,858.33Z" transform="translate(-84.14 -161.84)"/>
    <path class="cls-1" d="M628.13,874.59s5.89-14.3,20.48-12.93h0c.14.19.29.37.43.57l.12.16c.11.15.22.3.32.46a.71.71,0,0,1,.1.14q.21.3.39.6l.08.12.3.51.11.18c.1.18.21.36.31.55a.22.22,0,0,0,.05.08l.33.66a.8.8,0,0,1,.08.16c.09.17.18.35.26.53s0,.11.08.16l.3.68,0,0,.27.66c0,.06.05.12.07.17s.16.4.23.6a.36.36,0,0,1,0,.11c.09.23.18.47.26.71a.76.76,0,0,1,0,.11l.21.62s0,.1.05.15c.16.49.31,1,.44,1.46l0,.13.18.65,0,.1c.07.25.13.5.2.75h0a64.9,64.9,0,0,1,1.68,15.66,23,23,0,0,1-1.51,3.58l-.09.17v0c-.89,1.77-4.06,5.37-6.26,8.07Z" transform="translate(-84.14 -161.84)"/>
    <path class="cls-2" d="M675.49,851.83s11.85,14.41-1.16,12.22-.53,12-.79,16.78a4.06,4.06,0,0,1-.82,2.42c20.85,2.12,41.89.1,22.29-24.39q-3-3.81-5.87-7.07c-1-.62-2.06-1.26-3.06-1.93C671,839.79,675.49,851.83,675.49,851.83Z" transform="translate(-84.14 -161.84)"/>
    <path class="cls-2" d="M632.32,910.46a19.38,19.38,0,0,0-6.94-1.73,35.56,35.56,0,0,1-6.65,2.56A58.75,58.75,0,0,0,632.32,910.46Z" transform="translate(-84.14 -161.84)"/>
    <path class="cls-3" d="M685.45,893c-11.46-14.32-20.65-22.77-27.7-27.72-1.11-1-9.76-5.53-11.87-6.15-4.1-1.2-11-.56-13.71,0-8.11,1.76-16.09,7-9.68,15,1.26,1.57,11.78,18.61,12.1,27.88,0,9.09-8.27,7.52-7.11,9.06.38.51,6.37,1.89,7.27,2C644.51,913.93,716.72,932.05,685.45,893Z" transform="translate(-84.14 -161.84)"/>
    <path class="cls-2" d="M645.13,854.46a29.42,29.42,0,0,1-6.48-6.08c-3.74-4.62-7.21-10.31-8.28-10.82a1.77,1.77,0,0,0-.28-.11c-4.78-6.53-4-9.19,3.4-10.79,2.7-.58,9.61-1.22,13.71,0,.23.07.65.16,1.2.27-1.91-.94-5.17-2.13-6.87-2.08a55.88,55.88,0,0,0-16.35,3c-7,2.52-.37,7.4,2.84,9.41.89.55,5.94,6.5,7.55,8.75.93,1.31,4.12,6.59,2.81,8.53a5.87,5.87,0,0,1-2.38,1.81,45.72,45.72,0,0,1-6.19,2.16c-3.69.87-11.26,3.4-11.25,9.41,0,7.94,6.32,11.77,9.56,20.18s5.34,10.39,5.35,14.93-8.09,5.72-8.09,5.72-2.68,2.27,3.28,2.82a3.27,3.27,0,0,1-1.18-.51c-1.16-1.54,7.13,0,7.11-9.06-.32-9.27-10.84-26.31-12.1-27.88-6.19-7.74,1-12.87,8.85-14.79h0l.83-.19.21,0,.1,0c2.89-.57,9.45-1.12,13.4,0a61.91,61.91,0,0,1,7.6,3.6A23.23,23.23,0,0,0,645.13,854.46Z" transform="translate(-84.14 -161.84)"/>
    <path class="cls-2" d="M665.92,886s11.86,14.41-1.15,12.21-.53,12-.8,16.79a4.1,4.1,0,0,1-.81,2.41c20.85,2.13,41.89.1,22.29-24.39-2-2.54-4-4.88-5.88-7.07-1-.62-2.05-1.26-3.06-1.93C661.42,873.9,665.92,886,665.92,886Z" transform="translate(-84.14 -161.84)"/>
    <path class="cls-1" d="M149.12,810.6c9.24-2.26,14.8-2.67,25.24-3.09,15.38-.62,18.91-6.75,24.52-9.93,1.77-1,3.17-5.88,4.27-13.62l75.5-2.24c2.77,23.86,10.61,25.14,12,39.42,1.51,15.71.48,34.47-1,36.47C287.08,861.1,283,868.1,277,868.12c-12.44,0-25.27,11.47-37.73,11.34-19-.2-55.46,17.15-55.46,17.15s-25.79,5.47-37-2.12a41.28,41.28,0,0,1-14-15.91c0-.39,0-.79.07-1.2a55.11,55.11,0,0,1,1.75-23.61,22.79,22.79,0,0,1,7.67-11c5.06-4.12,4.32-4.46-1.46,1.12-5.19,5-10,14.12-11,18.63-.75,3.19.09,10.05-.71,13.32-18.49-6.44-20-29.65-8.4-51.82,2.57-4.89,9.11-7.27,16.75-9.64C141.21,813.25,145.73,811.43,149.12,810.6Z" transform="translate(-84.14 -161.84)"/>
    <path class="cls-2" d="M142,841.45c-16.56,9.61-12.86,34.4-12.86,34.4s1.69,1.14,2.53.57-.59-.22,1.54,3.63c0,0,0,.14,0,0a.43.43,0,0,0,0-.16c-1.81-11.52-.2-22.78,4-29.3,1.36-2.12,17-2.7,18.57-4.23,1.76-1.74-5.14-2.07-7-4.85-1.32-2,1.86-7.27,2.79-8.59,2.64-3.71,7.53-9.63,5.18-8.49-1.07.52-4.53,6.25-8.26,10.91A29.82,29.82,0,0,1,142,841.45Z" transform="translate(-84.14 -161.84)"/>
    <path class="cls-1" d="M159.18,861.6s-6-14.34-20.64-12.9h0l-.43.57-.12.16-.33.46-.1.15-.39.6a.75.75,0,0,1-.07.12c-.1.17-.21.34-.31.52l-.1.18-.31.55,0,.09c-.12.21-.23.43-.34.65a1.3,1.3,0,0,0-.08.17c-.09.17-.17.35-.26.53s0,.11-.07.17c-.11.22-.21.45-.31.68v0c-.09.22-.19.44-.27.67a.87.87,0,0,0-.07.17c-.08.2-.16.4-.23.6a.36.36,0,0,0,0,.11c-.09.24-.18.48-.26.72a.36.36,0,0,0,0,.11l-.21.62a.88.88,0,0,1-.05.15c-.15.49-.3,1-.44,1.47l0,.13-.18.65,0,.1c-.07.26-.13.51-.19.76h0a64.86,64.86,0,0,0-1.62,15.74,22.73,22.73,0,0,0,1.53,3.59l.09.18h0c.91,1.77,4.1,5.38,6.32,8.08Z" transform="translate(-84.14 -161.84)"/>
    <path class="cls-2" d="M111.5,839s-11.85,14.53,1.21,12.27.59,12,.88,16.85a4.14,4.14,0,0,0,.82,2.43c-20.93,2.23-42.08.28-22.5-24.41q3-3.84,5.87-7.13c1-.62,2.06-1.28,3.07-2C116,826.82,111.5,839,111.5,839Z" transform="translate(-84.14 -161.84)"/>
    <path class="cls-2" d="M155.43,845s13.32,1.81,13.33,9.79-6.29,11.86-9.51,20.32-5.31,10.47-5.31,15,8.16,5.71,8.16,5.71,2.7,2.26-3.28,2.85-39.28-4.37-39-4.23S155.43,845,155.43,845Z" transform="translate(-84.14 -161.84)"/>
    <path class="cls-3" d="M101.67,880.33c11.45-14.44,20.65-23,27.71-28,1.11-1,9.78-5.6,11.9-6.23,4.11-1.22,11.06-.61,13.77,0,8.16,1.73,16.2,6.93,9.79,15-1.26,1.59-11.74,18.76-12,28.07,0,9.13,8.34,7.51,7.18,9.07-.38.52-6.4,1.93-7.3,2C142.9,901.2,70.43,919.73,101.67,880.33Z" transform="translate(-84.14 -161.84)"/>
    <path class="cls-2" d="M121.26,873.18s-11.85,14.53,1.21,12.27.59,12,.88,16.86a4.13,4.13,0,0,0,.82,2.42c-20.93,2.23-42.08.29-22.5-24.4q3-3.84,5.87-7.13c1-.63,2.06-1.28,3.07-2C125.73,861.06,121.26,873.18,121.26,873.18Z" transform="translate(-84.14 -161.84)"/>
    <path class="cls-3" d="M92.33,845.56c9.33-11.77,17.16-19.61,23.56-24.82a47.1,47.1,0,0,1,8.13-3.39c6.61-2,14.37-3.42,15.79-3.84,4.11-1.23,11.05-.62,13.77,0,8.16,1.72,8.33,4.76,1.92,12.85a65.38,65.38,0,0,0-9.1,14.41,40.58,40.58,0,0,0-2.92,13.65c0,9.13,8.33,7.52,7.18,9.07-.39.52-6.4,1.94-7.3,2C133.56,866.44,61.09,885,92.33,845.56Z" transform="translate(-84.14 -161.84)"/>
    <path class="cls-1" d="M159.18,861.6s-6-14.34-20.64-12.9h0l-.43.57-.12.16-.33.46-.1.15-.39.6a.75.75,0,0,1-.07.12c-.1.17-.21.34-.31.52l-.1.18-.31.55,0,.09c-.12.21-.23.43-.34.65a1.3,1.3,0,0,0-.08.17c-.09.17-.17.35-.26.53s0,.11-.07.17c-.11.22-.21.45-.31.68v0c-.09.22-.19.44-.27.67a.87.87,0,0,0-.07.17c-.08.2-.16.4-.23.6a.36.36,0,0,0,0,.11c-.09.24-.18.48-.26.72a.36.36,0,0,0,0,.11l-.21.62a.88.88,0,0,1-.05.15c-.15.49-.3,1-.44,1.47l0,.13-.18.65,0,.1c-.07.26-.13.51-.19.76h0a64.86,64.86,0,0,0-1.62,15.74,22.73,22.73,0,0,0,1.53,3.59l.09.18h0c.91,1.77,4.1,5.38,6.32,8.08Z" transform="translate(-84.14 -161.84)"/>
    <path class="cls-2" d="M111.5,839s-11.85,14.53,1.21,12.27.59,12,.88,16.85a4.14,4.14,0,0,0,.82,2.43c-20.93,2.23-42.08.28-22.5-24.41q3-3.84,5.87-7.13c1-.62,2.06-1.28,3.07-2C116,826.82,111.5,839,111.5,839Z" transform="translate(-84.14 -161.84)"/>
    <path class="cls-2" d="M155.14,897.65a19.39,19.39,0,0,1,7-1.76,35.74,35.74,0,0,0,6.69,2.54A58.7,58.7,0,0,1,155.14,897.65Z" transform="translate(-84.14 -161.84)"/>
    <path class="cls-3" d="M101.67,880.33c11.45-14.44,20.65-23,27.71-28,1.11-1,9.78-5.6,11.9-6.23,4.11-1.22,11.06-.61,13.77,0,8.16,1.73,16.2,6.93,9.79,15-1.26,1.59-11.74,18.76-12,28.07,0,9.13,8.34,7.51,7.18,9.07-.38.52-6.4,1.93-7.3,2C142.9,901.2,70.43,919.73,101.67,880.33Z" transform="translate(-84.14 -161.84)"/>
    <path class="cls-2" d="M142,841.45a29.82,29.82,0,0,0,6.49-6.14c3.73-4.66,7.19-10.39,8.26-10.91l.29-.12c4.77-6.58,4-9.24-3.47-10.81-2.72-.58-9.66-1.19-13.77,0-.24.07-.65.16-1.2.27,1.91-.95,5.18-2.16,6.89-2.12a56.25,56.25,0,0,1,16.44,2.94c7,2.5.4,7.44-2.82,9.47-.89.56-5.93,6.56-7.54,8.82-.93,1.32-4.11,6.64-2.79,8.59a5.94,5.94,0,0,0,2.4,1.81,44.94,44.94,0,0,0,6.23,2.14c3.72.86,11.33,3.36,11.34,9.4,0,8-6.29,11.86-9.51,20.32s-5.31,10.47-5.31,15,8.16,5.71,8.16,5.71,2.7,2.26-3.28,2.85a3.62,3.62,0,0,0,1.18-.52c1.16-1.56-7.16.06-7.18-9.07.28-9.31,10.76-26.48,12-28.07,6.19-7.81-1.1-12.92-9-14.82h0l-.83-.19-.21,0-.1,0c-2.9-.55-9.49-1.08-13.46.1a62.44,62.44,0,0,0-7.62,3.65A23.32,23.32,0,0,1,142,841.45Z" transform="translate(-84.14 -161.84)"/>
    <path class="cls-2" d="M121.26,873.18s-11.85,14.53,1.21,12.27.59,12,.88,16.86a4.13,4.13,0,0,0,.82,2.42c-20.93,2.23-42.08.29-22.5-24.4q3-3.84,5.87-7.13c1-.63,2.06-1.28,3.07-2C125.73,861.06,121.26,873.18,121.26,873.18Z" transform="translate(-84.14 -161.84)"/>
    <path class="cls-1" d="M242.32,835.23c11.47,1.27,30.46-25.37,45.17-25.29,17.45-76.69,87.12-191.72,87.12-191.72,14.71-61.74-158.21-21-158.21-21s14.18,87.8-17.15,191.4C214.51,795.63,225.55,833.36,242.32,835.23Z" transform="translate(-84.14 -161.84)"/>
    <path class="cls-1" d="M242.32,834.9c11.47,1.27,30.46-25.36,45.17-25.29,17.45-76.68,87.12-191.71,87.12-191.71,14.71-61.75-158.22-21-158.22-21s14.19,87.8-17.14,191.41C214.5,795.3,225.55,833,242.32,834.9Z" transform="translate(-84.14 -161.84)"/>
    <g>
      <path class="cls-3" d="M326,700.42c-7,2.79-22.8,3.67-39.47,1.59-4.85-.6-28.07-6.26-48.92-16.4-12.76-6.11-17.31-10.51-18.62-13.42-.69,14.09-2.06,29.68-4.45,46.33,7,6.55,20.31,14,45.41,18.78,28.13,5.31,42.11,5.84,50.6,4.68,6.51-15.27,13.62-30.44,20.66-44.66A17.17,17.17,0,0,1,326,700.42Z" transform="translate(-84.14 -161.84)"/>
      <path class="cls-3" d="M219.77,667.7s-.25,0-.57.13c0,.17,0,.33,0,.5A3.41,3.41,0,0,1,219.77,667.7Z" transform="translate(-84.14 -161.84)"/>
    </g>
    <path class="cls-3" d="M293.88,786.51c-6.45,2.39-19.24,3-40.13-5.22-23.42-11.43-38.14-21.33-45.64-26.95-2.34,10.56-5.12,21.4-8.41,32.42,4.18,3.23,9.44,6.79,16,11A174,174,0,0,0,252,814.15a65.67,65.67,0,0,0,19.4,2.55c5.55-4,11.07-7.11,16.09-7.09C289.17,802.22,291.34,794.48,293.88,786.51Z" transform="translate(-84.14 -161.84)"/>
    <path class="cls-3" d="M245.39,645.48c-22.48-12.23-25.88-14.26-32.64-23.46-6.38-8.69,2-39.67,12.25-52.26,7.82-9.62,16.91-3.76,16.91-3.76s9.62-3.37,57.46,16.52,68.77,38.18,68.77,38.18,3.57.7,3.29,11.75c-.34,13.07-6.43,30.57-16.18,36.78C333,683.37,278.94,663.72,245.39,645.48Z" transform="translate(-84.14 -161.84)"/>
    <path class="cls-2" d="M368.14,620.7s-20.93-18.29-68.77-38.18S241.91,566,241.91,566s-9.09-5.86-16.91,3.76c-3.95,4.85-7.62,12.44-10.28,20.42a12.18,12.18,0,0,0,1.16,2.28c7.36,11.21,11,14.06,35.11,31.6,31.87,23.2,77.51,40.43,106.21,43.86,8.55-6.75,13.95-24.76,14.23-35.47C371.71,621.4,368.14,620.7,368.14,620.7Z" transform="translate(-84.14 -161.84)"/>
    <path class="cls-4" d="M251.62,617.4c-22.39-16.65-27.86-23.87-34.59-34.74-6.35-10.27,16.72-21.9,26.94-33.59,7.81-8.94,2.7-13,2.7-13s9.59-2,57.24,26.94,68.48,51.79,68.48,51.79,6.46,1.77,3.26,13c-8.71,30.64-4.18,35.27-15.2,35.53C334.59,664,285,642.26,251.62,617.4Z" transform="translate(-84.14 -161.84)"/>
    <path class="cls-1" d="M566.89,855.73c9.92-4.85,11.6-36.09,23.51-43.57-25.22-70.85-27.95-199.43-27.95-199.43C542.67,555.35,424,676.87,424,676.87s56.46,63.61,84.28,163.3C524.14,838,552.4,862.82,566.89,855.73Z" transform="translate(-84.14 -161.84)"/>
    <path class="cls-3" d="M535.22,659c24.25-15.5,27.92-18.08,35-29.77,6.65-11-4-50.51-15.87-66.56-9.06-12.27-18.83-4.83-18.83-4.83s-10.76-4.32-62.65,20.87-74.15,48.42-74.15,48.42-3.91.88-3.1,15c1,16.64,13.13,44.59,25.42,47.1C449.83,695.09,499,682.15,535.22,659Z" transform="translate(-84.14 -161.84)"/>
    <g>
      <g>
        <path class="cls-3" d="M574.23,744.16c-2.31-14.33-4.18-28.83-5.69-42.7-5.94,5.94-17.2,13.68-30.12,20.13-4.46,2.23-27.34,10.75-50.6,14.41-15.2,2.49-21.27,1.25-23.61-.51,6.6,11.55,13.44,24.62,20,39.08,9.37,1.57,25.07.46,50.32-10.37C554.79,755.52,566.73,749.18,574.23,744.16Z" transform="translate(-84.14 -161.84)"/>
        <path class="cls-3" d="M462.82,733.07a3.58,3.58,0,0,1,.16-1.19s-.24.22-.53.57Z" transform="translate(-84.14 -161.84)"/>
      </g>
      <path class="cls-3" d="M462.81,732h0Z" transform="translate(-84.14 -161.84)"/>
    </g>
    <g>
      <path class="cls-3" d="M590.4,812.16c-2.81-7.88-5.33-16.48-7.61-25.53a6.15,6.15,0,0,1-.51,2.38c-2.11,5.07-9.74,13.36-29.41,20.22-33.34,8.73-51.05,8.17-51,8.09-.24,0-.48,0-.71,0q3.75,11.1,7.07,22.88c3.93-.53,8.63.59,13.68,2.47,4.31-.26,9.41-.86,15.57-1.71a147.71,147.71,0,0,0,32.45-9.56,55.17,55.17,0,0,0,12.05-7.5C584.2,818.74,586.84,814.39,590.4,812.16Z" transform="translate(-84.14 -161.84)"/>
      <path class="cls-3" d="M500,813.93h0c.09-.07.45-.22.6-.3l-.05-.15a3.11,3.11,0,0,1-.45.27l-.15.06Z" transform="translate(-84.14 -161.84)"/>
      <path class="cls-3" d="M582.27,784.52a2.5,2.5,0,0,1-.07-.26l-.08,0Z" transform="translate(-84.14 -161.84)"/>
    </g>
    <path class="cls-2" d="M403.64,670.13c26.44-9.39,36.82-29.19,73.88-48.4,24.66-12.79,73.89-22.5,89-33.16A114.6,114.6,0,0,0,558,568.46a14,14,0,0,0-6,2.34S540.07,566,482.46,594s-82.34,53.76-82.34,53.76-1.8.41-2.84,4.87A90.22,90.22,0,0,0,403.64,670.13Z" transform="translate(-84.14 -161.84)"/>
    <path class="cls-4" d="M604.73,292.8v0a2,2,0,0,0-.05-.24c-.11-.58-.23-1.15-.35-1.72l-.24-1.13-.36-1.68c-.09-.38-.17-.77-.26-1.15-.12-.55-.25-1.1-.37-1.65l-.27-1.16-.39-1.62c-.1-.38-.19-.77-.29-1.16l-.4-1.6-.3-1.15-.42-1.59c-.1-.38-.21-.76-.31-1.14s-.29-1-.44-1.58c-.1-.37-.21-.74-.32-1.12l-.45-1.58-.33-1.08c-.16-.53-.31-1.06-.48-1.59-.1-.35-.21-.7-.32-1.05l-.51-1.6c-.1-.32-.21-.65-.32-1-.17-.55-.35-1.1-.54-1.64l-.27-.82c-.21-.59-.41-1.19-.61-1.78v0c-.56-1.62-1.15-3.23-1.75-4.82a.78.78,0,0,0,0-.14c-.21-.56-.43-1.12-.64-1.67l-.33-.86-.6-1.51c-.13-.33-.26-.66-.4-1-.19-.49-.39-1-.59-1.44s-.29-.69-.43-1l-.6-1.38c-.15-.36-.3-.71-.46-1.06l-.6-1.35-.48-1.07-.61-1.32c-.17-.35-.33-.71-.5-1.06s-.41-.87-.62-1.3l-.51-1.06-.64-1.28c-.17-.35-.35-.7-.53-1l-.64-1.26-.55-1-.65-1.24-.57-1-.66-1.22c-.2-.34-.39-.68-.58-1s-.45-.8-.68-1.19l-.6-1-.69-1.18-.6-1-.71-1.16-.61-1c-.25-.38-.49-.77-.73-1.15l-.59-.91c-.49-.76-1-1.5-1.48-2.24-.22-.32-.43-.65-.65-1s-.49-.7-.73-1.05-.46-.67-.7-1l-.73-1-.72-1-.74-1-.73-1-.76-1-.75-1c-.25-.33-.51-.65-.76-1l-.77-1-.78-.94-.78-.94-.79-.92-.8-.93-.79-.89-.82-.92-.8-.88-.85-.9c-.26-.29-.53-.57-.8-.86l-.87-.89-.81-.83c-.29-.3-.59-.59-.89-.89l-.81-.8-.92-.88-.81-.77-1-.9-.78-.72-1.08-1-.7-.63L550,190.3l-.55-.46-1.55-1.28-.71-.55-1.16-.92-.79-.6-1.1-.83c-.27-.21-.56-.41-.84-.62l-1.07-.78-.87-.61-1.07-.75-.9-.6-1.07-.72-.91-.59-1.09-.69-.92-.58-1.1-.66c-.31-.19-.62-.38-.94-.56l-1.11-.65-.95-.54-1.13-.62c-.31-.18-.63-.35-1-.52s-.77-.41-1.16-.61-.63-.33-1-.49-.79-.4-1.19-.6L525,174l-1.24-.59-.92-.43-1.31-.59-.87-.39-1.48-.63-.73-.31c-.74-.31-1.49-.61-2.24-.9s-1.56-.6-2.35-.88l-.79-.28-1.57-.56-.95-.31-1.42-.47-1-.32-1.36-.42-1.06-.3-1.34-.38-1.09-.29-1.33-.34-1.1-.27L499.5,165l-1.13-.25-1.31-.28-1.14-.23-1.31-.25c-.38-.08-.76-.14-1.15-.21l-1.3-.23-1.16-.18-1.31-.2-1.17-.17-1.31-.17-1.17-.14-1.32-.15-1.18-.12-1.32-.12-1.19-.09-1.32-.1-1.19-.07-1.33-.07-1.19-.05-1.33-.05-1.2,0-1.34,0h-2.54l-1.2,0-1.35,0-1.2,0-1.36,0-1.2.06-1.37.09-1.2.08-1.38.1-1.19.1-1.39.14-1.19.12-1.39.16L453,163l-1.41.18-1.19.16-1.41.21-1.18.19-1.43.23-1.17.2-1.45.26-1.16.22-1.46.29-1.15.24-1.48.32-1.13.25-1.51.35-1.11.26-1.54.39-1.08.27-1.58.42-1.05.28-1.62.46-1,.29-1.69.51-.94.28-1.81.57-.82.26-2,.66-.66.22-2.38.83-.25.09c-2.66.94-5.33,2-8,3l-.39.16-2.25.93-.68.29-2,.84-.79.36-1.85.81-.88.41-1.76.81-.94.44-1.71.81-1,.48-1.67.82-1,.5-1.64.84-1,.53-1.62.84-1,.56-1.6.86-1.05.58-1.58.88-1.06.6-1.58.89-1.06.62-1.57.92-1.07.64c-.52.31-1,.62-1.55.94l-1.08.65-1.55,1-1.07.68-1.55,1-1.08.69-1.54,1-1.07.71-1.54,1-1.08.73-1.53,1-1.07.74-1.53,1.07-1.07.75-1.53,1.09-1.07.77c-.51.37-1,.74-1.52,1.12l-1.07.78-1.52,1.14-.63.46,0,0c-52.92,39.93-101.84,103.18-134.79,181-20.78,49.11-1.36,96.29,37.47,133.43h0c.75.71,1.51,1.43,2.28,2.14h0q2.29,2.13,4.66,4.2l0,0q2.35,2.06,4.78,4.08l.07,0c1.62,1.34,3.25,2.66,4.92,4l.09.08q2.49,2,5,3.84l.11.09c1.7,1.26,3.42,2.51,5.17,3.73l.12.09c1.74,1.23,3.51,2.44,5.29,3.63l.13.08c1.78,1.2,3.59,2.37,5.42,3.53l.12.08q2.75,1.74,5.55,3.42l.11.07c1.87,1.13,3.77,2.24,5.68,3.33l.08,0q2.89,1.65,5.83,3.24l0,0q4.44,2.4,9,4.66l0,0c2,1,4,2,6,2.92l.11,0c2,1,4,1.87,6.07,2.78l.15.07c2,.9,4.06,1.77,6.1,2.63l.18.08q3.06,1.27,6.14,2.49l.21.08c2.05.81,4.11,1.59,6.18,2.36l.21.08q3.1,1.14,6.23,2.22l.21.07q3.13,1.08,6.28,2.09l.2.07c2.11.67,4.22,1.33,6.34,2l.18,0c2.12.63,4.26,1.24,6.4,1.83l.13,0q1.62.45,3.24.87h0l3.23.83.09,0,3.24.79.09,0c1.07.26,2.15.51,3.23.75h0c1.08.25,2.17.49,3.25.72l.14,0c2.15.46,4.29.89,6.44,1.3l.19,0q3.19.6,6.39,1.14l.22,0c2.12.36,4.24.68,6.36,1l.24,0q3.17.45,6.32.82l.25,0c2.11.24,4.2.46,6.3.65l.25,0q3.13.28,6.26.49l.25,0c2.08.13,4.17.24,6.24.33H437c2.08.09,4.16.14,6.22.16h.2c57,.66,107.72-19.91,129.19-70.61C608.34,444.36,618.1,359.58,604.73,292.8Z" transform="translate(-84.14 -161.84)"/>
    <path class="cls-5" d="M572.57,528.89c35.77-84.53,45.53-169.31,32.16-236.09v0a2,2,0,0,0-.05-.24c-.11-.58-.23-1.15-.35-1.72l-.24-1.13-.36-1.68c-.09-.38-.17-.77-.26-1.15-.12-.55-.25-1.1-.37-1.65l-.27-1.16-.39-1.62c-.1-.38-.19-.77-.29-1.16l-.4-1.6-.3-1.15-.42-1.59c-.1-.38-.21-.76-.31-1.14s-.29-1-.44-1.58c-.1-.37-.21-.74-.32-1.12l-.45-1.58-.33-1.08c-.16-.53-.31-1.06-.48-1.59-.1-.35-.21-.7-.32-1.05l-.51-1.6c-.1-.32-.21-.65-.32-1-.17-.55-.35-1.1-.54-1.64l-.27-.82c-.21-.59-.41-1.19-.61-1.78v0c-.56-1.62-1.15-3.23-1.75-4.82a.78.78,0,0,0,0-.14c-.21-.56-.43-1.12-.64-1.67l-.33-.86-.6-1.51c-.13-.33-.26-.66-.4-1-.19-.49-.39-1-.59-1.44s-.29-.69-.43-1l-.6-1.38c-.15-.36-.3-.71-.46-1.06l-.6-1.35-.48-1.07-.61-1.32c-.17-.35-.33-.71-.5-1.06s-.41-.87-.62-1.3l-.51-1.06-.64-1.28c-.17-.35-.35-.7-.53-1l-.64-1.26-.55-1-.65-1.24-.57-1-.66-1.22c-.2-.34-.39-.68-.58-1s-.45-.8-.68-1.19l-.6-1-.69-1.18-.6-1-.71-1.16-.61-1c-.25-.38-.49-.77-.73-1.15l-.59-.91c-.49-.76-1-1.5-1.48-2.24-.22-.32-.43-.65-.65-1s-.49-.7-.73-1.05-.46-.67-.7-1l-.73-1-.72-1-.74-1-.73-1-.76-1-.75-1c-.25-.33-.51-.65-.76-1l-.77-1-.78-.94-.78-.94-.79-.92-.8-.93-.79-.89-.82-.92-.8-.88-.85-.9c-.26-.29-.53-.57-.8-.86l-.87-.89-.81-.83c-.29-.3-.59-.59-.89-.89l-.81-.8-.92-.88-.81-.77-1-.9-.78-.72-1.08-1-.7-.63L550,190.3l-.55-.46-1.55-1.28-.71-.55-1.16-.92-.79-.6-1.1-.83c-.27-.21-.56-.41-.84-.62l-1.07-.78-.87-.61-1.07-.75-.9-.6-1.07-.72-.91-.59-1.09-.69-.92-.58-1.1-.66c-.31-.19-.62-.38-.94-.56l-1.11-.65-.95-.54-1.13-.62c-.31-.18-.63-.35-1-.52s-.77-.41-1.16-.61-.63-.33-1-.49-.79-.4-1.19-.6L525,174l-1.24-.59-.92-.43-1.31-.59-.87-.39-1.48-.63-.73-.31c-.74-.31-1.49-.61-2.24-.9s-1.56-.6-2.35-.88l-.79-.28-1.57-.56-.95-.31-1.42-.47-1-.32-1.36-.42-1.06-.3-1.34-.38-1.09-.29-1.33-.34-1.1-.27L499.5,165l-1.13-.25-1.31-.28-1.14-.23-1-.19c122.58,123.23,29.53,310.34,29.53,310.34-71.06,71.4-77.25,107.39-54.22,123.72C515.94,592.77,554.55,571.45,572.57,528.89Z" transform="translate(-84.14 -161.84)"/>
    <path class="cls-3" d="M585.72,507.28s-117.45-72-213.17-84.16S203,416.37,203,416.37s-46.31,98.41,37.87,182.18c43.4,43.18,124.5,66.09,154.45,66,11-17.6,54.53-60,82.49-71.81s64.41-15.13,96.31-15.21C594.21,557.32,585.8,507.36,585.72,507.28Z" transform="translate(-84.14 -161.84)"/>
    <path class="cls-4" d="M477.77,592.76c-28,11.79-71.47,54.21-82.49,71.81,0,0,2,8.13,7.49,2.26,2.89-3.07,34.79-40.84,77-59.75,38.37-17.2,87.52-15.84,87.52-15.84s11.39-.68,6.8-13.69C542.18,577.63,505.74,581,477.77,592.76Z" transform="translate(-84.14 -161.84)"/>
    <path class="cls-4" d="M253.75,416.16c-4.5,0-8.75.12-12.71.22h0s9.65,73.07-41.85,117.32a153.76,153.76,0,0,0,8.86,20.74S260.53,520.17,253.75,416.16Z" transform="translate(-84.14 -161.84)"/>
    <path class="cls-4" d="M452.46,608.07c8.94-6.62,17.7-12.1,25.31-15.31-94.09-55.47-89.46-113-82.8-165.84-7.56-1.58-15.05-2.87-22.42-3.8C356.53,526,407.4,564.62,452.46,608.07Z" transform="translate(-84.14 -161.84)"/>
    <path class="cls-4" d="M212.34,392.59,203,416.37s73.87-5.39,169.59,6.75c94.06,11.92,209.08,81.67,213.06,84.1h0s6.77-23.75,6.75-31.26c-49.65-27.81-137.31-72.56-220.55-83.11C260.56,378.74,212.34,392.59,212.34,392.59Z" transform="translate(-84.14 -161.84)"/>
    <path class="cls-6" d="M458.36,599.48s-52.61-44.3-67.34-79.09-10.32-91.11-10.32-91.11" transform="translate(-84.14 -161.84)"/>
    <path class="cls-6" d="M206.94,540.94c11.17-12.11,22.44-26.63,28.44-41,14.56-34.86,12.17-80.42,12.17-80.42" transform="translate(-84.14 -161.84)"/>
    <path class="cls-3" d="M888.79,220.52l-24.7-11.47a2.25,2.25,0,0,0-2.44-.17l-15.43,8.38A2.26,2.26,0,0,0,845,219L806,679l23.68-2.6,33.68,6.9,26.31-460.8A2.28,2.28,0,0,0,888.79,220.52Z" transform="translate(-84.14 -161.84)"/>
    <polygon class="cls-3" points="884.52 154.69 662.56 109.28 660.67 119.12 612.24 60.99 672.54 32.16 671.92 40.9 881.76 103.24 882.14 97.81 911.91 136.46 883.76 161.99 884.52 154.69"/>
    <polygon class="cls-4" points="657.88 121.77 660.67 119.12 612.13 60.86 608.1 64.14 657.88 121.77"/>
    <polygon class="cls-4" points="662.02 112.09 878.92 156.66 878.57 161.62 883.76 161.99 884.52 154.69 662.32 109.27 662.02 112.09"/>
    <polygon class="cls-4" points="878.02 102.13 878.25 99.19 882.14 97.81 881.76 103.24 878.02 102.13"/>
    <g>
      <polygon class="cls-3" points="835.36 128.42 883.56 168.15 830.15 228.66 830.77 219.93 685.8 223.17 685.25 230.96 672.13 201.79 689.6 169.57 689.25 174.53 834.9 141.68 835.36 128.42"/>
      <polygon class="cls-4" points="835.36 128.42 843.54 130.19 892.72 169.51 839.06 230.24 830.09 229.6 883.56 168.15 835.36 128.42"/>
      <polygon class="cls-4" points="692.42 223.02 691.82 231.42 685.25 230.96 685.85 222.46 692.42 223.02"/>
      <polygon class="cls-4" points="696.92 172.8 697.17 169.4 689.65 168.87 689.25 174.53 696.92 172.8"/>
    </g>
    <path class="cls-3" d="M979.44,725.87c-.12-46.88-65.65-84.73-146.37-84.53S687,679.7,687.12,726.59,979.55,772.75,979.44,725.87Z" transform="translate(-84.14 -161.84)"/>
    <path class="cls-3" d="M818.61,663.45s-1.24-51.69-69.41-69.06,56.73,21.46,56.89,84.6S818.61,663.45,818.61,663.45Z" transform="translate(-84.14 -161.84)"/>
    <path class="cls-3" d="M804.94,664s-.9-38-51-50.7c-4.37-1.12,5.15,11.48,10.48,19,2.29,3.23,2.15,3.48,11.17,8.13s20.07,14.68,20.12,35C795.87,721.74,804.94,664,804.94,664Z" transform="translate(-84.14 -161.84)"/>
    <path class="cls-3" d="M861.41,652s3.22-28.39,43.47-47.82S870,615.5,870.06,658.82,861.41,652,861.41,652Z" transform="translate(-84.14 -161.84)"/>
    <path class="cls-3" d="M867.3,652S854,634.82,897.15,623c27-7.38,14.73-3.49-.35,7.76-9,6.75-19.32,13.51-22.23,29.49C866.82,702.88,867.3,652,867.3,652Z" transform="translate(-84.14 -161.84)"/>
  </g>
</svg>
