<svg width="20" height="20" viewBox="0 0 20 20" fill="none" xmlns="http://www.w3.org/2000/svg">
<path fill-rule="evenodd" clip-rule="evenodd" d="M12.4497 0.292969C12.0591 -0.0976562 11.4263 -0.0976562 11.0356 0.292969L6.87988 4.44873L2.72412 0.292969C2.3335 -0.0976562 1.70068 -0.0976562 1.31006 0.292969L0.292969 1.31006C-0.0976562 1.70068 -0.0976562 2.3335 0.292969 2.72412L4.44873 6.87988L0.292969 11.0356C-0.0976562 11.4258 -0.0976562 12.0591 0.292969 12.4497L1.31006 13.4668C1.70068 13.8574 2.33398 13.8574 2.72461 13.4668L6.87988 9.31104L11.0356 13.4668C11.4258 13.8574 12.0591 13.8574 12.4497 13.4668L13.4668 12.4497C13.8574 12.0591 13.8574 11.4258 13.4668 11.0356L9.31104 6.87988L13.4668 2.72412C13.8574 2.3335 13.8574 1.70068 13.4668 1.31006L12.4497 0.292969Z" transform="translate(3.27686 3.27686)" fill="#EFF3F6"/>
</svg>
